<?xml version="1.0" standalone="no"?>
<!DOCTYPE svg PUBLIC "-//W3C//DTD SVG 20010904//EN"
 "http://www.w3.org/TR/2001/REC-SVG-20010904/DTD/svg10.dtd">
<svg version="1.0" xmlns="http://www.w3.org/2000/svg"
 width="512.000000pt" height="512.000000pt" viewBox="0 0 512.000000 512.000000"
 preserveAspectRatio="xMidYMid meet">

<g transform="translate(0.000000,512.000000) scale(0.100000,-0.100000)"
fill="#000000" stroke="none">
<path d="M1713 4798 l-322 -322 -30 28 c-28 27 -29 29 -33 159 -3 123 -6 137
-35 199 -74 157 -237 246 -403 219 -171 -28 -295 -157 -321 -334 -5 -34 -9
-176 -9 -314 l0 -253 267 0 268 0 -250 -250 -250 -250 -215 0 -215 0 -83 -83
-82 -82 0 -153 0 -152 392 0 393 0 227 227 228 228 257 -258 258 -257 -258
-258 -257 -257 343 -343 342 -342 53 52 52 53 -105 105 -105 105 100 100 100
100 228 -228 227 -227 53 53 52 52 -260 260 -260 260 110 110 110 110 -53 53
-52 52 -163 -163 -162 -162 32 -33 33 -32 -100 -100 -100 -100 -132 132 -133
133 297 297 298 298 -52 52 -53 52 -40 -39 -40 -39 -310 309 -310 310 -258
-258 -257 -257 -88 0 -87 0 0 85 0 85 57 0 58 0 327 327 328 328 -55 55 -55
56 38 37 38 37 49 -50 c27 -28 54 -50 60 -50 5 0 168 158 360 350 l350 350 87
0 88 0 0 -80 0 -80 -53 0 -52 0 -235 -235 -235 -235 470 -470 470 -470 52 52
53 52 -82 83 -83 83 703 0 702 0 0 75 0 75 -778 0 -777 0 -145 145 -145 145
503 0 502 0 0 75 0 75 -578 0 -578 0 -39 40 -39 40 159 160 160 160 220 0 220
0 78 78 77 77 0 153 0 152 -398 0 -397 0 -322 -322z m967 125 c0 -39 -5 -52
-32 -80 -32 -33 -33 -33 -125 -33 l-93 0 0 80 0 80 125 0 125 0 0 -47z m-1663
2 c58 -17 117 -70 144 -129 15 -34 19 -66 19 -181 l0 -140 -72 -72 -72 -73
-164 0 -164 0 4 213 c3 174 7 219 21 252 31 69 89 118 162 136 47 11 68 10
122 -6z m-617 -1480 l0 -85 -125 0 -125 0 0 47 c0 41 5 52 37 85 l37 38 88 0
88 0 0 -85z"/>
<path d="M1587 4212 c-26 -26 -47 -52 -47 -58 0 -5 23 -32 50 -59 l50 -49 50
49 c28 27 50 54 50 60 0 10 -91 105 -101 105 -2 0 -26 -22 -52 -48z"/>
<path d="M1762 4027 l-52 -53 48 -47 c26 -26 52 -47 58 -47 5 0 32 23 59 50
l49 50 -49 50 c-27 28 -52 50 -55 50 -3 0 -29 -24 -58 -53z"/>
<path d="M1940 3855 l-55 -55 113 -113 112 -112 55 55 55 55 -113 113 -112
112 -55 -55z"/>
<path d="M2870 3355 l0 -25 -290 0 -290 0 0 -153 0 -152 83 -83 82 -82 220 0
220 0 155 -155 155 -155 -340 -340 -340 -340 -563 0 -563 0 3 -72 3 -73 485
-3 485 -2 -145 -145 -145 -145 -762 0 -763 0 0 -75 0 -75 687 0 688 0 -145
-145 -145 -145 -307 0 -308 0 0 -75 0 -75 232 0 233 0 -285 -285 -285 -285
135 -135 135 -135 140 0 140 0 607 607 608 608 185 -185 185 -185 -287 -287
-288 -288 135 -135 135 -135 145 0 145 0 420 420 420 420 -260 260 -260 260
258 257 257 258 228 -228 227 -227 393 0 392 0 0 153 0 152 -83 83 -82 82
-220 0 -220 0 -243 243 c-133 133 -242 245 -242 250 0 4 119 7 265 7 l265 0 0
253 c0 138 -5 281 -10 316 -19 132 -101 245 -216 298 -195 89 -417 7 -508
-187 -28 -60 -31 -75 -34 -195 -4 -124 -5 -131 -30 -157 -14 -16 -31 -28 -36
-28 -6 0 -133 122 -281 270 l-270 270 173 0 172 0 0 75 0 75 -325 0 -325 0 0
-25z m-180 -260 l0 -85 -87 0 c-87 0 -87 0 -125 37 -34 33 -38 43 -38 85 l0
48 125 0 125 0 0 -85z m680 -270 l355 -355 55 55 56 55 37 -38 37 -38 -55 -54
-55 -55 327 -327 328 -328 57 0 58 0 0 -85 0 -85 -87 0 -88 0 -257 257 -258
258 -310 -310 -310 -310 -68 68 -68 67 -52 -53 -52 -52 325 -325 325 -325
-132 -132 -133 -133 -97 97 -98 97 32 33 32 33 -259 260 -260 260 -65 0 -65 0
-392 -392 -393 -393 -95 95 c-52 52 -95 99 -95 105 0 5 397 407 882 892 l883
883 -230 230 -230 230 -57 0 -58 0 0 85 0 85 88 0 87 0 355 -355z m895 300
c48 -19 92 -62 117 -113 21 -44 23 -61 26 -259 l4 -213 -164 0 -164 0 -73 74
-73 73 4 149 c4 161 10 183 64 238 69 69 167 88 259 51z m667 -1422 c34 -33
38 -43 38 -85 l0 -48 -125 0 -125 0 0 85 0 85 87 0 c87 0 87 0 125 -37z
m-3357 -1393 l-160 -160 -80 0 -81 0 -59 60 -60 60 200 200 200 200 100 -100
100 -100 -160 -160z m1625 255 l95 -95 -160 -160 -160 -160 -80 0 -79 0 -58
57 -58 58 197 197 c109 109 200 198 203 198 3 0 48 -43 100 -95z"/>
<path d="M3642 2197 l-52 -53 53 -52 53 -52 52 53 52 53 -53 52 -53 52 -52
-53z"/>
<path d="M3465 2020 l-50 -50 53 -53 52 -52 52 52 53 53 -50 50 c-27 27 -52
50 -55 50 -3 0 -28 -23 -55 -50z"/>
<path d="M3245 1810 l-89 -90 49 -50 c27 -27 54 -50 60 -50 13 0 175 162 175
176 0 10 -91 104 -101 104 -2 0 -45 -40 -94 -90z"/>
<path d="M2802 2737 l-52 -52 103 -103 103 -102 52 53 52 52 -103 103 -103
102 -52 -53z"/>
</g>
</svg>
