<?xml version="1.0" standalone="no"?>
<!DOCTYPE svg PUBLIC "-//W3C//DTD SVG 20010904//EN"
 "http://www.w3.org/TR/2001/REC-SVG-20010904/DTD/svg10.dtd">
<svg version="1.0" xmlns="http://www.w3.org/2000/svg"
 width="512.000000pt" height="512.000000pt" viewBox="0 0 512.000000 512.000000"
 preserveAspectRatio="xMidYMid meet">

<g transform="translate(0.000000,512.000000) scale(0.100000,-0.100000)"
fill="#000000" stroke="none">
<path d="M3030 3981 l0 -320 48 -6 c476 -59 859 -409 958 -875 25 -115 25
-324 1 -440 -98 -464 -484 -816 -959 -875 l-48 -6 0 -320 0 -320 63 3 62 3 17
173 c12 129 21 178 33 192 9 10 46 25 83 35 98 24 234 80 345 142 68 38 105
53 120 49 12 -3 79 -53 149 -111 70 -58 130 -105 135 -105 5 0 70 62 146 138
l138 138 -110 133 c-61 73 -113 141 -116 152 -5 13 6 42 33 87 77 130 147 302
166 404 11 62 35 73 192 87 77 6 154 14 172 18 l32 5 0 198 0 198 -32 5 c-18
4 -96 12 -172 18 -170 16 -175 19 -206 134 -30 113 -72 215 -136 328 -37 64
-53 104 -49 116 3 11 55 79 116 152 l110 133 -138 138 c-76 76 -141 138 -146
138 -5 0 -65 -47 -135 -105 -70 -58 -137 -108 -149 -111 -17 -4 -51 10 -120
49 -112 64 -225 110 -333 138 -41 11 -83 28 -93 38 -15 14 -22 52 -35 192
l-17 174 -62 3 -63 3 0 -320z"/>
<path d="M2305 4110 l-580 -5 -65 -31 c-73 -35 -152 -102 -203 -172 -19 -26
-131 -219 -250 -429 l-215 -383 949 0 949 0 0 515 c0 283 -1 514 -2 513 -2 -2
-264 -5 -583 -8z"/>
<path d="M3030 2560 l0 -961 48 7 c332 48 612 255 752 558 62 133 84 238 84
396 0 106 -5 154 -22 224 -96 384 -418 673 -814 730 l-48 7 0 -961z"/>
<path d="M605 3341 c-84 -21 -140 -75 -159 -154 l-6 -27 216 2 217 3 48 85
c27 47 49 88 49 93 0 9 -325 7 -365 -2z"/>
<path d="M1840 2950 l-1045 -5 -40 -22 c-52 -27 -121 -102 -146 -157 -36 -82
-34 -124 35 -660 70 -553 68 -543 137 -578 32 -17 104 -18 1072 -18 l1037 0 0
158 0 157 -637 -3 c-716 -3 -683 -6 -683 68 0 74 -35 70 682 70 l638 0 0 65 0
65 -540 0 c-527 0 -540 0 -560 20 -11 11 -20 33 -20 48 0 36 73 253 100 296
31 52 105 115 168 144 l57 27 397 0 398 0 0 168 c0 92 -1 166 -2 165 -2 -2
-473 -5 -1048 -8z m-560 -458 c209 -104 198 -410 -18 -510 -45 -20 -65 -23
-125 -20 -85 5 -135 26 -190 81 -129 129 -100 350 58 443 86 50 182 52 275 6z"/>
<path d="M1110 2380 c-115 -27 -140 -198 -37 -260 95 -58 217 10 217 120 0 97
-84 161 -180 140z"/>
<path d="M2111 2478 c-18 -5 -56 -32 -85 -61 -40 -41 -56 -67 -73 -119 l-21
-68 479 -2 479 -3 0 133 0 132 -372 -1 c-209 0 -388 -5 -407 -11z"/>
<path d="M940 1212 c0 -110 4 -162 12 -170 17 -17 339 -17 356 0 8 8 12 60 12
170 l0 158 -190 0 -190 0 0 -158z"/>
</g>
</svg>
