<?xml version="1.0" standalone="no"?>
<!DOCTYPE svg PUBLIC "-//W3C//DTD SVG 20010904//EN"
 "http://www.w3.org/TR/2001/REC-SVG-20010904/DTD/svg10.dtd">
<svg version="1.0" xmlns="http://www.w3.org/2000/svg"
 width="512.000000pt" height="512.000000pt" viewBox="0 0 512.000000 512.000000"
 preserveAspectRatio="xMidYMid meet">

<g transform="translate(0.000000,512.000000) scale(0.100000,-0.100000)"
fill="#000000" stroke="none">
<path d="M1525 4916 c-94 -30 -163 -82 -212 -160 -54 -85 -54 -77 -51 -848 l3
-713 33 -67 c53 -107 150 -179 269 -198 82 -14 2179 -13 2262 0 107 18 188 69
245 154 68 103 67 84 64 867 l-3 704 -32 66 c-39 79 -102 140 -181 177 l-57
27 -1150 2 c-911 1 -1158 -1 -1190 -11z m2295 -306 c18 -18 20 -33 20 -165 l0
-145 -1140 0 -1140 0 0 149 c0 144 1 151 22 165 20 14 143 16 1120 16 1085 0
1098 0 1118 -20z m20 -978 c0 -362 0 -369 -21 -388 -20 -18 -55 -19 -1093 -22
-589 -1 -1085 0 -1103 3 -65 12 -63 -1 -63 406 l0 369 1140 0 1140 0 0 -368z"/>
<path d="M1740 3560 l0 -150 235 0 236 0 -3 148 -3 147 -232 3 -233 2 0 -150z"/>
<path d="M4477 2833 c-73 -22 -131 -59 -571 -360 l-409 -281 -57 59 c-67 68
-155 114 -246 129 -33 6 -182 10 -332 10 l-274 0 -40 35 c-49 41 -169 104
-255 134 -149 50 -426 66 -608 36 -249 -43 -386 -113 -558 -287 -66 -66 -120
-118 -122 -116 -2 2 -23 40 -47 85 l-44 82 -454 -238 c-250 -130 -454 -241
-453 -247 2 -9 869 -1673 876 -1680 5 -6 901 464 905 475 2 5 -15 46 -37 90
-23 44 -41 83 -41 86 0 3 374 5 830 5 l831 0 771 551 c425 303 788 565 808
583 113 103 166 222 164 376 -1 104 -22 178 -73 257 -69 107 -142 164 -268
210 -76 27 -217 30 -296 6z m232 -303 c104 -52 141 -187 78 -282 -14 -21 -282
-219 -767 -565 l-745 -532 -865 0 -865 0 -197 377 -197 377 147 148 c162 163
203 190 347 228 111 29 340 37 450 16 157 -30 267 -87 313 -161 l27 -45 365
-3 c333 -3 368 -5 393 -21 64 -42 84 -122 47 -182 -40 -65 -38 -65 -549 -65
l-461 0 0 -150 0 -150 478 0 c366 0 489 3 527 14 144 38 259 146 304 287 l16
48 450 307 c562 385 545 374 612 374 34 0 68 -7 92 -20z m-3622 -1150 c163
-311 297 -570 300 -576 2 -7 -74 -52 -183 -109 -174 -90 -188 -96 -200 -80
-26 35 -596 1136 -591 1141 12 13 363 193 371 191 4 -2 141 -257 303 -567z"/>
</g>
</svg>
