<svg width="20" height="20" viewBox="0 0 20 20" fill="none" xmlns="http://www.w3.org/2000/svg">
<path d="M11.0265 7.94972V6.71895C11.0265 6.18562 11.1496 5.89844 12.0111 5.89844H13.0778V3.84716H11.4368C9.38548 3.84716 8.56497 5.201 8.56497 6.71895V7.94972H6.92394V10.001H8.56497V16.1548H11.0265V10.001H12.8316L13.0778 7.94972H11.0265Z" fill="#5D30DD"/>
<path fill-rule="evenodd" clip-rule="evenodd" d="M14.332 1.77125H5.66802C3.51589 1.77125 1.77125 3.51589 1.77125 5.66801V14.332C1.77125 16.4841 3.51589 18.2287 5.66801 18.2287H14.332C16.4841 18.2287 18.2287 16.4841 18.2287 14.332V5.66802C18.2287 3.51589 16.4841 1.77125 14.332 1.77125ZM5.66802 0C2.53766 0 0 2.53766 0 5.66801V14.332C0 17.4623 2.53766 20 5.66801 20H14.332C17.4623 20 20 17.4623 20 14.332V5.66802C20 2.53766 17.4623 0 14.332 0H5.66802Z" fill="#5D30DD"/>
<path d="M10.5265 7.94972V8.44972H11.0265H12.5142L12.388 9.501H11.0265H10.5265V10.001V15.6548H9.06497V10.001V9.501H8.56497H7.42394V8.44972H8.56497H9.06497V7.94972V6.71895C9.06497 6.04363 9.24777 5.45525 9.60815 5.04282C9.9584 4.64197 10.5286 4.34716 11.4368 4.34716H12.5778V5.39844H12.0111C11.5588 5.39844 11.1312 5.46613 10.8422 5.75514C10.5468 6.05048 10.5265 6.44918 10.5265 6.71895V7.94972ZM14.332 1.27126H5.66802C3.23975 1.27126 1.27126 3.23975 1.27126 5.66801V14.332C1.27126 16.7602 3.23975 18.7287 5.66801 18.7287H14.332C16.7602 18.7287 18.7287 16.7602 18.7287 14.332V5.66802C18.7287 3.23975 16.7602 1.27126 14.332 1.27126ZM0.5 5.66801C0.5 2.8138 2.8138 0.5 5.66802 0.5H14.332C17.1862 0.5 19.5 2.8138 19.5 5.66802V14.332C19.5 17.1862 17.1862 19.5 14.332 19.5H5.66801C2.8138 19.5 0.5 17.1862 0.5 14.332V5.66801Z" fill="#F2C101" stroke="#F2C101"/>
</svg>
