<svg width="15" height="15" viewBox="0 0 15 15" fill="none" xmlns="http://www.w3.org/2000/svg">
<path d="M14.8457 7.26758C14.8457 8.67412 14.8457 9.62272 14.813 10.1461C14.7476 11.4218 14.3878 12.4031 13.6681 13.09C12.9485 13.7769 11.9999 14.1694 10.7242 14.2349C10.2008 14.2676 9.21954 14.2676 7.8457 14.2676C6.43916 14.2676 5.49056 14.2676 4.9672 14.2349C3.6915 14.1694 2.71019 13.8096 2.02327 13.09C1.33636 12.4031 0.943834 11.4218 0.878413 10.1461C0.845703 9.62272 0.845703 8.64141 0.845703 7.26758C0.845703 5.89375 0.845703 4.91244 0.878413 4.38907C0.943834 3.11337 1.30365 2.13206 2.02327 1.44515C2.71019 0.758232 3.6915 0.365709 4.9672 0.300288C5.49056 0.267578 6.47187 0.267578 7.8457 0.267578C9.25225 0.267578 10.2008 0.267578 10.7242 0.300288C11.9999 0.365709 12.9812 0.725522 13.6681 1.44515C14.355 2.16477 14.7476 3.11337 14.813 4.38907C14.813 4.91244 14.8457 5.86104 14.8457 7.26758ZM8.53262 1.51057C8.10739 1.51057 7.87841 1.51057 7.8457 1.51057C7.81299 1.51057 7.58402 1.51057 7.15879 1.51057C6.73355 1.51057 6.40645 1.51057 6.21019 1.51057C5.98122 1.51057 5.68682 1.51057 5.32701 1.54328C4.9672 1.54328 4.6401 1.57599 4.37841 1.64141C4.11673 1.67412 3.88776 1.73954 3.72421 1.80496C3.42982 1.9358 3.16813 2.09935 2.90645 2.32833C2.67748 2.5573 2.51393 2.81898 2.38309 3.14608C2.31767 3.30963 2.25225 3.53861 2.21953 3.80029C2.18682 4.06197 2.15411 4.35636 2.1214 4.74889C2.1214 5.1087 2.08869 5.40309 2.08869 5.63206C2.08869 5.86104 2.08869 6.18814 2.08869 6.58066C2.08869 7.0059 2.08869 7.23487 2.08869 7.26758C2.08869 7.30029 2.08869 7.52926 2.08869 7.95449C2.08869 8.37973 2.08869 8.70683 2.08869 8.90309C2.08869 9.13206 2.08869 9.42646 2.1214 9.78627C2.1214 10.1461 2.15411 10.4732 2.21953 10.7349C2.28496 10.9966 2.31767 11.2255 2.38309 11.3891C2.51393 11.6835 2.67748 11.9451 2.90645 12.2068C3.13542 12.4358 3.39711 12.5994 3.72421 12.7302C3.88776 12.7956 4.11673 12.861 4.37841 12.8937C4.6401 12.9265 4.93449 12.9592 5.32701 12.9919C5.71953 13.0246 5.98122 13.0246 6.21019 13.0246C6.43916 13.0246 6.76626 13.0246 7.15879 13.0246C7.58402 13.0246 7.81299 13.0246 7.8457 13.0246C7.87841 13.0246 8.10739 13.0246 8.53262 13.0246C8.95785 13.0246 9.28496 13.0246 9.48122 13.0246C9.71019 13.0246 10.0046 13.0246 10.3644 12.9919C10.7242 12.9919 11.0513 12.9592 11.313 12.8937C11.5747 12.861 11.8036 12.7956 11.9672 12.7302C12.2616 12.5994 12.5233 12.4358 12.785 12.2068C13.0139 11.9779 13.1775 11.7162 13.3083 11.3891C13.3737 11.2255 13.4392 10.9966 13.4719 10.7349C13.5046 10.4732 13.5373 10.1788 13.57 9.78627C13.57 9.42646 13.6027 9.13206 13.6027 8.90309C13.6027 8.67412 13.6027 8.34702 13.6027 7.95449C13.6027 7.52926 13.6027 7.30029 13.6027 7.26758C13.6027 7.23487 13.6027 7.0059 13.6027 6.58066C13.6027 6.15543 13.6027 5.82833 13.6027 5.63206C13.6027 5.40309 13.6027 5.1087 13.57 4.74889C13.57 4.38907 13.5373 4.06197 13.4719 3.80029C13.4392 3.53861 13.3737 3.30963 13.3083 3.14608C13.1775 2.85169 13.0139 2.59001 12.785 2.32833C12.556 2.09935 12.2943 1.9358 11.9672 1.80496C11.8036 1.73954 11.5747 1.67412 11.313 1.64141C11.0513 1.6087 10.7569 1.57599 10.3644 1.54328C10.0046 1.54328 9.71019 1.51057 9.48122 1.51057C9.28496 1.51057 8.95785 1.51057 8.53262 1.51057ZM10.3644 4.71618C11.0513 5.40309 11.4111 6.25356 11.4111 7.26758C11.4111 8.2816 11.0513 9.09935 10.3644 9.81898C9.67748 10.5059 8.82701 10.8657 7.81299 10.8657C6.79897 10.8657 5.98122 10.5059 5.26159 9.81898C4.57467 9.13206 4.21486 8.2816 4.21486 7.26758C4.21486 6.25356 4.57467 5.4358 5.26159 4.71618C5.94851 4.02926 6.79897 3.66945 7.81299 3.66945C8.82701 3.66945 9.67748 3.99655 10.3644 4.71618ZM9.48122 8.90309C9.93916 8.44515 10.1681 7.88907 10.1681 7.26758C10.1681 6.64608 9.93916 6.0573 9.48122 5.59935C9.02327 5.14141 8.4672 4.91244 7.81299 4.91244C7.15879 4.91244 6.60271 5.14141 6.14477 5.59935C5.68682 6.0573 5.45785 6.61337 5.45785 7.26758C5.45785 7.92178 5.68682 8.47786 6.14477 8.90309C6.60271 9.36104 7.15879 9.59001 7.81299 9.59001C8.4672 9.59001 9.02327 9.36104 9.48122 8.90309ZM12.1635 2.91711C12.327 3.08066 12.4251 3.27692 12.4251 3.5059C12.4251 3.73487 12.327 3.93113 12.1635 4.09468C11.9999 4.25823 11.8036 4.35636 11.5747 4.35636C11.3457 4.35636 11.1494 4.25823 10.9859 4.09468C10.8223 3.93113 10.7242 3.73487 10.7242 3.5059C10.7242 3.27692 10.8223 3.08066 10.9859 2.91711C11.1494 2.75356 11.3457 2.65543 11.5747 2.65543C11.8036 2.65543 11.9999 2.75356 12.1635 2.91711Z" fill="white"/>
</svg>
