<svg width="20" height="20" viewBox="0 0 20 20" fill="none" xmlns="http://www.w3.org/2000/svg">
<path d="M9.9768 4.87369C8.61689 4.87369 7.31269 5.41391 6.35109 6.3755C5.38949 7.3371 4.84927 8.64131 4.84927 10.0012C4.84927 11.3611 5.38949 12.6653 6.35109 13.6269C7.31269 14.5885 8.61689 15.1287 9.9768 15.1287C11.3367 15.1287 12.6409 14.5885 13.6025 13.6269C14.5641 12.6653 15.1043 11.3611 15.1043 10.0012C15.1043 8.64131 14.5641 7.3371 13.6025 6.3755C12.6409 5.41391 11.3367 4.87369 9.9768 4.87369ZM9.9768 13.3312C9.09333 13.3312 8.24605 12.9803 7.62134 12.3556C6.99664 11.7309 6.64568 10.8836 6.64568 10.0001C6.64568 9.11664 6.99664 8.26935 7.62134 7.64465C8.24605 7.01994 9.09333 6.66899 9.9768 6.66899C10.8603 6.66899 11.7075 7.01994 12.3323 7.64465C12.957 8.26935 13.3079 9.11664 13.3079 10.0001C13.3079 10.8836 12.957 11.7309 12.3323 12.3556C11.7075 12.9803 10.8603 13.3312 9.9768 13.3312Z" fill="#5D30DD"/>
<path d="M15.3073 5.93374C15.9675 5.93374 16.5027 5.39855 16.5027 4.73836C16.5027 4.07816 15.9675 3.54297 15.3073 3.54297C14.6471 3.54297 14.1119 4.07816 14.1119 4.73836C14.1119 5.39855 14.6471 5.93374 15.3073 5.93374Z" fill="#5D30DD"/>
<path d="M19.44 3.44422C19.1833 2.7813 18.791 2.17929 18.2882 1.67671C17.7855 1.17414 17.1833 0.78207 16.5203 0.525615C15.7444 0.234372 14.9248 0.0768919 14.0963 0.0598801C13.0284 0.0133066 12.6902 0 9.98226 0C7.27434 0 6.92726 -1.11759e-07 5.86826 0.0598801C5.04035 0.0760221 4.22129 0.233535 3.44644 0.525615C2.78325 0.781771 2.18093 1.17373 1.67813 1.67635C1.17532 2.17896 0.783132 2.78113 0.526724 3.44422C0.235423 4.22002 0.078304 5.03974 0.062098 5.86826C0.0144156 6.93502 0 7.27323 0 9.98226C0 12.6902 -7.45058e-09 13.035 0.062098 14.0963C0.0787314 14.9257 0.235085 15.7441 0.526724 16.5214C0.783852 17.1843 1.17642 17.7862 1.67935 18.2887C2.18228 18.7913 2.7845 19.1834 3.44755 19.44C4.22093 19.743 5.04033 19.9117 5.87048 19.939C6.93834 19.9856 7.27656 20 9.98448 20C12.6924 20 13.0395 20 14.0985 19.939C14.9269 19.9222 15.7465 19.7651 16.5225 19.4744C17.1854 19.2173 17.7873 18.8249 18.2901 18.3222C18.7928 17.8195 19.1852 17.2175 19.4422 16.5547C19.7339 15.7784 19.8902 14.9601 19.9069 14.1306C19.9545 13.0639 19.969 12.7257 19.969 10.0166C19.969 7.30761 19.969 6.96385 19.9069 5.90264C19.8939 5.0624 19.736 4.2307 19.44 3.44422ZM18.0894 14.0142C18.0822 14.6533 17.9656 15.2864 17.7445 15.886C17.578 16.3172 17.323 16.7088 16.9961 17.0356C16.6691 17.3623 16.2774 17.617 15.8461 17.7833C15.2531 18.0034 14.6267 18.12 13.9942 18.1282C12.9408 18.177 12.6436 18.1892 9.94234 18.1892C7.23886 18.1892 6.96274 18.1892 5.88933 18.1282C5.25718 18.1205 4.6311 18.0038 4.03859 17.7833C3.60577 17.6181 3.21247 17.3638 2.88411 17.037C2.55575 16.7102 2.29966 16.318 2.1324 15.886C1.91444 15.2928 1.79786 14.6672 1.78754 14.0353C1.73985 12.9818 1.72876 12.6846 1.72876 9.98337C1.72876 7.28099 1.72876 7.00488 1.78754 5.93036C1.7947 5.29166 1.91135 4.65893 2.1324 4.05966C2.47061 3.18474 3.16367 2.49612 4.03859 2.16123C4.63139 1.94183 5.25729 1.8252 5.88933 1.81637C6.94389 1.76868 7.23996 1.75538 9.94234 1.75538C12.6447 1.75538 12.9219 1.75538 13.9942 1.81637C14.6268 1.82398 15.2532 1.94064 15.8461 2.16123C16.2774 2.32787 16.669 2.58284 16.996 2.90977C17.3229 3.2367 17.5779 3.62838 17.7445 4.05966C17.9625 4.65286 18.0791 5.27851 18.0894 5.9104C18.1371 6.96496 18.1493 7.26103 18.1493 9.96341C18.1493 12.6647 18.1493 12.9552 18.1016 14.0153H18.0894V14.0142Z" fill="#5D30DD"/>
<path d="M14.0745 0.559405L14.0745 0.559538L14.086 0.559775C14.8571 0.575608 15.62 0.722038 16.3422 0.992838C16.9394 1.2242 17.4818 1.57755 17.9348 2.03033C18.3878 2.48317 18.7413 3.0255 18.9729 3.62268C19.2481 4.35458 19.3949 5.12848 19.4069 5.91032L19.4071 5.92109L19.4077 5.93185C19.4688 6.97581 19.469 7.30448 19.469 10.0166C19.469 12.722 19.4546 13.052 19.4073 14.1083L19.4072 14.1083L19.407 14.1206C19.3915 14.8928 19.2461 15.6542 18.9751 16.3763C18.7432 16.9734 18.3895 17.5157 17.9365 17.9687C17.4836 18.4216 16.9414 18.7753 16.3443 19.0072C15.6221 19.2774 14.8593 19.4234 14.0883 19.4391L14.079 19.4393L14.0697 19.4398C13.0277 19.4998 12.6955 19.5 9.98448 19.5C7.28022 19.5 6.95 19.4856 5.89227 19.4395L5.89227 19.4395L5.88691 19.4393C5.11362 19.4139 4.35033 19.2567 3.62992 18.9744L3.62802 18.9737C3.02983 18.7422 2.4865 18.3884 2.03277 17.935C1.57967 17.4823 1.22586 16.9401 0.993866 16.3431C0.722831 15.6198 0.577481 14.8584 0.561998 14.0862L0.561805 14.0766L0.561244 14.067C0.500155 13.0231 0.5 12.6933 0.5 9.98226C0.5 7.27685 0.514385 6.94687 0.561599 5.89059L0.561757 5.8906L0.562002 5.87804C0.577083 5.10707 0.723148 4.34428 0.993949 3.62229C1.22524 3.02509 1.57866 2.48274 2.03161 2.02997C2.48466 1.57709 3.02727 1.22382 3.62471 0.99276C4.34569 0.721234 5.10774 0.574803 5.87801 0.559785L5.88726 0.559605L5.89649 0.559083C6.9388 0.500146 7.27128 0.5 9.98226 0.5C12.6869 0.5 13.017 0.513285 14.0745 0.559405ZM18.2136 16.059C18.3972 15.5612 18.5146 15.0422 18.5636 14.5153H18.5796L18.6011 14.0378C18.6493 12.9665 18.6493 12.6637 18.6493 9.97839V9.96341C18.6493 7.26406 18.6371 6.95474 18.5892 5.8949C18.5772 5.20941 18.4503 4.53078 18.2138 3.88722L18.2139 3.88719L18.2109 3.87945C18.0191 3.38316 17.7257 2.93244 17.3495 2.55622C16.9733 2.18 16.5226 1.88659 16.0263 1.69484L16.0263 1.6948L16.0204 1.69262C15.3773 1.4533 14.6978 1.32611 14.0117 1.31655C12.9341 1.25538 12.6345 1.25538 9.96008 1.25538H9.94234C7.24303 1.25538 6.93352 1.26865 5.87438 1.31653C5.18816 1.32702 4.5087 1.45409 3.86504 1.69232L3.86503 1.69229L3.85985 1.69427C2.8533 2.07954 2.05544 2.87204 1.66603 3.87938L1.66598 3.87936L1.6633 3.88662C1.42374 4.53606 1.29673 5.22158 1.2877 5.91368C1.22876 6.99314 1.22876 7.29089 1.22876 9.96633V9.98337C1.22876 12.6812 1.23981 12.9918 1.28773 14.0508C1.29975 14.7363 1.42662 15.4149 1.66308 16.0584L1.66301 16.0585L1.66612 16.0665C1.85865 16.5638 2.15342 17.0152 2.53138 17.3914C2.90934 17.7676 3.36206 18.0602 3.86025 18.2505L3.86422 18.2519C4.50704 18.4911 5.18608 18.6183 5.87183 18.628C6.95054 18.6892 7.24902 18.6892 9.9247 18.6892H9.94234C12.6396 18.6892 12.951 18.677 14.0092 18.628C14.696 18.6182 15.3761 18.4911 16.02 18.2521L16.0201 18.2521L16.0259 18.2499C16.5224 18.0585 16.9732 17.7653 17.3495 17.3892C17.7259 17.0131 18.0193 16.5624 18.2109 16.0661L18.211 16.0662L18.2136 16.059ZM6.70464 6.72906C7.57247 5.86123 8.7495 5.37369 9.9768 5.37369C11.2041 5.37369 12.3811 5.86123 13.2489 6.72906C14.1168 7.59689 14.6043 8.77392 14.6043 10.0012C14.6043 11.2285 14.1168 12.4055 13.2489 13.2734C12.3811 14.1412 11.2041 14.6287 9.9768 14.6287C8.7495 14.6287 7.57247 14.1412 6.70464 13.2734C5.83682 12.4055 5.34927 11.2285 5.34927 10.0012C5.34927 8.77392 5.83682 7.59689 6.70464 6.72906ZM7.26779 12.7091C7.98626 13.4276 8.96072 13.8312 9.9768 13.8312C10.9929 13.8312 11.9673 13.4276 12.6858 12.7091C13.4043 11.9906 13.8079 11.0162 13.8079 10.0001C13.8079 8.98403 13.4043 8.00957 12.6858 7.29109C11.9673 6.57262 10.9929 6.16899 9.9768 6.16899C8.96072 6.16899 7.98626 6.57262 7.26779 7.29109C6.54932 8.00957 6.14568 8.98403 6.14568 10.0001C6.14568 11.0162 6.54932 11.9906 7.26779 12.7091ZM16.0027 4.73836C16.0027 5.12241 15.6913 5.43374 15.3073 5.43374C14.9232 5.43374 14.6119 5.12241 14.6119 4.73836C14.6119 4.3543 14.9232 4.04297 15.3073 4.04297C15.6913 4.04297 16.0027 4.3543 16.0027 4.73836Z" fill="white" stroke="#F2C101"/>
</svg>
