<?xml version="1.0" standalone="no"?>
<!DOCTYPE svg PUBLIC "-//W3C//DTD SVG 20010904//EN"
 "http://www.w3.org/TR/2001/REC-SVG-20010904/DTD/svg10.dtd">
<svg version="1.0" xmlns="http://www.w3.org/2000/svg"
 width="1400.000000pt" height="980.000000pt" viewBox="0 0 1400.000000 980.000000"
 preserveAspectRatio="xMidYMid meet">

<g transform="translate(0.000000,980.000000) scale(0.100000,-0.100000)"
fill="#000000" stroke="none">
<path d="M2850 7680 l0 -220 135 0 135 0 -2 218 -3 217 -132 3 -133 3 0 -221z"/>
<path d="M8355 7843 c-233 -28 -447 -113 -626 -247 -254 -192 -424 -466 -485
-784 -25 -127 -22 -338 5 -469 55 -266 171 -474 370 -665 185 -179 404 -289
665 -334 137 -24 368 -15 504 21 238 62 420 165 589 334 144 144 243 307 307
503 47 143 60 231 59 393 -1 333 -118 625 -347 863 -150 156 -327 267 -530
331 -158 51 -363 72 -511 54z m262 -314 c299 -40 579 -241 717 -514 19 -39 38
-82 42 -98 6 -25 3 -29 -58 -57 -182 -85 -324 -72 -488 46 -100 72 -232 117
-345 117 -122 0 -229 -40 -373 -136 -146 -98 -266 -108 -440 -35 -41 17 -76
37 -79 44 -3 8 11 48 31 90 182 384 577 600 993 543z m-169 -741 l35 -22 39
23 c37 21 41 21 64 6 13 -8 24 -25 24 -37 0 -28 28 -58 55 -58 11 0 26 -5 33
-12 17 -17 15 -63 -3 -78 -19 -16 -19 -40 1 -68 8 -12 14 -34 12 -49 -2 -22
-10 -30 -42 -38 -41 -12 -47 -19 -63 -70 -10 -36 -42 -44 -78 -21 -31 20 -49
20 -80 0 -35 -23 -73 -11 -80 24 -10 45 -20 56 -59 65 -44 11 -57 45 -32 87
20 35 20 54 0 70 -19 16 -15 70 6 81 8 4 27 10 42 14 21 4 30 14 38 45 9 32
30 58 49 60 2 0 20 -10 39 -22z m-818 -340 c30 -11 108 -30 173 -43 151 -30
218 -67 339 -187 93 -92 118 -177 118 -395 0 -172 5 -164 -81 -134 -298 102
-540 364 -612 662 -31 128 -31 133 -11 124 11 -4 44 -16 74 -27z m1775 -93
c-78 -307 -313 -563 -612 -666 -92 -31 -86 -43 -81 159 6 197 13 230 75 320
35 52 166 162 232 197 19 9 87 28 152 41 65 12 148 34 186 47 43 14 69 19 71
12 1 -5 -9 -55 -23 -110z"/>
<path d="M2130 7628 l0 -193 115 -84 115 -85 0 -43 0 -43 -67 0 c-96 0 -138
-15 -194 -67 -81 -76 -79 -59 -79 -683 0 -624 -2 -607 79 -683 27 -25 66 -50
87 -56 55 -15 734 -15 785 1 51 15 114 69 142 122 22 41 22 41 22 616 0 575 0
575 -22 616 -28 53 -91 107 -142 122 -22 7 -104 12 -190 12 l-151 0 0 113 0
112 -92 70 -93 70 143 3 142 3 0 134 0 135 -300 0 -300 0 0 -192z"/>
<path d="M10790 7670 l0 -100 50 0 50 0 0 -75 0 -75 -50 0 -50 0 0 -100 0
-100 50 0 50 0 0 -80 0 -80 -50 0 -50 0 0 -95 0 -95 525 0 525 0 0 95 0 95
-50 0 -50 0 0 80 0 80 50 0 50 0 0 100 0 100 -50 0 -50 0 0 75 0 75 50 0 50 0
0 100 0 100 -525 0 -525 0 0 -100z"/>
<path d="M5245 7683 c-53 -8 -180 -42 -219 -58 -22 -9 -35 -21 -32 -28 25 -60
38 -127 33 -177 -5 -54 -33 -127 -63 -161 -12 -14 -12 -21 1 -52 28 -67 21
-89 -54 -174 -90 -103 -126 -161 -158 -258 -22 -66 -26 -99 -27 -195 -2 -183
38 -283 174 -434 87 -96 93 -113 65 -180 -15 -34 -14 -38 9 -74 47 -75 59
-176 31 -268 -8 -27 -15 -52 -15 -56 0 -9 109 -44 200 -64 94 -21 308 -23 410
-5 455 82 808 433 896 890 18 91 20 294 4 383 -76 430 -392 773 -817 888 -61
17 -114 22 -243 25 -91 2 -178 1 -195 -2z m308 -798 c67 -33 130 -97 160 -163
31 -68 31 -198 -1 -267 -29 -63 -92 -129 -157 -163 -44 -24 -61 -27 -145 -27
-83 0 -101 3 -145 27 -113 59 -175 155 -183 278 -3 60 0 86 17 131 24 64 83
136 138 170 91 57 218 62 316 14z"/>
<path d="M4738 7630 c-15 -9 -11 -22 36 -127 l53 -116 -58 -39 c-74 -50 -183
-167 -232 -249 -50 -85 -92 -196 -112 -298 -26 -128 -17 -355 19 -476 35 -117
92 -234 154 -315 50 -67 206 -220 223 -220 6 0 -16 -50 -48 -112 -32 -62 -59
-115 -61 -119 -1 -3 15 -14 37 -24 103 -46 191 41 191 190 0 74 -23 132 -64
158 l-25 17 25 55 c13 31 24 60 24 66 0 5 -36 50 -80 100 -130 147 -174 264
-173 454 1 196 56 337 188 489 l72 82 -27 61 -28 61 30 22 c41 30 68 93 68
160 0 66 -43 151 -90 175 -33 17 -96 19 -122 5z"/>
<path d="M4564 7511 c-310 -257 -467 -673 -414 -1098 38 -303 183 -573 403
-750 43 -35 81 -63 85 -63 4 0 25 35 48 78 l40 77 -76 75 c-225 222 -331 497
-317 824 8 205 64 380 169 534 34 50 168 189 206 214 l22 15 -35 76 c-20 43
-41 77 -48 77 -7 0 -44 -27 -83 -59z"/>
<path d="M10790 6656 l0 -74 44 -6 c94 -14 183 -105 196 -200 l5 -41 78 -3
c74 -3 77 -4 72 -25 -3 -12 -21 -128 -40 -257 -22 -145 -44 -254 -57 -285 -25
-59 -28 -144 -6 -196 22 -50 74 -106 122 -132 54 -28 165 -30 216 -3 123 64
175 188 130 311 -19 53 -99 504 -100 562 0 21 5 22 72 25 l72 3 11 52 c22 95
89 163 185 186 l50 12 0 72 0 73 -525 0 -525 0 0 -74z m610 -886 c58 -41 76
-128 40 -188 -95 -155 -325 -35 -251 132 35 81 138 108 211 56z"/>
<path d="M11631 5818 c0 -32 35 -207 42 -214 11 -12 47 8 47 26 0 44 30 60
159 82 l123 22 -6 45 c-3 24 -8 46 -9 48 -2 1 -50 -6 -108 -17 -136 -26 -155
-25 -183 5 -30 32 -66 34 -65 3z"/>
<path d="M10923 5713 c-7 -2 -13 -14 -13 -26 0 -38 -29 -55 -132 -78 l-100
-23 6 -45 c3 -24 7 -46 9 -47 2 -2 40 5 86 16 45 11 95 20 111 20 28 0 60 -22
60 -41 0 -5 14 -9 31 -9 27 0 31 3 26 23 -3 12 -13 66 -22 120 -18 99 -23 106
-62 90z"/>
<path d="M2220 5439 l0 -161 108 58 c182 97 162 75 162 176 l0 88 -135 0 -135
0 0 -161z"/>
<path d="M2670 5441 l0 -161 103 56 c56 30 117 62 135 72 l33 16 -3 86 -3 85
-132 3 -133 3 0 -160z"/>
<path d="M8350 4419 c-557 -69 -991 -479 -1096 -1035 -24 -128 -22 -330 5
-461 161 -784 974 -1221 1717 -923 380 152 667 498 755 911 29 134 31 371 5
494 -127 590 -603 996 -1197 1019 -63 3 -148 1 -189 -5z m260 -109 c259 -28
487 -133 674 -310 409 -388 480 -990 172 -1465 -76 -118 -232 -271 -350 -344
-98 -61 -215 -111 -333 -142 -96 -26 -356 -38 -457 -20 -298 52 -562 211 -737
444 -78 104 -162 276 -196 403 -25 91 -27 115 -27 289 -1 209 10 273 74 431
134 335 434 596 785 684 147 37 252 45 395 30z"/>
<path d="M8345 4230 c-236 -37 -466 -158 -628 -329 -440 -467 -377 -1205 137
-1593 317 -238 736 -282 1093 -113 121 57 192 105 282 190 274 258 395 642
317 1006 -43 201 -135 368 -291 524 -158 159 -293 237 -504 292 -109 27 -304
38 -406 23z m-30 -232 c102 -103 146 -198 161 -347 l6 -70 -38 -6 c-22 -4 -42
-7 -46 -8 -5 -1 -52 41 -105 93 -82 80 -114 104 -193 143 -52 26 -124 55 -160
65 l-65 18 65 48 c96 71 225 134 279 135 16 1 45 -21 96 -71z m612 12 c54 -27
118 -67 142 -88 l45 -39 -16 -95 c-16 -102 -46 -172 -106 -251 -33 -42 -124
-122 -150 -129 -5 -2 -21 11 -35 28 l-26 31 24 78 c55 176 55 365 0 498 -12
28 17 21 122 -33z m-931 -585 c62 -21 92 -35 132 -61 2 -1 -6 -30 -19 -63 -14
-40 -27 -61 -38 -61 -39 0 -216 -71 -284 -113 -41 -26 -106 -80 -144 -120
l-70 -74 -12 62 c-23 126 -9 377 22 397 6 4 46 19 87 33 106 34 224 34 326 0z
m1444 -163 c11 -92 3 -242 -16 -304 -3 -9 -37 -28 -82 -45 -68 -25 -90 -28
-192 -27 -120 0 -177 14 -256 63 l-32 19 22 61 c13 38 27 61 36 61 38 0 216
71 283 113 41 26 105 79 143 120 80 84 77 86 94 -61z m-828 73 c62 -44 90
-105 86 -181 -5 -82 -38 -132 -109 -168 -84 -41 -167 -30 -233 32 -67 63 -83
154 -41 239 40 79 103 116 192 111 50 -3 71 -10 105 -33z m-443 -538 c-53
-156 -60 -306 -23 -449 8 -33 13 -63 10 -66 -9 -8 -144 62 -208 108 l-58 42 0
57 c0 156 95 328 229 416 l36 24 21 -23 21 -24 -28 -85z m490 -88 c104 -118
251 -210 392 -244 l69 -17 -42 -33 c-65 -52 -155 -102 -242 -136 l-78 -30 -40
27 c-134 93 -228 273 -228 441 0 30 2 32 53 41 28 5 54 10 57 11 3 0 30 -26
59 -60z"/>
<path d="M8437 3240 c-51 -41 -43 -126 16 -156 39 -21 90 -11 117 23 67 86
-47 200 -133 133z"/>
<path d="M11247 4383 c-4 -3 -7 -55 -7 -115 l0 -108 363 2 362 3 0 110 0 110
-356 3 c-195 1 -358 -1 -362 -5z"/>
<path d="M2165 4201 c-52 -24 -121 -99 -134 -147 -7 -26 -11 -316 -11 -890 0
-738 2 -856 15 -895 19 -57 86 -123 143 -143 l42 -15 0 1054 c0 580 -3 1055
-7 1055 -5 0 -26 -9 -48 -19z"/>
<path d="M2300 3165 l0 -1055 94 0 c52 0 97 4 101 9 3 6 -27 46 -66 90 l-71
81 72 80 72 80 -72 81 -71 81 23 27 c13 14 45 50 71 80 l47 53 -52 60 c-98
111 -96 92 -18 183 l69 79 -27 32 c-15 18 -46 55 -69 82 l-43 49 69 79 c79 90
81 72 -17 182 l-53 61 72 80 71 81 -72 80 -72 80 71 81 72 80 -53 60 c-29 33
-59 69 -67 80 -9 12 -25 19 -47 19 l-34 0 0 -1055z"/>
<path d="M2497 4186 c15 -19 45 -55 67 -80 l38 -46 -66 -76 c-36 -41 -66 -79
-66 -83 0 -4 29 -41 65 -82 35 -41 65 -76 65 -79 0 -3 -29 -39 -65 -80 -36
-41 -65 -79 -65 -84 0 -4 30 -41 66 -82 l66 -74 -18 -24 c-11 -13 -40 -49 -66
-79 -27 -30 -48 -58 -48 -62 0 -4 29 -40 65 -80 36 -40 65 -76 65 -80 0 -4
-31 -42 -69 -84 l-69 -76 45 -50 c24 -28 56 -65 70 -83 l25 -32 -66 -74 c-36
-41 -66 -78 -66 -82 0 -5 29 -43 65 -84 36 -41 65 -77 65 -80 0 -3 -30 -38
-65 -79 -36 -41 -65 -78 -65 -82 0 -4 30 -42 66 -83 36 -41 63 -80 59 -86 -4
-6 15 -10 54 -10 33 0 63 5 66 10 4 6 -23 44 -59 84 -36 41 -66 79 -66 86 0 7
30 45 66 86 l66 74 -66 75 c-36 42 -66 81 -66 87 0 6 30 44 66 85 l66 73 -35
43 c-20 23 -51 60 -70 82 l-35 40 52 58 c97 111 96 93 17 183 l-69 79 35 40
c18 22 50 59 69 82 l36 43 -66 73 c-36 41 -66 79 -66 85 0 6 30 45 66 86 l66
75 -66 76 c-36 42 -66 80 -66 86 0 6 30 44 66 85 l66 74 -48 56 c-27 31 -57
67 -67 80 -16 21 -27 24 -79 24 l-60 0 29 -34z"/>
<path d="M2711 4193 c84 -94 109 -123 109 -130 0 -5 -30 -41 -65 -82 -36 -41
-65 -77 -65 -80 0 -3 29 -40 65 -81 36 -41 65 -78 65 -81 0 -3 -29 -39 -65
-80 -36 -40 -65 -76 -65 -80 0 -3 29 -39 65 -80 35 -41 65 -78 65 -83 0 -4
-29 -41 -65 -81 -36 -40 -65 -76 -65 -80 0 -4 29 -40 65 -80 36 -40 65 -76 65
-80 0 -4 -29 -40 -65 -80 -36 -40 -65 -76 -65 -80 0 -4 29 -40 65 -80 36 -40
65 -77 65 -81 0 -5 -30 -42 -65 -83 -36 -41 -65 -77 -65 -80 0 -3 30 -39 65
-80 36 -41 65 -77 65 -80 0 -3 -29 -40 -65 -81 -36 -41 -65 -77 -65 -80 0 -3
29 -39 65 -80 36 -41 63 -81 60 -87 -3 -9 8 -13 35 -13 l40 0 0 1055 0 1055
-102 0 -102 0 25 -27z"/>
<path d="M2970 3165 l0 -1056 23 7 c50 15 97 45 126 81 63 76 62 53 59 994
l-3 854 -22 41 c-12 22 -38 55 -59 73 -34 31 -50 39 -101 55 l-23 7 0 -1056z"/>
<path d="M5748 4113 c23 -60 26 -82 26 -193 0 -106 -3 -134 -22 -181 -25 -63
-90 -170 -130 -212 l-26 -27 55 -49 c31 -27 66 -70 80 -96 l24 -47 69 6 c145
13 312 93 426 205 89 88 92 94 74 171 -47 204 -219 376 -454 454 -41 13 -91
27 -112 31 l-36 7 26 -69z"/>
<path d="M4870 4084 c-106 -28 -180 -72 -265 -158 -65 -66 -90 -99 -127 -176
-48 -96 -97 -244 -86 -256 4 -3 33 4 65 16 81 32 246 39 328 15 82 -23 164
-66 230 -120 l55 -46 54 59 c30 32 73 67 95 78 36 17 41 23 41 54 0 95 -51
247 -116 347 -46 70 -179 203 -202 202 -9 0 -42 -7 -72 -15z"/>
<path d="M11345 4018 c-2 -7 -5 -46 -8 -86 -6 -94 -55 -199 -124 -263 -27 -25
-129 -94 -228 -154 -206 -125 -279 -189 -337 -300 -89 -170 -189 -652 -192
-925 -1 -102 2 -120 23 -163 33 -66 103 -132 170 -159 55 -23 61 -23 511 -23
l455 0 67 33 c79 39 129 93 158 169 19 52 20 77 20 968 l0 915 -255 0 c-196 0
-257 -3 -260 -12z m89 -1393 c3 -205 -280 -268 -365 -80 -36 78 -28 108 78
316 l98 189 94 -187 c80 -159 95 -196 95 -238z"/>
<path d="M5319 3425 c-60 -19 -131 -83 -160 -143 -34 -69 -33 -170 3 -237 33
-63 70 -98 133 -126 151 -67 324 15 371 178 25 85 -2 191 -64 256 -67 71 -190
102 -283 72z"/>
<path d="M4905 3005 c-133 -29 -279 -116 -379 -227 -54 -60 -57 -64 -50 -102
40 -242 235 -427 532 -510 35 -10 66 -15 68 -13 3 3 -5 33 -17 68 -16 45 -24
95 -27 169 -4 94 -1 114 23 185 28 85 69 156 124 218 l34 38 -55 49 c-30 26
-65 69 -79 94 -23 44 -25 46 -69 45 -25 0 -72 -7 -105 -14z"/>
<path d="M5730 2972 c0 -21 -91 -110 -135 -133 l-47 -24 6 -70 c14 -170 118
-363 259 -478 l46 -38 66 16 c168 39 311 154 397 320 45 89 81 184 94 250 l6
33 -69 -25 c-83 -31 -220 -41 -306 -23 -77 16 -200 79 -264 135 -29 26 -53 42
-53 37z"/>
</g>
</svg>
