<?xml version="1.0" standalone="no"?>
<!DOCTYPE svg PUBLIC "-//W3C//DTD SVG 20010904//EN"
 "http://www.w3.org/TR/2001/REC-SVG-20010904/DTD/svg10.dtd">
<svg version="1.0" xmlns="http://www.w3.org/2000/svg"
 width="980.000000pt" height="980.000000pt" viewBox="0 0 980.000000 980.000000"
 preserveAspectRatio="xMidYMid meet">
<metadata>
Created by potrace 1.16, written by Peter Selinger 2001-2019
</metadata>
<g transform="translate(0.000000,980.000000) scale(0.100000,-0.100000)"
fill="#000000" stroke="none">
<path d="M4288 8389 c-80 -11 -100 -22 -329 -161 -236 -145 -568 -331 -854
-478 -315 -162 -505 -265 -648 -348 -72 -43 -205 -118 -295 -167 -242 -133
-333 -207 -348 -281 -8 -44 30 -93 101 -129 58 -29 62 -30 204 -30 131 1 158
4 262 32 184 50 319 105 534 220 346 185 497 260 597 297 103 38 218 66 272
66 29 0 34 4 40 31 14 72 109 125 279 156 121 23 525 22 877 -1 140 -9 339
-21 442 -26 135 -7 196 -14 218 -25 34 -17 39 -41 13 -61 -27 -20 -261 -17
-605 7 -475 33 -804 27 -941 -17 -89 -29 -147 -108 -147 -200 0 -91 85 -211
182 -255 l53 -24 565 3 c873 6 978 -11 1345 -210 234 -127 363 -174 595 -214
115 -20 324 -22 435 -5 102 16 269 70 365 119 l75 37 -2 660 c-1 363 -5 670
-8 683 -8 35 -43 28 -161 -32 -69 -36 -130 -59 -173 -67 -64 -11 -72 -10 -227
30 -392 99 -840 185 -1288 247 -143 19 -403 56 -576 80 -491 71 -698 86 -852
63z"/>
<path d="M7879 8240 c-40 -12 -75 -38 -87 -66 -9 -18 -12 -222 -12 -744 l0
-719 31 -36 c43 -48 86 -57 253 -53 156 3 187 13 221 70 16 28 17 81 16 746
-2 803 3 754 -76 792 -36 17 -61 20 -181 19 -76 0 -151 -4 -165 -9z"/>
<path d="M4706 6769 c-618 -51 -1169 -404 -1475 -945 -245 -433 -304 -963
-161 -1443 215 -722 841 -1240 1595 -1322 133 -14 373 -6 500 16 761 135 1360
712 1515 1462 133 648 -96 1336 -590 1770 -246 216 -562 372 -875 433 -89 17
-362 43 -400 38 -5 0 -55 -4 -109 -9z m372 -640 l3 -127 62 -12 c171 -33 309
-101 408 -200 55 -54 129 -158 129 -180 0 -9 -174 -97 -270 -136 l-36 -14 -56
54 c-108 105 -262 159 -453 160 -290 0 -448 -95 -449 -269 -1 -102 51 -161
179 -203 62 -21 152 -37 410 -72 408 -56 613 -161 711 -363 18 -37 38 -100 44
-140 16 -93 8 -235 -19 -318 -70 -219 -286 -387 -563 -435 l-98 -17 0 -144 0
-143 -185 0 -184 0 -3 137 -3 138 -58 7 c-142 18 -326 85 -434 159 -71 49
-140 116 -188 184 -43 60 -89 144 -83 150 14 15 343 145 346 137 22 -67 138
-172 247 -223 138 -65 340 -89 506 -59 199 36 329 152 329 295 0 165 -147 254
-495 300 -270 35 -322 45 -439 82 -222 69 -352 196 -391 380 -78 368 142 646
576 731 l89 17 0 128 0 127 183 -2 182 -3 3 -126z"/>
<path d="M2765 3239 c-161 -11 -316 -54 -472 -133 l-73 -36 0 -313 c0 -173 3
-477 7 -676 6 -326 8 -363 23 -371 13 -7 50 7 141 50 73 36 149 64 184 71 57
10 72 8 260 -40 478 -119 801 -178 1525 -276 179 -25 402 -56 495 -69 328 -48
551 -58 680 -31 73 16 85 22 368 194 218 132 450 261 750 417 380 198 564 297
672 361 55 33 177 102 270 153 336 184 420 262 382 352 -8 18 -33 46 -56 62
-112 78 -319 75 -593 -8 -151 -46 -275 -102 -509 -228 -373 -202 -518 -269
-670 -307 -45 -12 -102 -21 -125 -21 -38 0 -42 -3 -47 -29 -15 -73 -108 -128
-267 -158 -125 -23 -569 -23 -903 0 -131 10 -318 20 -415 23 -139 5 -186 10
-219 25 -46 19 -55 43 -25 65 26 20 238 17 587 -7 541 -38 872 -27 993 33 171
85 133 337 -66 435 l-57 28 -650 0 c-566 0 -662 2 -745 17 -201 36 -313 78
-541 203 -150 83 -262 128 -401 164 -177 45 -332 61 -503 50z"/>
<path d="M1540 3132 c-32 -31 -39 -47 -45 -92 -3 -30 -5 -354 -3 -720 3 -732
1 -702 65 -746 24 -16 51 -20 182 -22 179 -4 226 7 261 62 20 33 20 46 20 756
l0 722 -39 39 -39 39 -182 0 -182 0 -38 -38z"/>
</g>
</svg>
