<?xml version="1.0" encoding="UTF-8"?>
<svg version="1.1" xmlns="http://www.w3.org/2000/svg" width="512" height="512">
<path d="M0 0 C81.48905109 0 81.48905109 0 95 12 C99.42244665 16.7442463 102.29712494 22.15196124 105 28 C105.66292924 29.33519551 106.3286261 30.66903069 107 32 C108.02996094 31.40832031 109.05992188 30.81664062 110.12109375 30.20703125 C136.27365357 15.55105611 165.39254496 12.02879281 194.375 20.125 C206.95799334 23.87452102 223.22548517 30.34856095 231.51873779 40.93951416 C234.93689463 44.84650263 238.05637107 47.10778773 243.24391174 47.71765137 C248.61599359 48.06052003 253.98452016 47.95019626 259.36328125 47.859375 C261.36191179 47.85673263 263.36055159 47.85820612 265.35917664 47.86358643 C270.6075501 47.8693488 275.85456858 47.83101916 281.10266113 47.77972412 C289.48948796 47.70205946 297.87620943 47.67827539 306.26335716 47.6798172 C309.17503875 47.67204384 312.08547612 47.63728767 314.99690247 47.59954834 C330.96805649 47.48793541 344.38008862 50.50017794 356.3125 61.875 C365 71.038286 365 71.038286 365 76 C370.23225917 71.49102371 375.35187914 66.86629325 380.43457031 62.19018555 C383.60585229 59.2738985 386.79296111 56.37705418 390 53.5 C393.6883049 50.18998278 397.35065765 46.852855 401 43.5 C405.49919943 39.36726416 410.02069908 35.26080322 414.5703125 31.18359375 C416.21717993 29.70353122 417.85763054 28.21630312 419.4921875 26.72265625 C432.78583948 14.60928178 445.69441465 4.09117326 464.71875 4.75390625 C479.83378727 6.38446678 491.6441498 11.75234547 502 23 C504.39343723 26.18095528 506.25453067 29.42724247 508 33 C508.4125 33.77214844 508.825 34.54429687 509.25 35.33984375 C513.93373771 45.63430893 513.9979072 60.51666829 510.375 71.1875 C505.33838411 81.74549763 498.94657389 89.60546251 490.625 97.6875 C489.61110216 98.68986889 488.59807642 99.69312071 487.5859375 100.69726562 C482.85763282 105.36696928 478.04089423 109.88394196 472.99755859 114.21411133 C468.81655392 117.95207872 464.93428067 122.00610901 461 126 C451.51461008 135.62910795 451.51461008 135.62910795 447.03125 139.46875 C441.90817206 143.86142928 437.23485253 148.69721559 432.5 153.5 C427.1559249 158.92074763 421.81934589 164.23352025 416.03710938 169.18554688 C411.83692794 172.92664807 407.94571106 176.99450544 404 181 C394.51488278 190.62883111 394.51488278 190.62883111 390.01171875 194.48828125 C385.00653756 198.7793346 380.43689385 203.49413682 375.8125 208.1875 C374.07142108 209.95420186 372.32800817 211.71860727 370.58203125 213.48046875 C369.44084839 214.63905396 369.44084839 214.63905396 368.27661133 215.82104492 C367.14968872 216.89962769 367.14968872 216.89962769 366 218 C365.28019581 218.69196661 364.56039162 219.38393322 363.81877518 220.09686852 C360.21920668 222.52716242 357.94835808 222.5470183 353.62298584 222.62905884 C352.88870054 222.64799899 352.15441525 222.66693913 351.39787889 222.68645322 C348.93939902 222.74449473 346.48144059 222.77404253 344.02246094 222.80322266 C342.25526202 222.83813306 340.4880905 222.87445492 338.72094727 222.91207886 C332.89239511 223.02749563 327.0636743 223.09872383 321.234375 223.1640625 C320.23248296 223.1759547 319.23059092 223.1878469 318.19833851 223.20009947 C308.67851982 223.31241038 299.15867238 223.40945924 289.63836288 223.46839333 C278.69188718 223.53685526 267.74998722 223.64579757 256.80566406 223.87939453 C203.54615339 224.99379096 157.33045663 223.14570886 108.28416824 200.82427025 C105.77763795 199.77370838 105.77763795 199.77370838 102 200 C100.51885263 201.47755027 100.51885263 201.47755027 99.3125 203.5 C91.87247647 213.98282617 82.56943393 219.48611321 70 222 C46.9 222 23.8 222 0 222 C0 148.74 0 75.48 0 0 Z M30 31 C30 83.8 30 136.6 30 191 C63.07087361 194.42065121 63.07087361 194.42065121 73 187 C75.85694728 183.33065293 76.37592921 180.64134283 76.38095093 176.04150391 C76.3894104 174.84704651 76.39786987 173.65258911 76.40658569 172.42193604 C76.400513 171.11996277 76.39444031 169.8179895 76.38818359 168.4765625 C76.39225082 167.08493641 76.39759355 165.69331354 76.40411377 164.30169678 C76.41777534 160.52896945 76.41249361 156.75648859 76.40297651 152.98375702 C76.39537387 149.03294721 76.4024272 145.08215831 76.40713501 141.13134766 C76.41259081 134.49703183 76.4054056 127.86281623 76.39111328 121.22851562 C76.37478706 113.56163055 76.38007569 105.89498482 76.3965925 98.22810555 C76.41021241 91.64197302 76.41212457 85.05591249 76.40427649 78.46977043 C76.39960273 74.53768873 76.3989669 70.60571947 76.40888596 66.67364502 C76.41756074 62.97667503 76.41152464 59.28001322 76.39420319 55.58307648 C76.38835303 53.58140993 76.39724954 51.57971728 76.40658569 49.57806396 C76.39389648 47.78637787 76.39389648 47.78637787 76.38095093 45.95849609 C76.37981985 44.92244232 76.37868877 43.88638855 76.37752342 42.81893921 C75.77536999 38.32270446 73.46266133 34.88555111 70 32 C57.34693713 27.78231238 43.33749935 31 30 31 Z M446.625 44.625 C445.49403134 45.71020031 444.36251604 46.79483119 443.23046875 47.87890625 C442.40748291 48.67772217 442.40748291 48.67772217 441.56787109 49.49267578 C439.40609073 51.57097413 437.1768541 53.56835698 434.9375 55.5625 C431.26893046 58.8505372 427.62745822 62.16673766 424 65.5 C419.54667383 69.59169207 415.06340112 73.64822977 410.5625 77.6875 C407.69399591 80.27615003 404.8452335 82.88585146 402 85.5 C397.54664513 89.59166107 393.06340146 93.64822946 388.5625 97.6875 C385.17764991 100.74212081 381.81593868 103.82176831 378.4675293 106.91625977 C376.12209743 109.07915601 373.75884846 111.20584385 371.33203125 113.27734375 C366.69397011 117.25385198 362.95409714 121.21959081 359.375 126.1875 C351.63444186 136.86974135 340.94148564 142.77905599 328 145 C324.81105739 145.27149919 321.64055261 145.31059303 318.44116211 145.31884766 C317.53276581 145.32889328 316.62436951 145.3389389 315.68844604 145.34928894 C312.71808442 145.37991381 309.74781205 145.39709805 306.77734375 145.4140625 C304.7051162 145.43279083 302.63289614 145.45236546 300.5606842 145.4727478 C295.13075189 145.52389914 289.70079489 145.56361553 284.27075195 145.60089111 C278.72015361 145.64103772 273.16965642 145.69208128 267.61914062 145.7421875 C256.74615802 145.83874542 245.87313306 145.92220601 235 146 C235 135.77 235 125.54 235 115 C237.69494629 115.01571045 240.38989258 115.0314209 243.16650391 115.04760742 C252.07521835 115.09733895 260.98393897 115.13046327 269.89275551 115.15543652 C275.29365004 115.17108569 280.69440223 115.19231052 286.09521484 115.22631836 C291.30827609 115.25893817 296.52120049 115.27685864 301.73435593 115.28463173 C303.72225473 115.2901705 305.71014613 115.30098638 307.6979866 115.31719017 C310.48453142 115.33899914 313.27051233 115.34196546 316.05712891 115.34057617 C316.87712372 115.351362 317.69711853 115.36214783 318.54196167 115.3732605 C324.24365353 115.34254454 328.45457265 114.29523577 332.828125 110.3515625 C336.96049892 105.33367988 339.25472836 101.87157205 339 95.1875 C338.30281252 89.69202219 336.09988662 85.72170002 332 82 C326.67644166 78.62015699 322.30972016 78.62167099 316.22192383 78.75805664 C314.76944748 78.77168243 314.76944748 78.77168243 313.28762817 78.7855835 C311.19070227 78.8058854 309.09382915 78.83238426 306.99704933 78.86439705 C303.67067406 78.91066192 300.34514621 78.93059775 297.01847839 78.94200134 C287.56235182 78.97498547 278.10724892 79.02204709 268.65209961 79.16772461 C262.86099781 79.25502864 257.07211924 79.28333635 251.28040123 79.27389336 C249.08155856 79.28134523 246.88267251 79.3104688 244.68442726 79.36226082 C226.56552017 79.77544127 226.56552017 79.77544127 221.32626343 75.39572144 C218.49889991 72.53750024 216.32059767 69.27587876 214 66 C197.63499529 51.75199804 177.42447733 45.84135078 156 47 C138.01867925 49.45815687 121.81561323 57.02008404 109 70 C106.35697071 73.96454393 106.73485717 77.37026819 106.77294922 81.96948242 C106.77265717 82.88675613 106.77236511 83.80402985 106.77206421 84.74909973 C106.77345889 87.7846519 106.78902667 90.8199594 106.8046875 93.85546875 C106.80841714 95.95868292 106.81126434 98.06189883 106.81326294 100.16511536 C106.82090327 105.70373319 106.84055525 111.24224632 106.8626709 116.78082275 C106.88312068 122.43134138 106.8922628 128.08187691 106.90234375 133.73242188 C106.92380072 144.82166062 106.95794153 155.9108216 107 167 C112.62855467 168.97407506 118.25809351 170.94531285 123.88842773 172.91430664 C125.7897195 173.57960795 127.69077444 174.24558661 129.59155273 174.91235352 C130.4991333 175.23067139 131.40671387 175.54898926 132.34179688 175.87695312 C133.25987436 176.19924487 134.17795185 176.52153662 135.12384987 176.85359478 C137.04508371 177.52238885 138.96912114 178.18317287 140.89560509 178.83668995 C146.02315933 180.57928988 151.07018834 182.41395226 156.08242798 184.46647644 C175.32061041 192.0502998 193.43358893 192.38765756 213.83940077 192.30772424 C217.56516181 192.29830586 221.2905965 192.31687558 225.01631033 192.33484048 C233.80510876 192.37658541 242.59302948 192.3726047 251.38183594 192.33813477 C260.40527821 192.30352419 269.42606276 192.34627564 278.44915617 192.42632419 C286.25639784 192.49295433 294.06280776 192.51267868 301.87031329 192.49509495 C306.5082838 192.48504341 311.14454178 192.4918442 315.78226852 192.54384804 C320.13250198 192.5905335 324.47879195 192.5781133 328.82887459 192.5219326 C330.41341129 192.51095827 331.99824721 192.51995904 333.58250618 192.55158997 C342.52908255 192.71645778 348.61205342 191.56898803 355.23867798 185.20988464 C356.74989037 183.66886481 358.21461325 182.10212654 359.65327764 180.49328172 C361.65025778 178.27897681 363.79066794 176.21676453 365.92578125 174.13671875 C367.39073706 172.65632882 368.85304976 171.17331791 370.3125 169.6875 C374.40815896 165.51979779 378.4801963 161.38790229 382.91796875 157.58203125 C387.8752331 153.31872282 392.41414437 148.65533829 397 144 C402.17171976 138.74992084 407.3503921 133.62928228 412.9453125 128.83203125 C417.1498619 125.08310793 421.04831984 121.0115541 425 117 C430.17171976 111.74992084 435.3503921 106.62928228 440.9453125 101.83203125 C445.1498619 98.08310793 449.04831984 94.0115541 453 90 C458.26298009 84.65727779 463.51820234 79.39412227 469.22924805 74.52758789 C477.56349809 67.42377509 477.56349809 67.42377509 481.34765625 57.4609375 C481.66073775 51.63280488 481.02039968 47.4177108 477.546875 42.65625 C473.61244858 38.44363181 468.900859 36.31551946 463.14770508 35.9362793 C456.26409048 36.14051067 451.3051171 39.96248008 446.625 44.625 Z " fill="#000000" transform="translate(0,265)"/>
<path d="M0 0 C1.99955862 0.83432604 3.95402006 1.69008109 5.89379883 2.65673828 C6.66828369 3.04200684 7.44276855 3.42727539 8.24072266 3.82421875 C9.07756592 4.24719238 9.91440918 4.67016602 10.77661133 5.10595703 C11.66952881 5.55471191 12.56244629 6.0034668 13.48242188 6.46582031 C20.52114784 10.03155131 27.4343483 13.79992846 34.3371582 17.62011719 C45.66958922 23.84127133 57.21500821 29.65505433 68.74462891 35.5 C69.55701523 35.91344162 70.36940155 36.32688324 71.20640564 36.75285339 C72.70432528 37.51513792 74.203553 38.27486251 75.7046051 39.03096008 C83.57130476 43.03910775 91.22310274 47.43935242 98.90161133 51.79345703 C98.97155855 63.73862398 99.02464741 75.68374106 99.05704784 87.62907219 C99.0726095 93.17759382 99.09367117 98.72597387 99.12792969 104.27441406 C99.16086578 109.64314258 99.17853548 115.01173615 99.18624306 120.38055801 C99.1917258 122.41436 99.20242922 124.44815579 99.2188015 126.48189926 C99.34050903 142.24767296 98.56901347 157.91386763 93.21411133 172.91845703 C92.83283081 174.01710083 92.83283081 174.01710083 92.44384766 175.13793945 C86.19114195 192.52985627 76.68858145 207.44663708 63.90161133 220.79345703 C63.21711914 221.54111328 62.53262695 222.28876953 61.82739258 223.05908203 C47.218989 238.50456604 27.23564951 249.10838784 6.90161133 254.79345703 C6.27125977 254.99841797 5.6409082 255.20337891 4.99145508 255.41455078 C-2.2810033 256.73310866 -8.18858766 255.21613113 -15.03588867 252.85595703 C-15.95104248 252.54384277 -16.86619629 252.23172852 -17.80908203 251.91015625 C-48.98777878 240.87407211 -74.92818513 217.41493707 -89.34838867 187.66845703 C-92.27194958 181.35837732 -94.51063121 174.89823689 -96.47338867 168.23095703 C-96.7121875 167.42964355 -96.95098633 166.62833008 -97.19702148 165.80273438 C-101.29383101 150.92437909 -101.3791757 135.84479013 -101.29370117 120.54345703 C-101.28996081 118.54850406 -101.28711869 116.55354923 -101.28512573 114.55859375 C-101.27756968 109.36375661 -101.25799235 104.16903525 -101.23571777 98.97424316 C-101.21508416 93.65097621 -101.20608695 88.32769014 -101.19604492 83.00439453 C-101.1747371 72.60069845 -101.14070091 62.19708745 -101.09838867 51.79345703 C-100.39408722 51.42877823 -99.68978577 51.06409943 -98.96414185 50.68836975 C-95.71916286 49.00723185 -92.475178 47.3241841 -89.23120117 45.64111328 C-87.56988159 44.78096619 -87.56988159 44.78096619 -85.875 43.90344238 C-79.19063205 40.43342202 -72.55661595 36.88905834 -65.97338867 33.23095703 C-53.79041249 26.51230531 -41.38661954 20.22416136 -28.99047852 13.91040039 C-28.18002075 13.49709976 -27.36956299 13.08379913 -26.5345459 12.65797424 C-24.9437429 11.84712463 -23.3522031 11.03771871 -21.7598877 10.22984314 C-18.19195443 8.41194776 -14.65242018 6.56572545 -11.1652832 4.59667969 C-10.56841202 4.26199173 -9.97154083 3.92730377 -9.35658264 3.58247375 C-7.7871681 2.69471053 -6.2266687 1.79123687 -4.66699219 0.88647461 C-2.09838867 -0.20654297 -2.09838867 -0.20654297 0 0 Z M-10.28588867 39.04345703 C-12.02256399 39.96850687 -13.75955687 40.8929607 -15.49682617 41.81689453 C-16.41302734 42.30512695 -17.32922852 42.79335937 -18.27319336 43.29638672 C-22.01830694 45.2809215 -25.78081948 47.23106717 -29.54370117 49.18164062 C-41.11380721 55.18146571 -52.57633697 61.36284389 -63.98974609 67.65527344 C-66.00688685 68.74406703 -68.0460427 69.77304205 -70.09838867 70.79345703 C-70.16850835 79.62668108 -70.22150956 88.45980645 -70.25382519 97.29325008 C-70.26935044 101.39685472 -70.29034183 105.50026623 -70.32470703 109.60375977 C-70.35777781 113.57845972 -70.37533986 117.55297629 -70.3830204 121.52780342 C-70.38847979 123.02934207 -70.39913437 124.53087295 -70.41557884 126.03233147 C-70.67658022 150.89689634 -64.59939603 174.52498513 -48.09838867 193.79345703 C-47.43194336 194.60427734 -46.76549805 195.41509766 -46.07885742 196.25048828 C-36.62227039 207.34280928 -25.03377838 214.47376435 -12.09838867 220.79345703 C-11.30174805 221.18919922 -10.50510742 221.58494141 -9.68432617 221.99267578 C-3.29002183 224.80769821 1.78078082 223.87733828 8.16333008 221.66064453 C21.80968313 216.16607334 32.53662507 208.00735019 42.90161133 197.79345703 C43.5590332 197.14892578 44.21645508 196.50439453 44.89379883 195.84033203 C59.64072775 180.20994654 68.05201502 157.57638743 68.01513672 136.29760742 C68.01535576 135.22805817 68.01535576 135.22805817 68.01557922 134.13690186 C68.01488845 131.80494023 68.00713563 129.47306077 67.99926758 127.14111328 C67.99740042 125.51444034 67.99597793 123.88776684 67.99497986 122.26109314 C67.9911781 117.99830549 67.98136801 113.7355524 67.97027588 109.47277832 C67.96001122 105.11548327 67.95547144 100.75818259 67.95043945 96.40087891 C67.93974346 87.86505583 67.92269541 79.32926074 67.90161133 70.79345703 C54.60191057 63.47256601 41.24355233 56.30523513 27.71411133 49.41845703 C24.76130052 47.91257185 21.80960619 46.40452102 18.85864258 44.89501953 C17.81935104 44.36451996 17.81935104 44.36451996 16.75906372 43.82330322 C11.74929394 41.25627144 6.81096054 38.57661963 1.91210938 35.80273438 C-2.62472431 33.52522734 -6.23694427 36.86560647 -10.28588867 39.04345703 Z " fill="#000000" transform="translate(310.098388671875,25.20654296875)"/>
<path d="M0 0 C5.43909855 2.36322105 9.1639623 6.75547305 13.3125 10.875 C14.16134766 11.69097656 15.01019531 12.50695312 15.88476562 13.34765625 C17.08069336 14.53294922 17.08069336 14.53294922 18.30078125 15.7421875 C19.03466064 16.4626123 19.76854004 17.18303711 20.5246582 17.92529297 C22 20 22 20 21.91485596 21.78573608 C20.58644828 25.00093643 18.28242041 27.10978911 15.83764648 29.50292969 C15.03275787 30.30847542 15.03275787 30.30847542 14.21160889 31.1302948 C12.43845615 32.90135963 10.65491874 34.66156518 8.87109375 36.421875 C7.63875659 37.64861623 6.40708067 38.87602204 5.17604065 40.10406494 C1.93574918 43.33290748 -1.3134506 46.55263934 -4.5645752 49.77056885 C-7.88115011 53.05644411 -11.18923834 56.35083879 -14.49804688 59.64453125 C-20.9904108 66.10473015 -27.49221574 72.5553379 -34 79 C-37.75280862 75.83015194 -41.46020255 72.67082619 -44.90234375 69.16015625 C-45.56556641 68.48919922 -46.22878906 67.81824219 -46.91210938 67.12695312 C-48.2585012 65.75459424 -49.60485559 64.38219862 -50.95117188 63.00976562 C-54.87295052 59.04234067 -58.89650964 55.28968844 -63.12329102 51.6496582 C-65.86873523 49.23636738 -68.43988376 46.66949161 -71 44.0625 C-71.48855469 43.56943359 -71.97710937 43.07636719 -72.48046875 42.56835938 C-73.65603525 41.38126771 -74.82838826 40.19099502 -76 39 C-74.48623919 35.43235715 -72.39486871 33.16293713 -69.6484375 30.453125 C-68.37226563 29.18662109 -68.37226563 29.18662109 -67.0703125 27.89453125 C-66.18085938 27.02183594 -65.29140625 26.14914063 -64.375 25.25 C-63.4778125 24.36183594 -62.580625 23.47367188 -61.65625 22.55859375 C-59.44192996 20.36783031 -57.22307565 18.18187237 -55 16 C-51.7413364 17.4264578 -49.5975146 19.16704162 -47.109375 21.6953125 C-46.40039062 22.41074219 -45.69140625 23.12617188 -44.9609375 23.86328125 C-44.23132813 24.60964844 -43.50171875 25.35601562 -42.75 26.125 C-41.63238281 27.25615234 -41.63238281 27.25615234 -40.4921875 28.41015625 C-38.6568658 30.26900772 -36.8263809 32.13237005 -35 34 C-30.16701194 29.97251947 -25.61889996 25.75620587 -21.19140625 21.2890625 C-20.27402931 20.36956314 -20.27402931 20.36956314 -19.33811951 19.43148804 C-17.41052441 17.49835436 -15.48646072 15.56175013 -13.5625 13.625 C-12.24567596 12.30315301 -10.92862074 10.98153628 -9.61132812 9.66015625 C-6.40487627 6.44275701 -3.20158371 3.22224319 0 0 Z " fill="#000000" transform="translate(336,120)"/>
</svg>
