<?xml version="1.0" standalone="no"?>
<!DOCTYPE svg PUBLIC "-//W3C//DTD SVG 20010904//EN"
 "http://www.w3.org/TR/2001/REC-SVG-20010904/DTD/svg10.dtd">
<svg version="1.0" xmlns="http://www.w3.org/2000/svg"
 width="512.000000pt" height="512.000000pt" viewBox="0 0 512.000000 512.000000"
 preserveAspectRatio="xMidYMid meet">

<g transform="translate(0.000000,512.000000) scale(0.100000,-0.100000)"
fill="#000000" stroke="none">
<path d="M2580 5105 c-157 -20 -393 -65 -661 -125 -493 -112 -499 -113 -609
-114 -109 0 -217 23 -408 88 l-72 25 0 -534 0 -534 84 -25 c46 -14 238 -69
427 -121 454 -126 562 -136 844 -85 144 27 237 54 435 127 239 88 367 151 414
203 35 39 37 45 34 98 -3 52 -6 58 -37 79 -30 20 -46 23 -135 23 -56 0 -177
-11 -270 -25 -93 -14 -187 -25 -209 -25 -40 0 -40 0 -22 21 32 34 175 98 280
124 298 75 653 41 942 -91 41 -18 125 -65 186 -103 139 -87 226 -121 308 -121
66 0 89 9 132 48 37 35 51 89 36 146 -9 37 -27 60 -98 128 -164 159 -502 419
-723 558 -150 93 -310 174 -418 211 -83 28 -111 32 -220 35 -70 2 -176 -3
-240 -11z"/>
<path d="M3220 3805 c-61 -62 -142 -112 -265 -163 l-90 -37 175 -6 c163 -5
178 -7 226 -31 66 -35 114 -89 147 -168 15 -36 72 -173 126 -305 l100 -240
-545 -3 c-300 -1 -788 -1 -1084 0 l-539 3 110 264 c60 145 109 268 109 272 0
5 -10 9 -22 9 -13 0 -73 13 -134 29 l-112 28 -141 -345 c-141 -342 -142 -345
-199 -401 -127 -125 -212 -393 -212 -670 0 -124 2 -141 25 -186 13 -27 30 -57
37 -65 30 -36 88 -70 139 -83 l54 -14 5 -147 5 -147 73 -25 c77 -26 179 -74
224 -105 20 -15 44 -19 102 -19 l76 0 0 225 0 225 628 0 c550 0 636 2 702 17
56 12 125 17 270 17 222 0 258 -6 585 -97 l190 -53 3 58 c3 58 3 58 35 58 44
0 125 41 164 81 59 62 73 109 73 245 0 282 -84 538 -224 679 l-69 70 -164 400
c-90 220 -176 417 -189 438 -72 110 -195 202 -315 237 -23 7 -33 1 -79 -45z
m-1850 -1494 c97 -70 92 -206 -10 -258 -56 -29 -94 -29 -144 0 -91 52 -102
171 -23 245 47 44 125 50 177 13z m2522 3 c54 -28 84 -103 67 -168 -32 -118
-177 -153 -258 -61 -114 130 35 308 191 229z m-845 -34 c65 -39 86 -107 54
-173 -39 -80 -21 -77 -528 -77 -432 0 -449 1 -481 20 -61 38 -79 134 -36 194
41 55 42 56 519 56 419 0 442 -1 472 -20z"/>
<path d="M3095 1463 c-92 -8 -271 -45 -377 -77 -211 -64 -498 -182 -590 -243
-37 -25 -78 -92 -78 -127 0 -37 31 -85 62 -95 52 -18 214 -12 392 14 93 14
187 25 209 25 40 0 40 0 22 -21 -31 -34 -174 -97 -280 -124 -259 -66 -560 -49
-835 47 -105 37 -168 69 -296 148 -186 117 -311 147 -405 99 -66 -33 -96 -120
-65 -192 47 -113 602 -548 956 -749 238 -135 330 -163 535 -162 218 1 425 35
995 164 364 83 434 94 520 86 73 -7 213 -42 337 -86 l83 -29 -2 537 -3 536
-80 24 c-723 211 -887 245 -1100 225z"/>
</g>
</svg>
