<?xml version="1.0" standalone="no"?>
<!DOCTYPE svg PUBLIC "-//W3C//DTD SVG 20010904//EN"
 "http://www.w3.org/TR/2001/REC-SVG-20010904/DTD/svg10.dtd">
<svg version="1.0" xmlns="http://www.w3.org/2000/svg"
 width="1425.000000pt" height="980.000000pt" viewBox="0 0 1425.000000 980.000000"
 preserveAspectRatio="xMidYMid meet">

<g transform="translate(0.000000,980.000000) scale(0.100000,-0.100000)"
fill="#000000" stroke="none">
<path d="M3330 9793 c-677 -72 -1242 -446 -1506 -997 -62 -131 -95 -224 -125
-361 -18 -87 -22 -140 -26 -405 l-5 -305 -50 -30 c-70 -42 -166 -148 -210
-230 -69 -132 -69 -137 -66 -698 l3 -502 28 -70 c60 -152 173 -275 312 -342
108 -51 182 -63 401 -63 l191 0 22 -82 c29 -111 82 -242 146 -363 57 -108 87
-212 105 -370 11 -100 13 -238 4 -272 l-6 -23 -307 0 c-435 0 -610 -21 -852
-100 -337 -111 -613 -290 -862 -560 -255 -277 -422 -615 -499 -1015 -21 -108
-22 -132 -25 -1303 -4 -1323 -7 -1246 62 -1387 63 -129 182 -234 325 -286 l65
-24 3035 -2 3035 -2 -80 28 c-179 62 -307 145 -475 307 l-119 114 -2656 0
c-2354 0 -2659 2 -2685 15 -63 33 -60 -37 -60 1209 0 1080 1 1139 20 1249 90
527 444 979 930 1186 229 97 383 121 780 120 l295 0 60 -77 c33 -42 228 -293
434 -557 205 -264 464 -596 574 -737 177 -228 206 -261 251 -283 69 -34 135
-34 206 3 51 25 83 64 537 647 266 341 549 706 630 812 l148 192 271 0 271 1
103 101 c135 132 268 231 338 253 40 13 23 22 -75 44 -178 40 -235 44 -609 49
l-372 5 -6 67 c-7 68 5 246 23 337 22 115 37 156 106 295 59 119 102 232 151
397 2 9 51 12 196 12 224 0 293 12 406 66 107 51 225 169 276 276 65 135 67
163 64 697 -3 460 -4 478 -25 534 -56 148 -129 244 -242 322 l-69 47 -5 312
c-4 269 -7 323 -25 401 -32 141 -68 240 -132 370 -260 524 -805 891 -1440 970
-99 12 -229 15 -640 13 -283 0 -531 -3 -550 -5z m1268 -471 c297 -69 534 -195
728 -387 197 -194 308 -414 343 -678 6 -43 11 -164 11 -268 l0 -189 -37 -1
c-21 0 -48 -2 -61 -5 -26 -5 -29 1 -61 121 -25 94 -93 240 -149 322 -138 202
-354 354 -598 420 l-99 28 -760 0 c-608 0 -774 -3 -830 -14 -426 -84 -742
-406 -840 -855 -5 -23 -10 -27 -28 -22 -12 3 -39 6 -60 6 l-39 0 5 263 c4 230
7 272 26 340 139 498 590 859 1176 940 17 3 289 4 605 3 549 -2 579 -3 668
-24z m53 -1096 c194 -42 366 -203 436 -409 l28 -82 0 -850 c0 -785 -1 -856
-18 -935 -60 -276 -169 -488 -351 -678 -166 -173 -352 -282 -581 -338 -591
-145 -1198 207 -1414 819 -17 49 -41 134 -53 190 -23 101 -23 107 -23 942 l0
840 27 80 c77 226 260 393 468 428 14 2 338 5 720 5 562 1 708 -1 761 -12z
m-2421 -1431 l0 -555 -160 0 c-185 0 -220 11 -261 77 l-24 38 -3 415 c-3 443
-2 465 45 521 44 52 71 58 246 59 l157 0 0 -555z m3686 536 c23 -10 52 -34 65
-52 l24 -34 0 -452 c0 -442 0 -452 -21 -480 -11 -15 -36 -38 -54 -50 -31 -22
-43 -23 -196 -23 l-164 0 0 555 0 555 153 0 c127 0 159 -4 193 -19z m-2839
-2648 c123 -78 342 -164 504 -197 383 -78 800 -5 1140 200 31 19 59 34 62 34
3 0 8 -33 12 -72 7 -74 38 -250 49 -278 4 -10 -59 -99 -177 -250 -645 -829
-760 -975 -770 -975 -10 0 -162 189 -340 421 -34 45 -180 232 -323 416 -144
184 -267 343 -274 354 -10 16 -8 39 9 122 11 57 24 139 27 182 4 44 11 80 15
80 5 0 34 -16 66 -37z"/>
<path d="M8925 9335 c-16 -9 -127 -89 -245 -180 l-215 -164 -46 49 c-98 107
-226 120 -328 34 -46 -38 -71 -96 -71 -167 0 -79 17 -107 158 -268 91 -103
130 -140 161 -153 55 -21 147 -21 191 2 19 9 141 98 270 197 129 98 270 206
312 238 113 86 148 169 118 277 -13 49 -66 109 -114 131 -50 23 -149 25 -191
4z"/>
<path d="M9715 9116 c-178 -78 -185 -318 -13 -407 37 -19 87 -19 2222 -17
l2184 3 44 30 c55 38 98 119 98 185 0 89 -64 179 -149 208 -53 18 -4345 16
-4386 -2z"/>
<path d="M8938 8339 c-16 -6 -128 -87 -250 -180 l-223 -170 -47 50 c-64 68
-99 85 -178 86 -80 0 -138 -29 -184 -93 -25 -36 -31 -55 -34 -110 -3 -45 1
-79 11 -102 15 -35 134 -178 231 -278 79 -81 179 -102 269 -55 17 9 172 123
343 254 220 168 318 249 334 276 14 24 24 60 27 98 4 52 1 68 -24 115 -38 74
-100 113 -187 117 -33 1 -73 -2 -88 -8z"/>
<path d="M9722 8117 c-152 -56 -196 -253 -82 -367 76 -76 -107 -71 2295 -68
l2150 3 42 22 c139 75 164 253 52 360 -72 68 118 63 -2266 62 -1634 0 -2166
-3 -2191 -12z"/>
<path d="M8932 7330 c-24 -11 -138 -92 -253 -180 l-210 -161 -63 59 c-72 67
-127 88 -203 76 -61 -9 -132 -59 -160 -113 -27 -52 -31 -142 -9 -195 12 -29
216 -271 256 -304 55 -45 135 -62 206 -42 29 8 85 43 157 98 62 47 159 121
217 165 351 268 357 274 367 371 17 169 -153 295 -305 226z"/>
<path d="M9729 7116 c-79 -28 -126 -80 -149 -165 -23 -87 28 -198 112 -243
l43 -23 2155 -3 c1603 -2 2166 0 2197 9 89 24 163 121 163 212 0 86 -44 157
-125 200 l-40 22 -2160 2 c-1748 2 -2167 0 -2196 -11z"/>
<path d="M8959 6341 c-45 -14 -70 -31 -264 -181 -255 -197 -226 -183 -275
-128 -118 134 -306 115 -384 -39 -21 -42 -20 -137 2 -186 17 -37 161 -207 239
-283 67 -64 167 -83 248 -45 22 10 104 67 182 127 77 60 192 147 254 194 237
179 265 209 275 297 9 75 -10 131 -65 183 -63 61 -138 83 -212 61z"/>
<path d="M9745 6119 c-107 -25 -188 -145 -169 -249 15 -83 81 -160 154 -180
51 -14 4329 -14 4367 1 118 44 177 162 141 280 -15 53 -69 113 -120 135 -42
18 -117 19 -2188 21 -1308 0 -2161 -3 -2185 -8z"/>
<path d="M8972 5339 c-23 -4 -48 -11 -55 -15 -34 -21 -407 -308 -407 -314 0
-4 22 -19 49 -34 74 -40 165 -110 237 -181 35 -36 67 -65 70 -65 9 0 280 209
310 238 154 152 10 413 -204 371z"/>
<path d="M9704 5101 c-133 -61 -170 -234 -73 -345 74 -84 -145 -77 2301 -74
l2176 3 44 31 c56 40 98 119 98 185 0 64 -43 145 -99 184 l-43 30 -2181 2
c-2103 3 -2183 2 -2223 -16z"/>
<path d="M7725 4674 c-11 -2 -45 -9 -75 -15 -215 -43 -417 -226 -480 -434 -6
-22 -13 -46 -16 -53 -2 -9 -24 -2 -74 23 -91 46 -174 65 -285 65 -199 0 -330
-59 -508 -229 -181 -174 -260 -295 -293 -451 -30 -139 -1 -333 66 -442 11 -18
20 -36 20 -40 0 -3 -34 -18 -77 -32 -201 -68 -359 -241 -413 -452 -26 -101
-29 -444 -5 -539 55 -218 227 -405 428 -466 37 -12 67 -24 67 -27 0 -4 -16
-37 -34 -74 -96 -189 -83 -432 32 -623 44 -73 244 -281 327 -340 129 -91 242
-128 395 -129 108 0 208 25 298 75 37 21 54 26 56 17 41 -140 90 -229 173
-311 100 -98 197 -151 336 -182 112 -25 453 -17 544 13 166 54 317 182 391
331 23 46 45 101 48 122 4 22 8 39 10 39 2 0 32 -15 66 -34 93 -51 175 -70
298 -69 123 0 222 28 330 90 84 49 298 257 359 348 139 207 157 447 49 664
l-34 68 45 12 c219 58 409 261 456 486 20 96 20 415 0 509 -47 221 -229 418
-445 480 l-56 16 37 78 c41 83 69 200 69 282 0 146 -67 316 -172 440 -225 263
-412 370 -646 370 -111 0 -190 -18 -285 -66 -37 -19 -70 -34 -71 -34 -2 0 -7
17 -10 38 -11 61 -83 194 -136 254 -59 67 -125 117 -206 157 -107 53 -162 63
-369 66 -104 2 -199 2 -210 -1z m356 -455 c53 -18 99 -58 120 -103 15 -32 19
-65 19 -159 0 -123 11 -166 48 -186 9 -5 58 -23 109 -40 51 -16 133 -51 182
-76 98 -49 141 -55 181 -28 14 9 60 51 103 92 86 84 130 105 192 96 63 -10
100 -35 207 -141 111 -109 137 -154 138 -230 0 -62 -30 -112 -120 -199 -101
-98 -107 -127 -50 -230 25 -45 69 -152 115 -278 26 -73 45 -81 210 -87 136 -5
143 -6 178 -33 21 -16 47 -47 60 -70 20 -39 22 -55 22 -207 0 -151 -2 -168
-22 -206 -28 -52 -72 -90 -121 -104 -20 -5 -87 -10 -149 -10 -105 0 -113 -2
-142 -25 -21 -18 -37 -49 -57 -108 -15 -45 -51 -135 -81 -200 -69 -149 -69
-151 48 -272 94 -97 109 -123 109 -188 -1 -67 -33 -123 -132 -224 -102 -104
-167 -143 -235 -143 -62 0 -96 21 -194 116 -112 111 -120 113 -259 46 -58 -28
-146 -65 -197 -82 -135 -47 -137 -50 -143 -225 -5 -142 -5 -144 -36 -182 -61
-75 -87 -83 -277 -83 -181 0 -202 5 -260 59 -47 43 -51 60 -57 208 -6 173 -8
176 -143 223 -51 17 -140 54 -199 82 -139 66 -145 65 -259 -47 -122 -120 -182
-139 -284 -91 -60 28 -237 205 -260 259 -18 43 -20 129 -4 160 7 12 52 63 100
114 114 118 115 126 39 285 -27 57 -61 140 -75 185 -20 60 -35 90 -57 108 -28
23 -37 25 -141 25 -135 0 -176 10 -228 57 -58 53 -72 110 -67 286 4 162 18
203 85 254 35 27 42 28 177 33 189 7 190 8 246 185 7 22 33 83 57 135 79 168
80 166 -42 291 -93 94 -105 117 -105 191 0 75 23 112 140 230 96 96 113 108
166 124 91 26 130 12 229 -85 44 -43 91 -86 105 -95 40 -26 84 -19 178 28 49
25 131 59 183 77 59 20 105 43 124 61 l30 28 5 144 c5 143 5 145 36 182 17 21
50 49 74 61 39 21 56 23 195 23 87 0 167 -5 186 -11z"/>
<path d="M7790 3224 c-153 -28 -263 -69 -365 -135 -232 -151 -374 -383 -406
-662 -28 -250 61 -510 239 -699 184 -195 420 -289 695 -275 589 28 983 614
792 1178 -93 271 -315 480 -602 565 -68 20 -116 26 -208 29 -66 2 -131 2 -145
-1z m252 -465 c129 -43 231 -141 278 -267 79 -209 -18 -451 -220 -550 -253
-125 -556 14 -626 288 -44 173 24 360 169 467 109 81 270 106 399 62z"/>
<path d="M12774 4212 c-50 -24 -84 -64 -314 -372 -226 -301 -230 -307 -230
-386 0 -80 30 -138 94 -181 59 -40 105 -49 175 -35 30 7 55 11 56 9 1 -1 -13
-60 -31 -132 -158 -622 -462 -1087 -924 -1412 -263 -185 -599 -321 -900 -363
-95 -13 -154 -42 -190 -92 -84 -116 -42 -276 88 -336 66 -30 115 -28 299 14
408 91 785 273 1125 545 93 73 289 271 373 374 193 239 351 524 463 835 44
122 102 325 121 425 18 92 15 88 63 64 149 -76 335 54 315 220 -6 45 -268 683
-308 747 -50 81 -185 118 -275 76z"/>
<path d="M3840 2107 c-101 -28 -165 -114 -164 -217 3 -193 228 -289 369 -159
89 82 99 211 23 304 -55 66 -145 94 -228 72z"/>
</g>
</svg>
