<svg width="11" height="11" viewBox="0 0 11 11" fill="none" xmlns="http://www.w3.org/2000/svg">
<path d="M9.85004 4.97662C9.84837 4.37369 9.72491 3.78881 9.48967 3.24839C9.2608 2.72262 8.92612 2.23895 8.49485 1.82171L8.47195 1.79955L8.23412 2.04416L8.47048 1.79813L8.25808 1.59264C7.40469 0.89347 6.33644 0.502308 5.20511 0.50001C5.20177 0.500003 5.19843 0.5 5.19508 0.5L9.85004 4.97662ZM9.85004 4.97662L9.48925 4.9761L9.85004 4.97708M9.85004 4.97662L9.85004 4.97708M9.85004 4.97708C9.85005 4.98096 9.85006 4.98483 9.85006 4.9887C9.84861 7.44753 7.77966 9.47492 5.20349 9.47831C5.20295 9.47831 5.20241 9.47831 5.20188 9.47831C5.20026 9.47831 5.19864 9.47831 5.19702 9.47831L5.1966 9.47831C5.19647 9.47831 5.19634 9.47831 5.19621 9.47831C5.19584 9.47831 5.19546 9.47831 5.19508 9.47831C4.42188 9.47621 3.6617 9.2899 2.98115 8.93654L2.98128 8.9365L2.92196 8.70219L2.92146 8.70025L2.85856 8.4518L2.60752 8.88421L9.85004 4.97708ZM7.28434 6.46C7.27588 6.49176 7.26533 6.52583 7.25233 6.56162C7.24964 6.56558 7.24066 6.57827 7.22 6.59875C7.18565 6.6328 7.13518 6.67228 7.07171 6.71177C7.00917 6.75068 6.94298 6.78403 6.88328 6.80864C6.8245 6.83287 6.7865 6.84267 6.77318 6.84526C6.59288 6.86997 6.39676 6.87526 6.18975 6.81249C6.16663 6.8048 6.14309 6.79702 6.11906 6.78908C6.06571 6.77145 6.00996 6.75303 5.95107 6.733C6.12529 6.7011 6.25133 6.6057 6.33601 6.51386C6.38522 6.4605 6.5247 6.30394 6.6434 6.15934C6.7156 6.19202 6.8018 6.23187 6.88946 6.27282C7.0461 6.34601 7.20191 6.42016 7.28434 6.46ZM3.44579 4.38815C3.40332 4.50136 3.39595 4.61416 3.41413 4.7204C3.36831 4.65322 3.31303 4.566 3.25905 4.46309C3.1521 4.2592 3.07749 4.04289 3.07749 3.85402C3.07749 3.49017 3.24398 3.31602 3.36503 3.1894C3.37239 3.1817 3.37958 3.17418 3.38656 3.16681C3.38667 3.16671 3.38678 3.16661 3.38688 3.16653C3.42453 3.16655 3.45698 3.16667 3.48538 3.16716C3.52937 3.26926 3.58633 3.40342 3.64274 3.5363C3.65367 3.56204 3.66458 3.58773 3.67536 3.61313L3.68328 3.63176C3.72595 3.73224 3.77078 3.83779 3.80584 3.91819C3.78162 3.9461 3.76087 3.97037 3.74266 3.99167C3.70058 4.04089 3.67205 4.07426 3.6456 4.09998C3.64436 4.10118 3.64279 4.10268 3.64092 4.10446C3.61085 4.13312 3.50281 4.23611 3.44579 4.38815ZM3.43539 3.05444C3.4354 3.05442 3.4357 3.0549 3.43629 3.05594L3.43539 3.05444Z" fill="white" stroke="#F2C101"/>
</svg>
