<svg width="3304" height="3268" viewBox="0 0 3304 3268" fill="none" xmlns="http://www.w3.org/2000/svg">
<path d="M1293.29 21.2671C1268.73 44.7161 1234.2 85.4634 1214.64 114.678C1189.7 151.582 1163.23 213.471 1159.01 245.377C1156.7 261.522 1148.26 217.315 1148.26 190.022C1148.26 146.969 1176.65 75.0842 1208.88 37.7966C1226.15 17.0386 1220.01 18.9607 1189.32 43.1785C1139.82 82.3882 1104.91 133.899 1094.93 183.103C1092.63 194.251 1090.71 220.775 1090.71 241.917C1090.71 274.208 1092.63 285.74 1102.22 315.34C1108.74 334.56 1113.73 357.24 1113.73 365.697C1113.73 386.84 1109.9 381.458 1104.14 352.243L1099.15 328.025L1098.77 345.708C1098.39 370.31 1107.98 422.59 1118.72 454.88C1138.29 511.772 1165.91 555.211 1208.5 595.573C1252.62 637.09 1285.62 652.85 1380 675.531C1427.96 687.447 1449.83 695.904 1471.7 711.281C1488.58 723.197 1481.67 723.197 1454.81 710.896C1441.39 705.13 1418.75 697.826 1404.94 695.52C1368.87 689.369 1305.18 690.138 1295.98 696.673C1289.07 701.67 1289.07 702.439 1297.89 726.272C1318.61 783.549 1348.92 822.375 1388.82 841.979C1411.84 853.127 1417.6 854.281 1459.03 855.818L1504.31 857.356L1506.99 882.343C1508.53 896.181 1508.53 917.708 1506.99 930.778C1504.31 958.071 1487.81 1015.73 1479.37 1028.8C1472.85 1039.57 1475.53 1044.18 1483.97 1037.26C1487.43 1034.57 1490.5 1033.03 1491.26 1033.8C1492.03 1034.57 1493.56 1046.87 1494.72 1061.09C1496.63 1081.47 1495.87 1087.23 1492.03 1087.23C1480.9 1087.23 1431.79 1064.17 1394.58 1041.49C1373.09 1028.42 1344.32 1012.66 1330.89 1006.51L1306.33 995.359L1312.09 971.91C1315.54 959.224 1317.46 948.076 1316.69 947.308C1315.93 946.539 1300.58 947.308 1282.55 949.229C1245.33 953.074 1197.76 948.845 1169.36 939.235C1146.73 931.547 1112.97 909.635 1102.22 896.181C1098 890.8 1094.55 887.34 1094.55 888.877C1094.55 893.875 1117.57 936.16 1132.53 958.455C1150.95 985.364 1149.41 987.286 1112.97 987.286C1080.74 987.286 1074.21 984.595 1035.85 956.918C971.008 910.02 936.478 898.872 860.128 898.872C803.729 899.256 755.003 906.56 772.268 912.326C802.578 921.937 844.781 958.071 898.111 1019.19C948.755 1077.62 982.134 1100.69 1035.85 1114.53C1074.21 1124.14 1091.1 1123.75 1165.14 1111.83C1233.82 1100.69 1273.34 1101.07 1317.46 1112.22C1346.62 1119.91 1397.65 1140.67 1397.65 1144.89C1397.65 1146.43 1387.67 1154.5 1375.78 1162.19L1353.53 1176.42V1236.77C1353.53 1312.88 1345.85 1349.4 1311.32 1437.04C1295.21 1478.18 1280.63 1501.24 1262.6 1515.46L1250.32 1525.07L1225.38 1505.08C1211.18 1494.32 1183.94 1472.41 1164.38 1456.26C1072.3 1381.69 1048.13 1369 995.946 1365.16C971.008 1363.24 966.788 1364.01 951.441 1372.85C941.849 1378.61 933.409 1385.53 932.258 1388.22C931.107 1391.3 921.131 1398.22 909.621 1403.6C890.821 1412.83 888.136 1415.9 875.091 1443.58L860.895 1473.95L836.34 1480.1C799.892 1490.09 770.349 1504.32 761.909 1516.62C757.688 1522.38 746.946 1545.06 738.121 1566.21L721.624 1605.42L730.064 1631.56C734.668 1646.16 749.631 1686.53 762.676 1721.51C794.137 1803.77 835.573 1926.01 845.548 1964.84C852.454 1992.9 852.838 1999.82 845.932 2000.59C812.169 2003.66 758.072 2018.65 729.681 2033.26C677.118 2059.79 667.143 2104.38 705.126 2142.43C724.693 2162.04 746.562 2173.96 790.684 2188.56C832.12 2202.4 832.504 2210.47 793.37 2240.07C768.047 2259.29 743.109 2281.21 699.754 2321.95C654.482 2364.62 657.167 2363.47 619.951 2358.09C602.303 2355.4 587.34 2352.32 585.805 2351.17C581.201 2346.56 685.175 2260.83 740.423 2223.93C774.186 2201.25 775.337 2200.1 767.28 2195.48C762.676 2192.79 755.386 2190.87 751.166 2190.49C740.04 2190.49 674.432 2241.61 552.426 2345.02L540.148 2355.4L457.66 2340.02C412.387 2331.56 368.649 2323.49 360.592 2322.34C352.535 2321.18 345.245 2318.88 344.478 2316.96C341.408 2312.34 431.57 2231.23 494.492 2182.41C574.295 2120.14 698.987 2034.8 736.203 2017.12C753.468 2009.04 782.627 1998.67 801.427 1994.05C820.226 1989.82 835.957 1985.6 836.34 1985.21C837.491 1984.44 816.773 1916.02 811.402 1901.79L807.182 1891.42L740.04 1888.72C662.155 1885.26 609.592 1889.88 550.124 1904.1C437.709 1931.39 337.955 1994.05 230.144 2104.38C180.651 2155.5 157.631 2182.8 100.081 2260.45C75.5259 2293.12 45.9835 2331.18 34.0897 2344.63C17.9757 2363.08 12.6043 2371.93 12.6043 2381.15C12.6043 2394.22 23.7307 2433.82 59.0282 2546.45L82.0483 2619.49L73.9913 2637.55C63.6322 2660.62 48.6691 2678.3 26.4164 2692.14C8.76763 2703.29 4.93095 2710.21 4.93095 2732.5C4.93095 2747.88 -0.824077 2744.42 70.1546 2771.71C92.4073 2780.17 132.693 2795.16 160.317 2804.39C205.973 2820.53 211.728 2821.68 235.132 2819.38C255.083 2817.46 275.034 2819.38 325.678 2828.6C361.359 2834.75 396.273 2840.14 403.562 2840.14C410.852 2840.14 415.84 2840.9 415.072 2841.67C407.399 2849.75 131.158 2900.49 1.09426 2917.79C-4.27709 2918.56 10.686 2920.48 33.7061 2922.02C132.693 2928.93 172.21 2934.32 505.618 2985.83C588.107 2998.51 690.546 3013.5 733.901 3018.89C777.255 3024.27 819.843 3029.65 829.051 3030.8C837.875 3031.96 845.165 3034.26 845.165 3036.18C845.165 3040.41 831.736 3044.64 759.223 3063.09C694.767 3079.24 681.338 3084.24 712.799 3080.39C763.06 3074.24 827.9 3068.09 829.434 3069.24C830.202 3070.01 821.761 3083.08 810.251 3098.46C799.125 3113.84 782.243 3137.67 773.035 3151.51L756.154 3176.49L758.072 3214.17C759.99 3262.6 764.594 3268.37 799.892 3267.98C840.177 3267.6 916.527 3248.76 952.592 3230.31C971.775 3220.32 988.657 3203.79 992.493 3191.49C994.412 3185.72 1002.09 3180.72 1017.43 3174.96C1048.89 3163.42 1065.39 3151.51 1067.69 3138.05C1069.61 3127.29 1070.76 3126.9 1107.98 3120.37C1190.85 3106.53 1393.81 3060.02 1748.32 2974.68C1826.2 2955.84 1850.38 2952 1813.16 2963.92C1802.8 2967.38 1737.96 2990.82 1668.13 3016.2C1598.69 3041.57 1535 3064.25 1526.94 3066.94C1496.63 3076.55 1517.35 3073.86 1581.81 3059.63C1644.73 3045.41 1797.43 3005.82 1923.27 2970.84C2057.56 2933.16 2174.19 2905.49 2112.42 2925.47C2102.06 2928.93 2056.79 2945.46 2011.52 2962.38C1966.24 2979.29 1904.47 3001.97 1874.16 3013.12C1817.76 3033.88 1805.49 3041.18 1845.39 3030.8C1857.67 3027.73 1893.73 3018.89 1925.19 3011.2C2006.53 2991.98 2192.22 2939.31 2285.84 2909.33C2305.02 2903.18 2378.3 2879.73 2448.9 2857.05C2519.49 2834.75 2598.15 2808.61 2623.47 2799.77C2648.79 2790.93 2701.74 2772.1 2740.87 2758.26C2903.55 2700.6 3168.28 2601.03 3196.67 2586.81C3223.53 2572.97 3242.71 2551.45 3258.82 2518C3286.45 2459.19 3306.4 2321.18 3297.19 2249.3C3294.12 2224.7 3294.5 2211.63 3298.72 2188.56C3312.92 2113.99 3297.57 2001.74 3263.43 1929.86C3239.26 1878.73 3186.69 1834.91 3121.85 1811.07C3086.56 1798.39 3038.6 1791.08 2961.86 1787.24C2924.26 1785.7 2892.42 1783.01 2891.27 1781.47C2888.58 1778.78 2889.73 1731.12 2892.8 1718.05L2895.11 1708.82L3012.51 1711.51C3076.96 1713.43 3142.57 1715.74 3157.92 1716.89L3186.31 1719.58L3197.82 1750.34C3204.34 1767.25 3213.93 1787.62 3218.92 1796.08C3228.51 1810.69 3228.51 1810.69 3249.61 1809.15C3282.61 1806.46 3282.61 1806.85 3279.54 1711.9C3277.24 1647.32 3275.7 1630.4 3271.1 1626.56C3265.73 1622.33 3236.95 1616.95 3194.37 1611.95C3174.8 1610.03 3174.8 1610.03 3172.11 1621.94C3169.43 1633.86 3169.04 1633.86 3151.4 1631.94C3141.8 1630.4 3091.54 1627.33 3039.75 1625.02C2944.21 1620.41 2679.1 1622.71 2615.79 1628.86C2588.94 1631.17 2582.03 1630.4 2560.93 1622.71C2471.92 1589.65 2351.83 1563.51 2251.31 1554.67C2236.73 1553.14 2217.93 1551.21 2210.26 1550.06L2195.68 1547.75L2201.05 1562.75L2206.04 1577.35L2299.65 1591.58C2448.52 1614.64 2531.77 1638.47 2648.41 1691.52C2685.24 1708.44 2717.47 1723.43 2719.39 1725.35C2721.69 1726.89 2741.25 1737.65 2763.51 1748.8C2785.76 1759.56 2811.47 1773.02 2820.67 1778.4C2836.4 1787.62 2836.79 1788.39 2829.11 1792.62C2819.52 1797.62 2822.21 1802.23 2834.87 1802.23C2850.22 1802.23 2848.3 1808.77 2831.42 1814.15C2816.84 1819.15 2824.89 1819.92 2932.32 1821.84C3063.54 1824.53 3088.47 1828.37 3142.19 1854.51C3173.65 1869.5 3215.08 1905.64 3230.05 1931.39C3251.53 1968.3 3278.39 2066.71 3277.24 2105.15C3276.86 2112.83 3276.09 2115.91 3274.94 2111.68C3267.65 2078.62 3253.07 2025.19 3246.55 2008.28C3225.44 1951.38 3189 1930.62 3152.93 1954.46L3137.58 1964.84L3148.71 1952.92C3154.85 1946.39 3165.98 1938.7 3173.65 1936.39C3185.54 1932.16 3186.31 1931.39 3179.79 1928.7C3165.59 1923.32 3111.11 1925.24 3076.2 1932.55C3031.69 1942.16 2954.19 1970.22 2900.48 1996.74C2877.46 2008.28 2860.57 2017.5 2863.26 2017.5C2866.33 2017.5 2906.62 2009.81 2953.04 2000.59C3027.47 1985.6 3086.94 1975.6 3064.69 1981.37C3039.36 1988.29 2872.08 2045.56 2869.4 2048.25C2867.48 2050.18 2843.31 2028.65 2813.38 1997.9C2784.23 1968.68 2758.52 1944.46 2756.22 1944.46C2754.3 1944.46 2775.4 1967.14 2803.79 1994.82C2832.18 2022.88 2855.59 2046.72 2855.59 2048.25C2855.59 2049.79 2831.03 2060.94 2801.11 2073.24C2770.8 2085.54 2696.36 2117.06 2634.98 2143.2C2503 2200.1 2421.27 2233.54 2419.36 2231.62C2418.21 2230.08 2432.02 2222.78 2499.54 2190.1L2531.39 2174.72L2509.9 2176.65C2494.94 2178.18 2486.88 2177.42 2484.2 2173.96C2482.28 2171.65 2477.67 2154.74 2474.6 2136.67L2468.85 2103.99L2468.47 2128.98C2468.08 2155.12 2460.03 2177.03 2448.52 2183.95C2430.48 2195.1 2399.02 2160.12 2366.03 2092.46C2357.59 2075.55 2343.39 2051.71 2334.57 2039.41C2320.75 2020.96 2319.22 2017.5 2325.74 2017.5C2329.58 2017.5 2343.01 2027.11 2354.9 2038.64C2380.99 2063.63 2403.24 2075.16 2425.88 2075.16H2442.38L2440.07 2055.94L2437.77 2037.11L2466.55 2013.27L2495.32 1989.44L2586.25 1988.67C2691.76 1987.52 2712.1 1984.44 2730.9 1965.61C2753.15 1943.31 2757.37 1896.03 2739.72 1873.35C2735.5 1867.97 2732.81 1861.43 2733.96 1858.74C2735.12 1856.05 2748.16 1838.37 2763.51 1819.92C2786.91 1791.47 2790.36 1785.32 2786.14 1781.09C2776.17 1771.86 2696.75 1728.04 2642.27 1701.9C2548.65 1656.93 2456.57 1633.48 2394.42 1638.09C2357.2 1641.17 2338.4 1649.24 2331.5 1665.77C2326.89 1676.92 2312.7 1734.19 2262.82 1938.31C2255.15 1969.45 2249.39 1995.59 2250.16 1996.36C2250.93 1996.74 2263.97 2002.12 2279.7 2008.28C2307.33 2019.04 2315 2025.57 2320.37 2044.41C2323.06 2052.48 2321.52 2052.1 2305.41 2037.88C2285.07 2019.81 2244.79 1995.21 2217.93 1984.44C2207.57 1980.6 2199.51 1975.99 2199.51 1974.45C2199.51 1972.91 2204.5 1955.61 2210.64 1936.01C2228.67 1878.35 2295.43 1637.32 2295.43 1629.63C2295.43 1625.02 2277.02 1619.25 2239.8 1611.95C2189.92 1602.72 2191.84 1601.96 2174.96 1635.78C2147.72 1691.52 2093.24 1758.79 2009.6 1840.29L1960.87 1887.96L1982.36 1959.84C1994.25 1999.43 2003.84 2034.42 2003.84 2037.88C2003.84 2047.1 1998.09 2045.95 1990.8 2034.8C1984.66 2025.19 1942.46 1902.95 1942.46 1894.49C1942.46 1891.8 1970.08 1861.43 2003.46 1826.83C2103.6 1724.2 2135.83 1682.68 2174.58 1606.57L2192.99 1570.43L2183.4 1552.75C2178.03 1543.14 2168.82 1520.46 2163.45 1502.39C2151.56 1462.8 2126.23 1363.24 2127.38 1361.7C2128.15 1361.32 2141.58 1365.16 2157.31 1370.54C2207.19 1387.46 2248.24 1377.46 2293.51 1337.48C2328.04 1307.11 2349.15 1297.5 2381.76 1297.12C2415.14 1296.73 2438.54 1307.11 2466.55 1335.18C2486.5 1355.17 2517.96 1412.06 2517.96 1428.2C2517.96 1443.19 2522.95 1440.5 2534.46 1418.59C2565.15 1359.39 2607.74 1297.89 2642.65 1262.91C2654.93 1250.61 2664.14 1240.23 2663.37 1239.46C2661.07 1237.54 2546.35 1214.86 2512.2 1209.86C2495.32 1207.17 2463.09 1205.25 2440.84 1205.25L2399.79 1204.86L2419.74 1187.95C2494.17 1123.75 2558.24 1108.76 2633.06 1137.97C2686.39 1159.12 2747.39 1213.7 2786.14 1275.59L2806.48 1308.27L2804.56 1264.06C2800.34 1159.89 2746.24 1065.32 2670.28 1027.65C2595.08 990.746 2504.15 1004.97 2423.19 1065.71C2395.95 1086.46 2352.6 1131.82 2327.66 1165.65C2318.45 1178.72 2300.42 1203.32 2287.76 1220.62C2275.48 1237.92 2260.9 1254.83 2255.91 1258.29C2250.93 1261.37 2234.81 1265.21 2220.23 1266.75C2205.65 1267.9 2183.78 1272.9 2171.51 1278.28C2149.64 1287.12 2149.25 1287.12 2130.07 1280.59C2119.33 1276.75 2109.35 1270.98 2107.43 1267.9C2105.9 1264.83 2099.76 1238.69 2094.01 1210.24C2088.63 1181.8 2082.11 1152.2 2080.19 1144.51L2076.74 1130.29L2033.39 1119.91C1954.35 1101.07 1862.27 1064.55 1844.62 1044.95L1836.95 1036.11L1845.77 1040.72C1856.51 1046.48 1856.51 1044.56 1844.62 1025.73C1822.37 989.977 1807.41 916.17 1814.69 875.808L1817.76 858.509L1863.8 856.203C1904.47 854.665 1912.53 853.127 1932.86 843.133C1974.3 822.759 2007.68 780.474 2027.25 723.197C2032.23 707.821 2033.39 700.133 2030.7 697.442C2028.01 694.751 2004.61 693.213 1970.08 693.213C1911 693.213 1889.13 697.442 1852.29 715.509L1836.95 723.197L1844.24 714.74C1854.98 702.823 1894.11 685.141 1921.35 679.759C2006.15 663.229 2078.28 632.861 2118.18 597.111C2180.33 540.603 2222.53 453.342 2227.91 369.541C2229.82 341.095 2229.82 340.326 2225.6 356.856C2221.38 372.616 2221 373.001 2219.47 363.391C2218.7 357.24 2221.77 340.711 2225.99 326.488C2254.38 232.692 2239.8 148.122 2183.4 83.9258C2166.9 65.0896 2129.69 32.0305 2117.03 25.4956C2108.58 20.8828 2107.82 19.345 2129.69 47.407C2145.03 67.3962 2166.52 113.525 2174.58 145.431C2181.87 173.877 2181.1 238.458 2173.42 246.146C2169.97 249.606 2168.82 248.452 2168.82 241.149C2168.82 213.856 2135.44 141.587 2100.91 95.0735C2082.11 69.3181 2015.35 -1.79736 2012.67 0.893555C2011.52 2.04663 2023.79 24.7268 2039.52 52.0198C2055.25 78.9285 2073.67 112.372 2080.58 126.21C2094.39 153.119 2112.42 203.477 2109.35 206.167C2107.05 208.858 2042.98 157.732 2022.26 136.59C1998.47 112.756 1983.13 90.0762 1967.01 55.864C1952.43 24.7268 1950.9 27.4177 1961.26 66.6274C1979.29 134.283 2002.31 171.186 2070.6 240.764L2120.86 292.275L2105.52 289.584C2064.85 281.896 2010.37 253.834 1969.7 219.237L1952.43 205.014L1963.94 226.157C1975.45 247.299 2004.23 278.436 2052.95 321.49C2074.44 340.326 2083.26 351.858 2094.01 373.385C2118.56 423.358 2120.86 475.254 2098.99 493.321C2092.85 498.703 2086.33 502.931 2084.8 502.931C2083.26 502.931 2073.67 492.552 2064.08 479.866C2053.72 466.412 2034.15 448.345 2017.27 436.813C1985.43 414.517 1927.11 379.151 1927.11 382.227C1927.11 385.686 1956.27 434.891 1988.11 485.248C2019.57 535.606 2025.71 548.291 2021.88 558.67C2019.57 564.437 1955.5 596.342 1937.09 600.571C1931.33 602.108 1927.11 604.031 1928.26 605.184C1931.33 608.259 2009.6 588.654 2037.61 577.506C2051.8 571.74 2070.99 562.899 2080.58 557.517C2096.69 548.291 2097.46 548.291 2090.55 555.979C2070.6 579.044 1947.83 625.942 1907.54 625.942C1882.6 625.942 1856.51 634.014 1843.09 646.315L1833.49 654.772L1840.02 645.162C1843.85 639.781 1851.53 627.864 1857.28 619.022C1863.04 609.797 1869.94 599.418 1872.63 595.958C1876.85 590.192 1877.23 590.576 1873.78 597.88C1871.48 602.493 1868.02 610.565 1865.72 616.332L1861.89 626.326L1873.78 619.407C1897.95 605.184 1910.23 567.127 1905.24 520.614L1902.94 497.549L1896.03 517.539C1884.91 549.829 1865.34 583.657 1843.09 607.49C1831.96 619.791 1821.22 629.786 1819.68 629.786C1814.31 629.786 1806.64 579.044 1807.02 546.754C1807.41 509.466 1820.83 454.88 1848.07 381.842C1852.68 369.157 1802.8 424.127 1785.54 450.267C1754.46 498.318 1744.48 548.676 1755.99 602.877C1763.67 638.243 1763.67 649.391 1756.76 665.92C1751.39 678.606 1751.01 678.606 1732.21 676.684C1716.09 675.146 1708.42 677.068 1687.7 686.678L1662.38 698.595L1637.44 687.063C1620.56 679.375 1606.36 675.915 1593.32 675.915C1576.05 675.915 1573.75 674.762 1568.38 664.383C1561.86 651.313 1561.09 631.323 1566.85 606.721C1569.15 597.111 1571.07 574.815 1571.07 556.748C1571.07 514.079 1560.71 482.173 1535.77 445.654C1516.97 418.361 1478.22 371.079 1475.92 373.385C1475.53 373.77 1482.82 399.141 1492.03 429.893C1511.6 493.705 1520.42 533.684 1520.42 560.977C1520.42 581.735 1510.06 633.63 1505.84 633.63C1504.31 633.63 1494.33 623.635 1483.21 611.719C1463.25 590.192 1428.34 527.533 1428.34 513.695C1428.34 510.235 1426.42 506.006 1424.12 504.469C1421.05 502.547 1420.28 512.926 1421.43 541.756C1422.97 587.501 1430.64 605.953 1453.66 621.713C1467.86 631.708 1471.7 640.549 1458.27 633.246C1454.05 630.939 1431.03 626.326 1408.01 623.251C1342.02 614.794 1263.75 583.657 1238.04 555.979L1226.91 544.063L1238.42 551.751C1266.82 570.971 1328.59 595.189 1365.04 600.955C1373.48 602.108 1383.84 604.415 1388.06 605.568C1402.25 609.412 1390.36 601.724 1368.87 592.883C1337.03 580.197 1305.57 559.823 1305.57 552.52C1305.57 540.603 1316.31 520.229 1344.7 477.945C1375.78 431.431 1401.48 389.915 1401.48 386.071C1401.48 379.536 1295.98 447.576 1277.18 466.412C1269.89 473.332 1261.06 484.864 1257.22 491.014C1253.39 497.549 1248.4 502.931 1246.1 502.931C1240.34 502.547 1226.53 490.63 1221.54 481.02C1215.79 469.872 1216.17 432.2 1222.69 408.751C1233.44 368.004 1247.25 350.321 1323.6 279.205C1343.17 261.138 1374.63 220.006 1374.63 212.318C1374.63 211.165 1366.57 217.315 1356.59 225.772C1326.29 252.681 1279.48 276.899 1237.27 288.047C1226.15 290.738 1216.17 291.506 1214.64 290.353C1213.1 288.815 1233.82 266.135 1260.29 240.38C1317.84 184.256 1341.63 150.428 1358.13 98.9177C1364.65 78.9285 1371.17 55.864 1372.33 47.407C1374.63 34.3369 1372.33 37.7966 1356.98 67.7805C1335.49 110.45 1300.2 150.044 1253.77 183.872C1236.12 196.557 1220.78 206.936 1219.63 206.936C1210.42 206.936 1284.85 50.8667 1313.62 10.5037C1325.52 -6.4104 1318.61 -2.95068 1293.29 21.2671ZM1135.22 136.59C1132.15 147.737 1128.7 167.342 1127.16 180.797C1123.32 216.931 1120.26 223.85 1117.19 203.092C1114.12 182.334 1118.72 155.041 1129.08 131.208C1139.05 108.528 1141.74 111.219 1135.22 136.59ZM2209.87 162.729C2212.18 173.108 2212.56 191.56 2211.02 203.092C2209.49 214.625 2207.96 221.544 2207.57 218.469C2206.04 204.245 2195.68 135.052 2193.76 126.21C2191.84 118.907 2192.99 119.676 2198.75 130.055C2202.97 137.358 2207.96 151.966 2209.87 162.729ZM1222.69 344.17C1212.72 356.471 1198.91 378.383 1192 392.99C1180.11 417.208 1178.96 418.361 1176.65 409.135C1172.82 392.606 1185.48 366.082 1208.12 343.017C1236.51 314.955 1246.1 315.724 1222.69 344.17ZM2130.84 350.321C2137.74 359.162 2146.18 373.77 2150.4 382.611C2154.24 391.837 2159.23 399.141 2160.76 399.141C2162.68 399.141 2173.04 389.531 2183.4 377.998C2194.14 366.466 2203.73 356.856 2204.89 356.856C2211.79 356.856 2196.06 432.2 2185.7 446.807C2180.33 454.496 2180.33 454.496 2180.33 445.27C2180.33 439.888 2183.78 421.437 2187.62 404.138L2194.53 372.232L2172.66 394.528L2151.17 416.439L2138.89 391.453C2132.37 377.614 2120.09 357.24 2111.27 346.092C2102.83 334.944 2095.92 324.95 2095.92 324.181C2095.92 318.031 2120.86 336.482 2130.84 350.321ZM1144.43 411.826C1149.03 434.891 1152.1 454.496 1150.95 455.264C1147.5 458.724 1132.92 418.361 1130.61 400.294C1129.46 390.299 1127.93 376.845 1126.78 370.31C1125.24 360.315 1125.63 359.547 1130.61 364.544C1133.68 367.619 1139.82 389.146 1144.43 411.826ZM1167.83 397.988C1172.82 404.138 1172.43 404.522 1166.68 399.525C1162.84 396.834 1159.77 393.759 1159.77 392.99C1159.77 389.915 1162.84 391.837 1167.83 397.988ZM2035.69 477.176C2062.16 505.622 2058.32 506.775 2024.18 481.02C1991.95 457.187 1977.37 442.963 1976.99 436.428C1976.99 430.662 2021.49 461.415 2035.69 477.176ZM1348.15 444.116C1343.55 452.958 1329.35 465.643 1296.36 491.014C1269.89 511.772 1268.35 511.388 1285.62 488.323C1294.44 476.022 1342.4 437.582 1348.92 437.582C1350.46 437.582 1350.07 440.657 1348.15 444.116ZM1525.79 459.877C1535.77 479.482 1544.98 519.076 1542.67 532.915C1542.29 537.528 1535.38 518.692 1527.71 491.399C1520.04 463.721 1514.67 441.426 1515.05 441.426C1515.82 441.426 1520.8 449.883 1525.79 459.877ZM1794.74 495.243C1781.32 542.91 1781.32 542.91 1782.85 517.923C1784.77 494.474 1803.95 434.506 1807.02 443.732C1807.41 445.654 1802.03 468.719 1794.74 495.243ZM1489.73 652.082C1489.73 653.235 1485.51 650.16 1480.14 645.162C1474.76 640.165 1470.54 634.783 1470.54 633.246C1470.54 631.323 1465.56 621.713 1459.03 611.719C1439.08 580.197 1446.76 585.579 1468.63 618.638C1480.14 635.937 1489.73 650.928 1489.73 652.082ZM1629.77 710.512L1645.11 718.2L1629 715.894C1620.17 714.74 1609.82 715.509 1605.98 717.815C1602.14 720.122 1600.61 722.044 1602.53 722.044C1604.44 722.044 1597.54 731.654 1587.56 743.187L1569.53 764.329H1582.58L1595.24 764.713L1579.89 771.633C1565.69 777.783 1565.31 778.552 1573.37 781.243C1583.34 784.703 1584.88 791.238 1575.29 791.238C1571.83 791.238 1577.59 795.466 1588.33 800.848C1599.07 806.229 1616.34 818.531 1626.31 827.756C1636.29 837.367 1644.73 845.055 1644.73 845.055C1645.11 845.055 1644.35 836.598 1643.96 825.834C1642.81 813.533 1643.96 806.614 1646.65 806.614C1648.95 806.614 1650.87 808.536 1650.87 810.843C1650.87 813.918 1655.47 814.687 1664.68 813.149L1678.49 810.843L1676.96 827.756C1676.19 837.367 1675.81 845.055 1676.19 845.055C1676.19 845.055 1684.63 836.982 1695.37 826.603C1712.26 810.458 1734.51 796.619 1756.38 788.931C1763.28 786.625 1763.28 785.856 1757.53 784.703C1753.69 783.549 1750.62 781.627 1750.62 779.705C1750.62 778.168 1743.33 772.786 1734.51 768.173C1718.01 760.101 1718.01 759.716 1730.67 761.254C1737.19 762.407 1742.95 762.407 1742.95 762.022C1742.95 757.41 1729.52 734.345 1727.6 735.498C1726.45 736.267 1723 735.498 1719.93 733.192C1715.32 730.501 1715.71 729.732 1721.85 729.732C1727.99 729.732 1727.22 728.195 1716.86 721.66C1707.27 715.509 1700.75 713.971 1690 715.509C1676.96 717.815 1676.57 717.431 1683.1 712.434C1687.7 708.974 1698.83 706.668 1709.95 706.668C1735.28 706.668 1754.84 717.815 1776.33 744.34C1790.14 761.254 1792.83 767.404 1792.44 779.321C1791.67 787.009 1794.36 799.31 1797.81 806.229C1804.72 819.684 1803.57 826.603 1796.28 819.299C1793.98 816.993 1789.37 815.84 1786.69 816.993C1782.47 818.531 1782.85 820.837 1788.99 828.91C1798.58 840.826 1797.43 842.364 1782.47 836.598C1763.67 829.678 1741.41 837.751 1729.9 856.203C1719.16 872.732 1712.26 895.412 1712.26 912.326C1712.64 921.937 1713.02 922.705 1716.48 916.939C1718.78 913.479 1721.85 911.173 1723.77 912.326C1725.68 913.479 1727.99 910.789 1729.52 906.56C1730.67 902.332 1733.74 898.872 1735.66 898.872C1737.58 898.872 1739.11 895.412 1739.11 891.184C1739.11 884.649 1740.26 883.88 1746.4 887.34C1758.3 893.49 1766.74 891.953 1778.63 880.42C1788.22 871.963 1789.76 871.579 1787.07 877.729C1785.54 881.958 1781.32 895.412 1777.48 907.713C1773.64 920.014 1768.65 932.316 1766.74 934.622C1763.28 938.851 1750.62 981.904 1750.62 989.208C1750.62 991.13 1755.23 987.286 1760.98 981.135L1770.96 969.988L1768.65 989.977C1766.35 1009.58 1754.84 1037.64 1744.48 1048.02C1741.41 1050.71 1739.11 1054.94 1739.11 1056.86C1739.11 1058.79 1737.19 1060.32 1735.28 1060.32C1732.97 1060.32 1732.21 1056.48 1733.74 1051.1C1737.58 1035.72 1728.37 998.818 1715.71 978.829C1709.19 968.45 1703.05 960.762 1702.28 961.531C1701.51 961.915 1705.35 976.523 1710.34 993.052C1715.71 1009.97 1719.93 1031.88 1719.93 1041.87V1060.32H1699.98H1679.64L1692.69 1053.4C1709.19 1045.33 1714.94 1030.34 1707.65 1015.35C1703.43 1006.51 1699.21 1004.2 1683.48 1001.51C1659.31 998.05 1621.71 1001.89 1616.34 1008.81C1613.65 1011.5 1610.97 1020.73 1609.82 1029.19C1607.9 1043.41 1608.66 1045.33 1619.79 1051.48C1632.84 1059.17 1635.14 1064.17 1625.16 1064.17C1610.58 1064.17 1601.38 1059.17 1599.46 1050.71C1597.54 1043.79 1609.82 986.517 1619.02 961.531C1624.01 947.308 1613.27 962.3 1600.99 986.902C1591.02 1006.12 1588.33 1016.5 1587.95 1035.72C1587.95 1049.18 1586.41 1060.32 1585.26 1060.32C1579.89 1060.32 1559.17 1023.04 1553.42 1003.05C1543.82 970.756 1545.74 968.066 1562.62 987.286C1577.2 1003.43 1577.97 1003.82 1572.22 991.899C1568.76 984.979 1567.23 977.676 1568.38 975.754C1569.53 973.447 1568.76 971.91 1566.46 971.91C1564.16 971.91 1563.01 970.372 1564.16 968.834C1566.85 964.221 1559.94 940.004 1547.28 910.404C1529.63 869.657 1529.25 866.197 1543.44 880.036C1552.65 889.646 1557.64 891.568 1565.69 890.031C1580.27 886.955 1584.88 890.8 1593.32 912.711L1600.61 931.547L1601.38 914.248C1601.76 898.488 1602.14 897.719 1604.83 908.482C1607.51 919.63 1607.9 919.246 1608.28 904.638C1608.66 882.343 1596.77 858.894 1577.2 845.055C1560.71 832.754 1548.81 831.601 1530.78 839.289C1524.26 841.979 1523.87 841.595 1529.63 828.141C1535.38 814.302 1533.47 810.458 1525.03 818.915C1517.35 826.603 1515.05 818.531 1522.72 810.074C1528.09 803.923 1530.01 797.004 1529.25 782.396C1528.86 765.482 1530.78 760.485 1543.44 742.802C1553.8 729.348 1564.93 719.738 1578.36 712.818C1602.53 700.902 1609.43 700.517 1629.77 710.512ZM1424.5 725.888C1453.66 735.883 1482.44 755.872 1495.48 775.093C1500.85 782.781 1505.07 790.469 1505.07 792.006C1505.07 793.544 1498.55 795.851 1490.88 797.388C1477.07 800.079 1476.68 800.463 1485.89 803.539C1491.65 805.076 1480.52 805.845 1459.03 805.076L1422.59 803.539L1442.92 812.764C1453.66 817.762 1462.87 822.759 1462.87 823.528C1462.87 826.988 1429.49 821.221 1414.91 815.071C1398.8 808.536 1393.04 803.154 1396.11 798.157C1397.26 796.619 1394.96 796.235 1391.51 797.772C1386.14 799.695 1385.37 798.926 1387.29 793.544C1388.82 789.7 1386.14 781.243 1379.61 771.633C1374.24 763.176 1370.41 755.488 1371.56 754.719C1372.71 753.565 1383.07 757.025 1395.35 762.407C1426.81 776.246 1434.1 773.939 1407.24 758.563C1381.15 743.571 1384.6 741.649 1420.28 752.797C1434.1 757.025 1445.61 759.716 1446.37 758.947C1448.29 757.41 1421.43 740.496 1407.24 733.961C1401.1 731.27 1381.15 725.504 1363.12 721.66L1330.51 714.356L1365.42 715.894C1386.9 717.047 1409.16 720.891 1424.5 725.888ZM1961.64 720.122C1934.4 725.888 1916.37 732.039 1886.82 745.493C1870.33 753.181 1869.18 754.719 1876.85 755.872C1881.84 756.641 1893.73 755.488 1903.32 752.797C1912.53 750.49 1920.97 749.337 1921.74 750.106C1922.51 750.875 1916.37 755.488 1907.93 760.869C1872.25 782.396 1886.82 780.474 1926.73 758.178C1935.93 753.181 1943.99 748.953 1944.76 748.953C1947.44 748.953 1944.37 766.251 1941.31 768.557C1937.09 771.633 1942.46 783.934 1947.06 781.243C1951.66 778.168 1945.14 790.084 1935.93 801.232C1925.58 813.918 1908.69 820.837 1881.07 823.144L1856.13 825.45L1873.4 816.993L1890.66 808.536L1858.05 806.614C1840.02 805.076 1827.74 803.923 1830.43 803.539C1840.02 802.001 1834.65 795.082 1823.52 795.082C1812.78 795.082 1812.01 794.313 1816.23 787.009C1825.05 770.095 1852.29 744.34 1871.09 734.729C1895.27 722.428 1929.8 715.125 1961.64 715.125H1986.58L1961.64 720.122ZM1386.14 787.394C1386.14 789.315 1385.37 791.238 1384.6 791.238C1383.45 791.238 1381.53 789.315 1380.38 787.394C1379.23 785.087 1380 783.549 1381.92 783.549C1384.22 783.549 1386.14 785.087 1386.14 787.394ZM1557.25 863.506C1555.72 864.66 1552.65 863.506 1549.96 860.816C1546.51 857.356 1546.51 855.434 1551.11 852.743C1555.34 850.052 1557.25 850.821 1558.02 855.049C1558.79 858.509 1558.4 861.969 1557.25 863.506ZM1766.35 865.428C1760.21 871.579 1756.38 865.428 1762.52 858.125C1765.97 853.896 1768.27 853.512 1769.04 856.587C1769.81 858.894 1768.65 863.122 1766.35 865.428ZM904.633 948.845L931.49 964.221L914.225 948.845C895.042 931.931 895.809 931.162 923.817 938.851C946.453 944.617 958.731 950.767 1002.09 977.292C1037 998.434 1036.62 1000.74 997.865 998.05C985.587 997.281 975.612 996.896 975.612 997.281C975.612 999.203 1079.97 1061.09 1094.93 1067.63L1111.81 1075.7H1083.04C1027.02 1075.7 987.122 1059.94 948.755 1021.88C909.621 982.673 867.034 933.469 872.789 933.469C875.475 933.469 890.054 940.388 904.633 948.845ZM1278.71 977.292C1278.71 980.367 1274.49 988.055 1269.12 994.205L1259.53 1005.74L1283.7 1014.58C1305.95 1023.04 1376.93 1066.86 1373.48 1070.32C1372.71 1071.09 1363.5 1067.63 1353.14 1062.63C1304.42 1039.18 1248.02 1018.42 1225.76 1015.73C1193.92 1012.27 1195.45 1018.42 1228.45 1026.88C1243.03 1030.72 1257.99 1036.49 1261.83 1039.57C1266.43 1043.03 1267.2 1044.18 1263.36 1043.03C1260.29 1042.26 1235.36 1039.57 1208.5 1037.26C1181.26 1035.34 1151.72 1032.26 1143.28 1030.72C1127.54 1028.42 1127.54 1028.03 1162.84 1019.58C1183.56 1014.58 1213.49 1003.05 1235.74 991.899C1278.33 969.988 1278.71 969.988 1278.71 977.292ZM1678.11 1025.73C1668.9 1033.8 1648.95 1035.72 1639.74 1029.96C1629.38 1023.42 1640.13 1018.04 1663.53 1018.04L1687.32 1018.42L1678.11 1025.73ZM2616.95 1044.95C2663.75 1053.79 2707.11 1087.62 2730.51 1134.13L2744.71 1162.19L2725.91 1142.2C2713.63 1129.52 2707.49 1124.9 2708.64 1129.9C2710.56 1136.82 2709.03 1136.44 2694.06 1126.06C2672.96 1111.45 2626.15 1095.69 2589.32 1091.08C2524.87 1083 2446.6 1102.99 2386.74 1143.36C2376 1150.66 2366.79 1156.04 2366.03 1155.27C2364.11 1153.35 2413.6 1109.53 2435.47 1094.15C2498.01 1049.56 2557.48 1033.42 2616.95 1044.95ZM1613.65 1143.36C1629.77 1154.12 1630.53 1151.43 1605.98 1181.03C1599.07 1189.49 1593.32 1198.71 1593.32 1201.4C1593.32 1214.86 1586.8 1203.32 1578.36 1175.65C1573.37 1158.73 1561.47 1127.98 1552.27 1107.61L1535.38 1069.93L1567.23 1101.84C1584.88 1119.14 1605.6 1137.97 1613.65 1143.36ZM1838.1 1129.52C1836.56 1152.2 1832.34 1168.34 1818.15 1204.48C1808.17 1229.85 1789.76 1279.05 1777.1 1314.03C1724.92 1457.8 1683.86 1517 1566.08 1620.41C1544.21 1639.63 1519.65 1665 1511.6 1676.15C1494.72 1700.75 1477.83 1711.51 1437.55 1721.51C1413.76 1727.66 1377.31 1732.27 1391.89 1727.27C1394.19 1726.5 1413.76 1720.35 1436.01 1713.05C1482.05 1698.44 1476.3 1703.44 1584.49 1590.81C1689.62 1481.25 1711.1 1447.42 1759.45 1317.88C1773.26 1280.97 1794.36 1227.16 1806.64 1198.71C1826.59 1151.04 1828.51 1143.74 1830.43 1110.3C1831.96 1078.39 1832.73 1075.32 1836.18 1087.23C1838.1 1094.54 1838.87 1113.76 1838.1 1129.52ZM1769.04 1095.69C1762.13 1104.92 1749.85 1119.52 1741.41 1128.36C1733.36 1137.59 1723 1150.28 1718.78 1157.19L1711.49 1169.88L1727.22 1155.27C1735.66 1147.58 1743.72 1141.05 1744.87 1141.05C1746.02 1141.05 1737.58 1154.12 1725.68 1169.88C1714.17 1185.64 1704.58 1200.63 1704.58 1203.32C1704.58 1206.01 1708.04 1204.09 1712.26 1198.71C1716.48 1193.33 1719.93 1190.64 1719.93 1192.94C1719.93 1194.87 1716.48 1201.02 1712.64 1206.01L1705.73 1215.24L1682.33 1184.1L1659.31 1153.35L1676.96 1148.74C1696.14 1144.12 1735.28 1119.52 1762.13 1095.3C1771.72 1086.85 1780.16 1079.54 1780.55 1079.54C1781.32 1079.54 1776.33 1086.85 1769.04 1095.69ZM1678.88 1086.08C1667.75 1086.85 1649.33 1086.85 1638.59 1086.08C1627.46 1085.31 1636.29 1084.93 1658.54 1084.93C1680.79 1084.93 1689.62 1085.31 1678.88 1086.08ZM1948.21 1126.44C1975.84 1136.05 2010.37 1146.82 2024.95 1150.28L2051.8 1156.81L2068.68 1242.15C2090.17 1351.71 2127.77 1503.55 2142.73 1541.22L2154.24 1570.43L2142.73 1593.11C2125.85 1626.17 2116.64 1636.17 2127.38 1610.03C2138.51 1582.74 2138.13 1563.13 2125.47 1536.99C2116.64 1518.15 2115.49 1517.39 2115.49 1527.38C2116.26 1554.29 2115.11 1562.36 2111.27 1556.21C2109.35 1553.14 2107.43 1538.14 2107.43 1523.54C2107.05 1508.54 2102.83 1477.41 2098.23 1454.34L2089.02 1412.06L2086.72 1442.81C2079.43 1530.46 2078.66 1531.61 2075.59 1454.34C2071.75 1356.7 2049.5 1189.1 2038.76 1178.34C2033.77 1173.34 2021.49 1183.72 2010.75 1202.55C2002.31 1217.93 2003.84 1207.94 2013.05 1185.64C2018.04 1174.88 2018.42 1171.42 2014.59 1172.57C2004.23 1176.03 1999.24 1209.86 1994.64 1312.11L1990.03 1415.9L1986.96 1347.09C1983.13 1265.98 1985.43 1236 1997.7 1197.17L2006.53 1168.73L1991.57 1164.88C1977.75 1161.42 1976.22 1161.81 1973.15 1170.26C1965.09 1191.02 1957.42 1222.54 1950.13 1265.98C1939.39 1328.26 1938.62 1330.18 1940.92 1283.28C1942.84 1241.76 1949.36 1202.55 1959.34 1171.03L1965.09 1152.97L1947.06 1149.12C1924.81 1144.51 1922.51 1147.58 1914.06 1187.18C1904.09 1234.46 1900.64 1266.37 1898.33 1337.1C1895.65 1415.9 1887.59 1489.32 1877.62 1527.38C1869.18 1558.52 1868.41 1556.98 1873.4 1520.85C1879.53 1477.41 1888.74 1354.01 1888.74 1312.11C1888.74 1264.83 1897.57 1196.4 1907.93 1162.96C1912.15 1149.89 1914.83 1139.13 1914.45 1139.13C1868.02 1116.83 1861.12 1112.6 1857.67 1103.76C1851.53 1087.62 1853.45 1087.23 1876.47 1098.38C1888.36 1104.53 1920.97 1117.22 1948.21 1126.44ZM1651.25 1101.07C1658.93 1102.22 1671.59 1101.46 1680.03 1099.15C1698.83 1093.77 1701.51 1097.23 1688.08 1108.76C1670.44 1123.75 1635.91 1119.52 1619.79 1100.3C1615.19 1094.54 1615.57 1094.15 1625.93 1096.07C1632.45 1097.61 1643.58 1099.53 1651.25 1101.07ZM1517.35 1155.66C1497.4 1199.1 1492.03 1233.31 1492.03 1317.88C1492.41 1386.69 1498.55 1445.89 1512.36 1514.31C1516.58 1533.92 1519.27 1550.83 1518.5 1551.6C1515.82 1554.67 1493.18 1477.79 1487.43 1445.89C1473.23 1367.08 1477.83 1227.54 1496.63 1171.03C1503.92 1149.12 1528.86 1111.45 1531.55 1118.75C1532.31 1120.68 1525.79 1137.59 1517.35 1155.66ZM1510.45 1123.37C1509.29 1126.44 1498.55 1136.44 1487.04 1145.28C1475.53 1154.5 1464.02 1166.04 1461.72 1171.42C1459.8 1177.18 1456.73 1227.93 1455.58 1287.12C1453.28 1381.69 1452.9 1389.38 1449.44 1362.08C1447.14 1345.17 1445.61 1295.97 1445.61 1252.14V1173.34L1429.49 1185.64C1420.67 1192.56 1411.84 1198.71 1409.54 1199.1C1407.62 1199.86 1404.17 1229.08 1401.87 1264.06C1397.26 1336.33 1386.52 1385.92 1358.51 1459.34C1340.48 1505.47 1325.13 1529.3 1313.24 1529.3C1300.2 1529.3 1304.8 1535.84 1320.15 1538.53C1327.82 1539.68 1341.25 1544.29 1349.69 1548.52L1365.04 1556.21L1336.26 1554.29C1320.53 1553.14 1300.96 1550.44 1292.52 1548.14L1277.56 1544.29L1289.07 1533.92C1318.23 1507.78 1333.19 1480.48 1355.44 1412.83C1378.85 1340.56 1386.14 1301.73 1386.14 1243.3C1386.14 1200.63 1386.9 1192.94 1393.04 1188.33C1414.91 1170.65 1502.01 1118.37 1509.68 1117.99C1511.21 1117.99 1511.6 1120.68 1510.45 1123.37ZM1782.08 1176.42C1719.93 1353.63 1705.73 1388.61 1681.18 1427.05C1660.84 1458.96 1655.09 1464.34 1664.68 1441.66C1668.13 1433.97 1683.86 1394.37 1699.59 1354.4C1760.98 1197.56 1790.14 1129.9 1792.06 1138.74C1792.83 1141.82 1788.22 1158.73 1782.08 1176.42ZM1574.13 1199.1C1574.13 1200.63 1575.67 1206.4 1577.59 1211.78C1581.04 1220.62 1582.19 1221.01 1593.32 1216.78C1612.12 1209.86 1614.04 1218.7 1600.61 1245.61C1583.34 1279.82 1577.2 1312.5 1574.52 1385.15L1572.22 1450.5L1563.01 1421.67C1550.35 1380.54 1545.36 1319.03 1550.73 1260.22C1553.03 1233.69 1556.87 1205.25 1559.17 1196.79C1563.01 1182.57 1563.78 1182.18 1568.76 1189.1C1571.83 1192.94 1574.13 1197.56 1574.13 1199.1ZM1653.94 1194.87C1665.83 1194.87 1661.61 1201.02 1643.2 1210.24L1628.23 1217.93L1622.48 1209.47C1612.12 1194.48 1614.42 1189.87 1630.92 1192.56C1638.59 1193.71 1648.95 1194.87 1653.94 1194.87ZM2042.21 1277.51C2042.21 1382.46 2037.61 1485.1 2034.15 1456.26C2030.7 1428.2 2029.93 1257.91 2033.39 1220.24C2037.61 1168.34 2042.21 1197.17 2042.21 1277.51ZM1849.61 1248.68C1846.54 1292.51 1842.7 1307.5 1836.95 1301.73C1833.49 1298.66 1841.55 1226 1846.92 1211.01C1849.22 1204.09 1851.53 1198.71 1851.91 1199.48C1852.68 1200.25 1851.53 1222.16 1849.61 1248.68ZM1699.59 1225.62C1702.28 1235.61 1706.88 1235.23 1709.57 1224.85C1711.1 1220.24 1713.02 1217.16 1714.17 1218.32C1719.55 1223.7 1683.86 1344.79 1676.96 1344.79C1675.04 1344.79 1673.89 1323.64 1673.89 1297.5C1673.89 1259.45 1675.42 1247.53 1681.56 1234.08C1689.62 1216.78 1696.53 1213.32 1699.59 1225.62ZM2429.72 1237.15C2415.9 1238.69 2397.1 1242.15 2387.51 1244.84L2370.25 1250.22L2397.49 1252.91C2428.95 1256.37 2468.47 1270.98 2485.35 1285.59L2496.86 1295.2L2481.51 1287.89C2455.04 1274.82 2425.5 1267.9 2397.49 1267.9C2376.39 1267.9 2346.08 1274.05 2265.51 1294.43C2207.57 1309.04 2159.61 1322.11 2158.46 1323.26C2157.31 1324.03 2164.22 1327.1 2173.04 1329.41C2198.36 1335.94 2199.51 1337.48 2177.65 1335.18C2166.52 1334.02 2149.25 1329.41 2139.28 1324.8L2120.86 1316.72L2143.88 1313.65C2156.54 1312.11 2173.04 1308.27 2180.71 1304.81C2188.39 1301.73 2210.64 1295.58 2230.21 1291.35C2249.77 1286.74 2282.39 1275.59 2304.26 1265.6C2356.82 1241.38 2386.36 1233.69 2423.96 1234.08L2454.65 1234.46L2429.72 1237.15ZM1539.22 1412.06C1543.82 1433.2 1550.73 1463.95 1554.57 1480.48C1563.78 1518.92 1558.79 1514.31 1545.74 1472.41C1528.09 1415.52 1520.42 1345.17 1523.87 1269.83C1525.03 1246.38 1526.18 1254.83 1528.09 1306.35C1530.01 1350.94 1533.85 1386.3 1539.22 1412.06ZM1643.2 1246.76C1643.2 1247.92 1638.97 1250.61 1633.6 1252.53C1623.24 1256.37 1620.17 1267.9 1629.38 1267.9C1633.6 1267.9 1631.3 1276.36 1621.33 1301.35C1614.04 1319.42 1606.75 1341.33 1605.6 1349.78C1602.14 1375.92 1596 1355.55 1596 1316.34C1595.62 1282.13 1599.84 1266.75 1613.27 1249.45C1617.11 1245.22 1643.2 1242.53 1643.2 1246.76ZM1855.75 1330.18C1859.2 1336.71 1861.89 1343.25 1861.89 1344.4C1861.89 1345.55 1845 1347.09 1824.29 1347.48L1787.07 1347.86L1817.76 1333.25C1834.65 1325.18 1848.84 1318.26 1849.22 1318.26C1849.61 1317.88 1852.68 1323.26 1855.75 1330.18ZM1842.7 1446.65C1837.71 1498.55 1823.14 1591.58 1820.83 1589.27C1819.68 1588.5 1820.83 1572.36 1823.14 1553.52C1825.44 1535.07 1829.66 1488.55 1832.73 1450.11C1835.41 1412.06 1839.25 1378.23 1841.17 1375.15C1846.92 1366.31 1847.69 1399.76 1842.7 1446.65ZM1795.13 1423.97C1792.44 1473.56 1785.15 1530.46 1775.56 1575.43C1770.57 1597.73 1770.19 1598.5 1771.72 1581.58C1772.88 1571.2 1776.33 1529.69 1779.4 1489.32C1787.84 1385.53 1788.99 1375.54 1793.59 1375.54C1796.66 1375.54 1797.05 1390.15 1795.13 1423.97ZM1012.83 1398.99C1042.37 1409.75 1048.51 1417.44 1048.51 1443.58C1048.51 1469.72 1040.45 1485.86 1023.19 1493.17C1000.93 1502.39 996.33 1494.32 1012.06 1473.95C1024.34 1457.42 1024.34 1450.88 1010.53 1441.27C998.248 1432.43 986.738 1430.51 988.273 1437.81C988.657 1441.27 983.285 1442.81 970.624 1442.43C936.478 1442.04 934.56 1422.82 966.788 1402.45C976.763 1395.91 985.971 1390.92 987.889 1390.92C989.424 1390.92 1000.55 1394.37 1012.83 1398.99ZM1401.1 1436.66C1396.5 1445.5 1391.89 1451.65 1391.12 1451.27C1390.36 1450.5 1393.81 1442.81 1398.41 1433.97C1403.4 1425.51 1407.62 1418.98 1408.39 1419.75C1409.16 1420.51 1406.09 1428.2 1401.1 1436.66ZM1146.34 1483.17C1234.59 1554.67 1266.05 1585.81 1303.26 1636.94C1310.94 1647.32 1284.85 1626.17 1248.4 1593.11C1228.83 1575.05 1211.95 1560.06 1211.18 1560.06C1209.65 1560.06 1223.08 1595.81 1228.83 1606.57C1231.14 1610.41 1232.67 1614.64 1232.67 1616.18C1232.67 1618.1 1224.23 1605.42 1213.87 1588.89C1196.99 1561.59 1132.15 1491.25 1137.9 1506.24C1145.96 1528.53 1161.31 1562.36 1166.3 1570.05C1169.36 1575.05 1171.28 1579.28 1170.13 1579.28C1168.6 1579.28 1163.23 1571.2 1157.09 1560.82C1140.59 1531.99 1103.76 1477.79 1096.85 1472.03C1093.4 1469.33 1090.71 1464.34 1090.71 1461.65C1090.71 1451.27 1084.96 1457.03 1075.75 1475.87C1065.01 1498.93 1061.55 1498.55 1069.61 1475.49C1072.68 1466.64 1075.37 1450.5 1075.37 1440.12V1420.9L1086.11 1431.66C1091.86 1437.81 1119.1 1460.88 1146.34 1483.17ZM952.592 1455.11C986.738 1467.41 988.657 1471.26 959.882 1469.33C946.453 1468.57 928.037 1467.8 918.829 1467.8C903.099 1467.8 902.715 1467.41 905.017 1457.03C906.552 1451.27 910.005 1442.43 913.074 1437.43L918.829 1428.59L923.433 1437.43C926.119 1443.19 935.711 1449.35 952.592 1455.11ZM1735.28 1512.77C1730.67 1562.36 1721.08 1620.02 1720.31 1602.34C1719.55 1586.96 1730.67 1474.33 1733.74 1466.64C1739.11 1452.04 1739.5 1465.11 1735.28 1512.77ZM966.02 1498.55C967.555 1500.86 955.661 1502.39 933.409 1502.39C911.156 1502.39 899.262 1500.86 900.797 1498.55C901.948 1496.24 916.911 1494.71 933.409 1494.71C949.906 1494.71 964.869 1496.24 966.02 1498.55ZM876.626 1515.08C884.683 1523.15 890.821 1524.31 926.119 1526.61C988.657 1530.07 1012.06 1539.68 1106.06 1601.57C1168.98 1643.09 1237.66 1695.37 1271.42 1727.27C1300.2 1754.57 1300.58 1754.95 1325.9 1757.26C1348.92 1759.56 1384.6 1758.41 1439.85 1754.18C1452.51 1753.41 1458.65 1753.8 1455.2 1756.1C1443.69 1762.25 1332.04 1769.17 1302.5 1765.33C1287.53 1763.02 1274.87 1762.64 1274.87 1763.79C1274.87 1765.33 1281.4 1775.71 1289.45 1787.24C1297.51 1798.77 1305.18 1810.69 1307.1 1813.76C1312.86 1824.53 1294.06 1800.31 1272.96 1769.17C1261.45 1752.26 1247.63 1734.19 1242.65 1729.58C1233.44 1720.74 1233.44 1721.51 1246.48 1758.41C1253.39 1779.17 1258.76 1796.47 1257.99 1797.62C1257.22 1798.39 1248.78 1784.55 1239.96 1767.25C1226.15 1740.34 1175.5 1676.92 1167.06 1675.76C1165.91 1675.38 1173.2 1692.29 1183.18 1712.67C1200.06 1746.88 1230.37 1828.76 1227.68 1831.83C1226.91 1832.6 1219.63 1817.99 1211.95 1799.16C1179.72 1724.58 1154.02 1684.22 1117.57 1652.7L1094.17 1632.32L1107.59 1656.54C1121.02 1681.53 1152.1 1753.03 1152.1 1758.79C1152.1 1760.33 1144.43 1747.65 1135.22 1730.35C1096.47 1658.46 1065.01 1618.49 1016.66 1580.81C995.563 1564.28 993.644 1563.51 1000.55 1573.51C1022.42 1607.72 1068.46 1688.06 1062.7 1683.07C1061.55 1681.91 1054.26 1671.53 1046.21 1660C998.248 1589.27 971.775 1560.06 938.013 1539.3C935.327 1537.76 938.396 1546.99 944.919 1560.06C957.58 1585.43 964.869 1602.34 962.567 1602.34C961.8 1602.34 954.127 1591.19 945.302 1577.74C924.584 1546.22 914.992 1536.99 910.388 1544.68C907.703 1549.29 905.401 1548.52 896.96 1540.83L886.985 1531.61L893.123 1548.14C896.193 1557.36 898.878 1565.82 898.878 1566.59C898.878 1567.74 890.821 1561.21 881.23 1552.75C863.581 1537.37 853.605 1532.38 858.977 1541.6C860.512 1544.29 874.324 1561.98 889.287 1581.2C926.503 1627.71 941.849 1650.39 954.51 1674.99C965.253 1696.52 976.379 1725.35 974.077 1725.35C973.31 1725.35 967.939 1717.28 962.184 1707.67C950.29 1687.29 878.16 1591.58 860.512 1572.36C854.373 1565.82 847.083 1560.06 844.397 1560.06C842.095 1560.06 836.724 1556.98 832.504 1553.14C824.83 1546.6 824.83 1546.99 827.516 1558.13C829.051 1564.28 845.165 1598.11 863.581 1633.09C895.425 1693.06 914.992 1734.19 906.168 1721.51C904.25 1718.43 884.299 1686.14 862.046 1650.39C818.308 1579.66 796.055 1550.06 791.068 1555.06C789.533 1556.6 785.312 1568.13 782.243 1580.04C773.419 1613.87 780.325 1633.48 862.43 1806.08C886.985 1857.97 909.237 1906.79 911.539 1914.86C915.376 1926.4 917.678 1929.09 923.817 1927.55C928.037 1926.78 939.547 1924.47 949.906 1923.32C959.882 1921.78 967.939 1919.86 967.939 1919.09C967.939 1918.32 955.661 1896.41 940.698 1870.66C910.005 1817.99 872.022 1748.42 873.94 1748.42C876.242 1748.42 946.837 1854.9 969.857 1892.57L992.877 1931.01L975.612 1931.39C943.768 1932.16 909.621 1943.31 896.576 1957.53L884.299 1970.22L881.997 1956.38C880.079 1942.54 855.907 1873.35 818.308 1773.4C751.55 1595.42 754.235 1608.87 778.023 1558.52C793.37 1526.23 797.59 1523.15 837.491 1511.62C862.43 1504.7 866.65 1505.08 876.626 1515.08ZM2013.44 1519.69C2024.18 1522.38 2029.17 1524.69 2024.95 1525.07C2020.72 1525.07 2008.83 1522.77 1998.09 1520.08C1973.92 1513.16 1987.35 1512.77 2013.44 1519.69ZM1677.73 1566.21C1671.2 1620.79 1661.61 1683.45 1659.69 1681.53C1657.77 1679.99 1673.12 1546.22 1676.19 1535.84C1681.18 1520.46 1681.56 1533.92 1677.73 1566.21ZM1144.43 1552.75C1150.18 1563.51 1146.34 1561.59 1138.67 1550.06C1135.22 1544.29 1134.07 1541.22 1136.37 1542.37C1138.67 1543.91 1142.51 1548.52 1144.43 1552.75ZM1288.3 1564.28C1295.98 1571.2 1304.03 1580.04 1306.33 1584.66C1309.79 1591.58 1309.02 1591.19 1299.43 1582.74C1293.29 1576.97 1283.7 1569.67 1277.94 1565.82C1267.2 1559.29 1263.75 1552.37 1271.04 1552.37C1272.96 1552.37 1280.63 1557.75 1288.3 1564.28ZM2035.69 1555.06C2033 1555.83 2028.4 1555.83 2026.1 1555.06C2023.41 1553.9 2025.33 1553.14 2030.7 1553.14C2036.07 1553.14 2037.99 1553.9 2035.69 1555.06ZM1958.95 1583.12C1956.65 1593.5 1950.13 1603.49 1947.44 1600.8C1946.68 1600.03 1947.83 1591.19 1950.51 1581.2C1953.58 1569.28 1955.88 1565.05 1958.19 1568.51C1959.72 1571.2 1960.11 1577.74 1958.95 1583.12ZM800.659 1613.49C804.112 1619.64 806.798 1626.56 806.798 1628.1C806.031 1638.09 787.998 1594.27 788.382 1583.12V1569.67L791.451 1585.81C793.37 1594.65 797.59 1606.95 800.659 1613.49ZM2042.98 1585.81C2038.76 1589.65 2028.01 1606.57 2019.19 1623.48C1996.17 1668.46 1883.76 1825.3 1878.38 1819.92C1877.23 1818.76 1893.73 1794.16 1914.83 1764.94C1935.93 1735.73 1960.87 1699.6 1970.46 1684.6C1991.95 1651.54 2023.41 1590.04 2020.34 1586.96C2018.04 1584.66 1991.18 1614.64 1977.37 1635.4C1972 1643.86 1962.79 1656.16 1957.04 1662.31C1951.28 1668.46 1924.42 1698.83 1897.57 1729.96C1870.71 1761.49 1847.69 1786.86 1846.54 1786.86C1845.39 1786.86 1841.94 1782.63 1838.1 1778.01C1831.96 1769.17 1832.34 1768.4 1861.5 1738.42C1903.32 1695.37 1936.7 1655.77 1967.01 1614.64L1993.1 1579.28H2021.88C2049.88 1579.28 2050.65 1579.66 2042.98 1585.81ZM2076.36 1620.79C2059.48 1651.54 2031.85 1694.6 2028.78 1694.6C2027.63 1694.6 2031.08 1688.06 2036.07 1679.99C2041.06 1671.92 2052.57 1650.78 2061.39 1633.09C2081.34 1593.11 2089.4 1580.81 2091.32 1586.58C2092.09 1588.89 2085.56 1604.26 2076.36 1620.79ZM1818.53 1610.8C1817.38 1613.49 1816.61 1611.57 1816.61 1606.18C1816.61 1600.8 1817.38 1598.88 1818.53 1601.19C1819.3 1603.88 1819.3 1608.49 1818.53 1610.8ZM1439.85 1634.63C1433.33 1651.93 1417.6 1681.14 1410.69 1689.6C1406.47 1693.83 1384.6 1704.59 1361.97 1713.43C1319 1729.58 1309.4 1731.89 1309.4 1725.35C1309.4 1723.04 1310.94 1721.51 1312.86 1721.51C1319.76 1721.51 1384.22 1675.76 1412.99 1650.78C1428.72 1636.94 1442.15 1625.4 1442.54 1625.4C1442.92 1625.4 1441.77 1629.63 1439.85 1634.63ZM3237.34 1640.4C3251.15 1643.47 3250 1643.86 3225.06 1644.24C3201.27 1644.62 3197.05 1645.78 3197.05 1651.16C3197.05 1659.62 3213.93 1726.5 3220.07 1742.26C3222.37 1748.42 3223.53 1754.18 3222.37 1754.95C3218.92 1758.41 3196.29 1680.76 3194.37 1658.85L3192.06 1636.94L3207.03 1637.32C3215.47 1637.32 3228.9 1638.86 3237.34 1640.4ZM3076.2 1654.24C3126.84 1657.31 3169.43 1660 3171.35 1660C3172.88 1660 3174.03 1662.69 3174.03 1666.54C3174.03 1672.3 3167.89 1672.69 3108.04 1670.38C3071.59 1668.84 3021.72 1665.77 2997.54 1663.46C2972.61 1661.15 2883.98 1659.23 2794.58 1659.62C2699.43 1659.62 2636.9 1658.46 2639.2 1656.16C2644.57 1650.78 2669.89 1650.01 2832.57 1649.24C2929.64 1648.85 3017.11 1650.78 3076.2 1654.24ZM1551.11 1659.23C1551.11 1661.15 1547.66 1665.77 1543.44 1669.61C1539.22 1673.46 1535.77 1678.07 1535.77 1679.99C1535.77 1686.14 1546.51 1683.07 1551.5 1674.99C1556.1 1668.07 1557.64 1668.07 1564.16 1672.69C1575.67 1681.14 1569.91 1697.29 1554.18 1700.36C1544.21 1702.67 1540.76 1701.52 1535 1694.6C1525.79 1683.45 1526.18 1675.76 1536.54 1665C1544.98 1655.77 1551.11 1653.47 1551.11 1659.23ZM1019.35 1713.43C1025.11 1726.89 1030.09 1746.11 1031.24 1760.33L1033.16 1784.93L1025.87 1758.03C1021.65 1743.03 1013.98 1719.97 1008.61 1706.51C996.33 1676.53 1005.15 1682.3 1019.35 1713.43ZM1657.39 1699.21C1656.24 1702.29 1655.09 1701.13 1655.09 1696.9C1654.71 1692.68 1655.86 1690.37 1657.01 1691.91C1658.16 1693.06 1658.54 1696.52 1657.39 1699.21ZM2567.84 1712.28C2580.88 1716.12 2650.32 1828.76 2643.8 1835.29C2642.65 1836.44 2633.44 1826.45 2623.08 1813C2580.5 1756.87 2544.43 1721.51 2517.19 1709.97C2510.67 1706.9 2515.66 1706.51 2535.22 1708.05C2550.19 1709.59 2564.77 1711.13 2567.84 1712.28ZM2847.15 1709.59C2850.98 1711.9 2851.75 1718.05 2849.83 1734.19L2847.15 1755.72L2804.18 1734.19C2766.58 1714.97 2762.74 1712.28 2771.18 1709.59C2784.61 1705.75 2841.01 1705.75 2847.15 1709.59ZM1575.29 1767.25C1597.92 1787.24 1615.57 1804.15 1614.42 1805.31C1611.73 1808 1597.92 1797.62 1563.78 1767.25C1533.47 1740.34 1507.76 1711.13 1526.18 1725.35C1530.4 1728.43 1552.27 1747.26 1575.29 1767.25ZM2675.65 1765.71C2690.23 1774.94 2702.12 1785.32 2702.12 1788.39C2702.12 1791.85 2699.82 1793.39 2696.75 1792.24C2692.53 1790.7 2691.76 1792.24 2693.3 1798.39C2695.21 1806.08 2694.83 1806.46 2687.92 1803C2683.7 1800.69 2677.18 1794.16 2673.73 1788.78C2669.89 1783.01 2661.07 1771.86 2653.39 1763.41C2635.75 1743.8 2642.65 1744.57 2675.65 1765.71ZM1457.12 1784.93C1419.13 1794.16 1383.07 1803.39 1376.93 1805.31L1365.42 1808.38L1379.23 1816.84C1396.11 1827.22 1395.73 1827.22 1419.13 1816.07C1446.76 1802.62 1496.25 1788.01 1522.34 1785.32C1543.82 1783.01 1541.52 1784.17 1487.81 1803.39C1456.35 1814.92 1425.27 1826.07 1418.75 1828.76L1407.24 1833.37L1416.83 1840.67C1433.33 1853.74 1437.93 1852.97 1478.22 1832.99C1525.03 1809.15 1544.21 1802.23 1560.32 1802.62C1573.75 1803 1574.52 1802.62 1492.8 1839.14C1469.78 1849.13 1451.36 1858.36 1451.36 1859.89C1451.36 1861.05 1460.57 1867.2 1471.7 1873.35L1492.41 1884.5L1504.31 1875.65C1518.12 1866.04 1587.18 1832.99 1593.7 1832.99C1603.68 1832.99 1587.95 1843.75 1545.74 1865.66C1521.19 1878.35 1501.24 1889.88 1501.24 1891.03C1501.24 1893.72 1535 1918.71 1543.06 1921.78C1545.74 1922.94 1552.27 1920.25 1556.87 1916.02C1568.76 1904.87 1627.08 1874.5 1632.45 1876.04C1635.14 1877.19 1620.94 1887.57 1600.99 1899.49C1581.04 1911.4 1562.24 1922.55 1559.17 1924.86C1554.57 1927.55 1555.72 1930.24 1564.93 1938.31C1571.07 1943.69 1581.42 1950.61 1587.56 1954.07C1599.07 1960.22 1599.46 1960.22 1631.3 1941C1674.27 1914.86 1679.26 1916.02 1640.13 1942.93C1622.48 1954.84 1609.05 1965.99 1609.43 1967.53C1611.35 1972.91 1653.94 2005.97 1658.54 2005.97C1661.23 2005.97 1667.75 2002.89 1673.12 1999.05C1698.83 1980.98 1700.36 1984.06 1675.42 2003.28L1657.77 2017.12L1571.07 1958.69C1523.11 1926.4 1458.27 1883.73 1426.42 1863.74C1355.44 1819.53 1312.09 1785.7 1322.45 1783.78C1326.67 1783.01 1336.26 1784.17 1343.93 1786.86C1355.83 1790.7 1367.72 1789.93 1424.89 1779.94C1525.79 1762.64 1539.99 1764.94 1457.12 1784.93ZM2684.47 1824.14C2687.92 1833.75 2689.84 1842.6 2689.08 1843.36C2686.77 1845.67 2674.11 1826.45 2658.38 1796.47L2643.8 1769.56L2661.07 1787.62C2671.04 1798 2681.02 1813.76 2684.47 1824.14ZM1846.54 1820.68C1861.5 1837.21 1877.62 1856.43 1882.22 1863.74L1890.28 1876.42L1882.22 1874.5C1875.7 1872.58 1873.01 1874.89 1869.18 1884.5C1866.49 1891.03 1864.57 1898.72 1864.57 1901.03C1865.34 1911.79 1857.67 1904.87 1848.07 1885.65C1842.32 1874.89 1827.36 1849.51 1814.69 1829.53C1792.83 1795.7 1791.67 1793.39 1798.58 1788.39C1808.17 1781.47 1814.31 1785.32 1846.54 1820.68ZM1750.62 1800.69C1779.78 1809.54 1802.8 1838.75 1817.76 1887.57C1824.29 1908.33 1824.29 1909.87 1818.15 1919.48C1814.31 1925.24 1805.49 1932.16 1798.58 1935.24C1777.86 1943.69 1774.03 1941.39 1792.06 1930.62C1808.56 1920.63 1815.46 1909.48 1799.73 1918.32C1790.91 1922.94 1762.13 1925.24 1762.13 1921.4C1762.13 1920.25 1767.89 1916.79 1774.79 1914.1C1787.07 1908.71 1787.07 1908.71 1755.23 1904.1C1737.58 1901.03 1722.23 1898.33 1721.46 1897.18C1720.31 1896.41 1727.99 1893.34 1737.96 1890.65L1756.38 1886.03L1731.82 1880.65C1718.39 1877.96 1698.44 1872.58 1687.7 1869.12C1671.59 1863.74 1669.67 1862.2 1675.81 1859.51C1681.18 1857.59 1678.11 1856.43 1665.45 1856.43C1655.09 1856.05 1647.03 1854.51 1647.03 1852.21C1647.03 1847.21 1705.73 1829.14 1722.23 1829.14C1729.14 1829.14 1735.28 1827.22 1735.28 1825.3C1735.28 1822.99 1732.21 1821.45 1728.75 1821.45C1724.92 1821.45 1710.34 1818.38 1696.14 1814.92C1670.82 1808.38 1670.44 1808.38 1648.95 1817.22C1622.48 1828.37 1617.87 1825.3 1640.13 1811.84C1648.95 1806.08 1660.08 1799.16 1664.3 1796.08C1673.5 1789.55 1721.85 1792.24 1750.62 1800.69ZM1035.08 1852.21C1077.28 1897.95 1116.8 1952.54 1107.21 1951.77C1103.76 1951.77 1058.87 1897.95 1017.05 1842.98C986.355 1803 975.996 1783.78 1001.32 1814.15C1009.37 1823.38 1024.34 1840.67 1035.08 1852.21ZM2130.45 1834.52C2130.45 1836.83 2056.79 1897.18 2031.85 1915.25C2008.06 1932.16 2004.23 1926.01 2026.1 1905.64C2059.09 1874.12 2130.45 1825.68 2130.45 1834.52ZM2674.5 1857.2C2707.88 1867.2 2721.3 1875.65 2721.3 1887.19C2721.3 1900.64 2698.28 1903.72 2595.08 1904.1H2497.62L2478.06 1923.71C2467.31 1934.08 2448.9 1950.61 2437.39 1959.84C2425.88 1969.07 2402.86 1988.67 2386.36 2003.28C2362.96 2024.04 2355.28 2029.03 2351.83 2025.57C2348.38 2021.73 2351.06 2017.5 2364.49 2005.58C2416.29 1959.46 2450.05 1932.93 2456.57 1932.93C2462.71 1932.93 2463.48 1931.01 2461.56 1920.25C2460.41 1911.4 2461.56 1906.02 2465.78 1902.56C2469.23 1899.87 2471.92 1892.57 2471.92 1886.8C2471.92 1870.27 2493.4 1856.43 2531 1848.36C2560.55 1841.83 2639.58 1846.82 2674.5 1857.2ZM1368.87 1870.66C1366.57 1872.58 1336.26 1886.8 1300.58 1902.18C1239.19 1929.09 1220.01 1939.85 1255.69 1927.17C1279.48 1918.71 1381.53 1891.8 1398.8 1889.49C1406.47 1888.34 1412.99 1888.72 1412.99 1890.26C1412.99 1892.95 1154.02 1979.06 1145.58 1979.06C1139.44 1979.06 1131.77 1964.84 1134.83 1959.84C1140.97 1949.85 1248.02 1902.95 1315.16 1880.65C1351.99 1868.35 1376.55 1863.74 1368.87 1870.66ZM1470.54 1919.48C1470.54 1925.63 1200.06 2015.19 1191.23 2011.74C1185.86 2009.43 1186.25 2008.28 1194.69 2004.05C1208.5 1996.74 1320.91 1959.84 1400.33 1936.78C1467.47 1917.17 1470.54 1916.4 1470.54 1919.48ZM781.476 1929.86L816.39 1938.31L776.104 1944.85C618.033 1971.37 420.06 2105.53 311.098 2259.68C297.67 2278.51 285.393 2293.89 283.474 2294.28C281.556 2294.28 281.172 2280.82 281.94 2264.29C284.625 2230.46 301.89 2173.57 326.445 2120.91C346.012 2078.24 388.983 2014.81 405.864 2003.28C449.219 1973.68 539.381 1938.31 598.082 1927.55C614.964 1924.47 654.482 1921.78 687.477 1921.78C735.436 1921.4 752.701 1922.94 781.476 1929.86ZM2708.26 1947.15C2699.82 1951.38 2683.32 1953.31 2646.87 1954.46L2596.61 1955.61L2640.35 1951.77C2664.52 1949.85 2689.46 1946.77 2695.98 1944.85C2714.78 1939.47 2720.54 1940.24 2708.26 1947.15ZM1500.47 1967.91C1482.44 1978.29 1287.15 2038.64 1283.31 2035.18C1281.4 2032.88 1492.03 1964.84 1503.16 1964.07C1505.46 1964.07 1503.92 1965.61 1500.47 1967.91ZM1057.72 1971.76C1069.61 1973.68 1086.88 1979.06 1095.7 1983.29C1104.52 1987.52 1108.36 1989.82 1104.14 1988.29C1054.26 1972.91 1017.82 1972.14 975.612 1984.44C966.404 1987.52 966.404 1987.13 974.077 1981.75C991.726 1968.3 1021.27 1964.84 1057.72 1971.76ZM2132.37 1984.83C2183.02 1993.67 2249.01 2023.27 2286.61 2054.4C2326.51 2087.46 2361.42 2149.35 2377.92 2217.78C2383.29 2239.69 2387.51 2260.06 2387.51 2263.14C2387.51 2266.21 2379.84 2252.76 2370.25 2233.54C2347.61 2186.64 2327.66 2157.81 2296.97 2127.44C2242.87 2073.62 2185.7 2065.17 2131.6 2102.46C2112.81 2115.53 2089.79 2144.36 2070.6 2179.72C2055.64 2206.25 2056.79 2195.87 2071.75 2166.27C2076.74 2155.89 2080.19 2146.66 2079.04 2145.51C2077.89 2144.36 2056.79 2158.19 2031.85 2175.88C1986.58 2208.94 1804.34 2330.03 1775.56 2346.94C1756.38 2358.09 1757.91 2358.09 1803.95 2346.17C1861.89 2331.56 1957.8 2309.65 1962.79 2310.04C1976.6 2310.81 1855.75 2354.63 1670.82 2415.36L1546.89 2456.11L1561.47 2466.88C1569.53 2472.64 1584.49 2486.86 1594.85 2498.4L1613.27 2519.15L1677.34 2502.24C1784 2474.18 1978.52 2424.97 1982.74 2424.97C1990.42 2425.36 1973.15 2432.66 1917.52 2453.04C1853.06 2476.49 1705.73 2524.92 1675.04 2532.99C1663.91 2535.68 1654.71 2539.14 1654.71 2541.07C1654.71 2547.6 1766.35 2688.68 1781.32 2700.6C1793.98 2710.97 1900.64 2739.42 1952.43 2746.34L1972 2748.65L1966.63 2722.51C1959.72 2690.99 1962.02 2648.32 1973.53 2569.13C1981.97 2512.24 1987.35 2494.55 1983.13 2536.45C1981.97 2550.29 1979.67 2604.88 1978.14 2657.93L1975.84 2754.41L1912.15 2766.33C1770.19 2793.24 1703.81 2802.08 1579.12 2811.31C1466.71 2819.38 1464.41 2818.99 1516.58 2803.23C1540.76 2795.54 1568 2789.78 1576.82 2789.78C1589.1 2789.78 1597.92 2786.32 1615.57 2774.4C1628.23 2766.33 1639.74 2756.72 1640.89 2753.26C1642.43 2749.42 1631.69 2731.73 1611.35 2704.44C1593.7 2680.61 1558.02 2631.4 1532.31 2594.88C1506.23 2558.36 1480.52 2524.92 1474.76 2520.31L1464.79 2512.24L1476.3 2514.93C1493.95 2518.77 1517.74 2546.83 1607.51 2668.69C1624.4 2691.37 1643.96 2719.82 1650.87 2731.35L1663.53 2752.11L1648.57 2767.48C1640.51 2776.32 1626.31 2787.47 1617.49 2792.85C1608.28 2798.24 1600.99 2802.85 1600.99 2803.62C1600.99 2805.54 1624.4 2802.08 1667.75 2793.62C1688.47 2789.78 1710.34 2785.93 1715.71 2785.55C1721.08 2785.17 1711.87 2784.01 1694.99 2782.86L1664.3 2780.55L1687.32 2767.1C1699.98 2759.79 1713.41 2752.49 1717.24 2750.95C1721.46 2749.03 1723 2745.96 1721.46 2743.27C1712.64 2727.89 1632.84 2616.03 1601.76 2574.89C1556.49 2514.93 1538.07 2495.71 1520.8 2489.56C1500.09 2482.25 1440.62 2484.56 1264.9 2498.4C1177.42 2504.93 1104.91 2509.54 1103.37 2508.01C1100.3 2505.32 1107.98 2383.07 1111.43 2380C1112.58 2378.85 1128.7 2376.54 1147.11 2374.62C1165.53 2372.7 1190.08 2369.24 1201.21 2366.93C1212.72 2364.62 1222.31 2363.47 1223.08 2364.24C1223.46 2364.62 1222.69 2375.77 1220.78 2388.07C1215.02 2430.36 1224.61 2434.58 1318.61 2431.51C1401.48 2429.2 1465.94 2419.98 1491.65 2407.68C1502.39 2402.68 1524.64 2387.3 1541.52 2374.23C1613.65 2316.96 1783.23 2188.95 1848.46 2142.43C1893.35 2110.53 1907.93 2098.61 1907.93 2094C1907.93 2089 1883.76 2083.24 1850.38 2080.93C1818.92 2078.62 1816.23 2079.01 1783.62 2092.46C1765.2 2100.15 1749.09 2105.53 1748.32 2104.76C1746.4 2102.84 1837.33 2061.71 1861.5 2053.64C1879.15 2047.87 1885.29 2047.87 1906.78 2051.71C1920.59 2054.4 1947.44 2062.09 1967.01 2069.4C2009.6 2085.54 2019.96 2086.31 2030.32 2072.86C2040.29 2060.17 2040.29 2053.25 2030.32 2015.58C2024.18 1991.36 2023.41 1984.83 2027.63 1982.52C2035.69 1977.14 2096.31 1978.68 2132.37 1984.83ZM1098.39 1994.05C1115.65 1998.28 1137.52 2004.82 1147.5 2008.66L1165.53 2015.58L1150.18 2017.89C1141.74 2019.42 1115.27 2024.81 1091.1 2030.57L1047.36 2040.57L1003.24 2032.88C979.065 2028.65 943.384 2024.81 924.2 2024.81C893.891 2024.42 891.589 2023.65 906.552 2020.96C930.339 2016.73 971.008 2016.73 993.261 2020.96C1026.26 2027.11 1074.21 2030.19 1067.69 2025.57C1063.47 2022.5 1067.69 2021.35 1084.96 2020.96C1097.62 2020.58 1102.99 2019.42 1096.47 2018.65C1090.33 2017.89 1071.15 2014.04 1054.26 2010.2C1037.38 2005.97 1017.05 2001.74 1009.37 2000.2C990.191 1997.13 990.959 1992.13 1011.29 1987.13C1031.24 1982.52 1058.1 1984.44 1098.39 1994.05ZM369.416 2033.65C359.824 2042.1 340.257 2058.25 325.294 2069.4C290.764 2095.54 220.169 2168.96 192.161 2207.78C160.7 2252.76 132.693 2298.5 130.007 2310.42C126.938 2324.26 141.901 2341.56 164.153 2350.01C196.765 2362.7 220.936 2349.63 248.56 2305.81C256.617 2293.12 263.907 2282.74 264.674 2282.74C265.825 2282.74 265.442 2291.97 264.291 2303.12L261.605 2323.49L362.51 2343.48C522.5 2375 539.765 2377.69 554.344 2371.16C570.458 2364.62 592.327 2365.39 648.727 2375C673.281 2379.23 720.089 2384.23 752.701 2386.15C784.929 2388.46 812.169 2390.76 812.937 2391.53C813.704 2392.3 813.32 2423.44 812.169 2460.72L809.484 2528.77L753.468 2528.38C722.775 2528.38 659.469 2526.84 613.045 2525.31C529.789 2522.23 527.487 2521.85 445.382 2502.63C364.812 2483.4 329.898 2474.18 256.234 2453.04C220.169 2442.66 80.5136 2393.07 69.3872 2386.53C54.0405 2378.08 54.8078 2382.31 77.8279 2449.96C98.1624 2509.93 105.452 2540.68 100.848 2548.37C98.1624 2552.21 70.5382 2471.87 56.3425 2419.21C47.1345 2386.15 48.6692 2380.77 75.1423 2350.01C88.187 2334.64 114.276 2300.81 133.46 2274.67C187.557 2199.71 223.238 2157.43 270.046 2111.3C308.413 2074.39 377.857 2017.12 384.379 2017.5C385.53 2017.89 379.008 2024.81 369.416 2033.65ZM921.898 2036.72C939.931 2039.03 971.775 2045.18 992.877 2050.56C1024.72 2059.02 1036.62 2060.17 1063.86 2058.63C1081.89 2057.48 1099.92 2055.56 1104.14 2054.4C1108.36 2052.87 1106.44 2054.4 1099.54 2057.86C1093.01 2060.94 1076.13 2065.17 1062.32 2067.47C1036.23 2071.7 1031.24 2070.93 958.347 2054.02C921.131 2045.18 837.108 2042.1 799.892 2048.25C747.713 2056.33 722.391 2071.7 722.391 2094.77C722.391 2117.06 750.399 2137.44 810.251 2158.19C852.838 2173.19 848.234 2175.88 804.112 2161.65C764.211 2149.35 726.611 2126.29 717.02 2108.99C710.497 2097.07 710.113 2094 714.718 2083.24C729.681 2046.72 826.365 2025.19 921.898 2036.72ZM1210.42 2062.86C1213.87 2066.32 1209.65 2067.47 1192 2067.47C1149.41 2067.47 1060.02 2099.76 1054.26 2117.06C1053.11 2121.29 1052.73 2126.67 1053.88 2128.6C1055.03 2130.13 1049.66 2132.82 1041.6 2134.36C1018.58 2138.21 1015.13 2137.05 1027.41 2129.75C1033.93 2125.9 1041.6 2117.83 1044.67 2111.68C1051.19 2099.38 1107.98 2070.55 1144.43 2061.71C1168.21 2055.56 1203.89 2056.33 1210.42 2062.86ZM3217.77 2065.17C3267.65 2103.22 3292.59 2284.67 3266.11 2417.29C3243.48 2531.07 3188.23 2556.83 3146.79 2473.03C3129.14 2436.51 3120.32 2387.3 3117.63 2305.81C3114.56 2210.09 3123.39 2143.59 3146.02 2095.54C3163.67 2057.48 3192.06 2045.56 3217.77 2065.17ZM1624.01 2076.7C1624.01 2078.62 1546.51 2111.3 1509.29 2125.14C1300.96 2201.25 1180.11 2242.76 1176.65 2239.31C1171.67 2234.69 1518.89 2104.38 1593.32 2082.85C1620.17 2075.16 1624.01 2074.39 1624.01 2076.7ZM308.029 2113.6C308.029 2121.29 306.111 2125.14 302.274 2125.14C291.915 2125.14 270.813 2147.82 258.919 2172.03C243.189 2203.94 219.785 2275.06 220.169 2288.89C220.169 2295.04 221.32 2297.74 222.471 2295.04C224.389 2290.05 238.969 2288.51 238.969 2293.12C238.585 2299.27 224.006 2313.5 218.251 2313.5C207.508 2313.5 196.765 2298.89 196.765 2285.05C196.765 2246.61 252.781 2144.74 292.299 2110.91C305.727 2099.38 308.029 2099.76 308.029 2113.6ZM1847.69 2108.61C1840.78 2109.38 1829.27 2109.38 1822.75 2108.61C1815.85 2107.84 1821.22 2107.07 1835.03 2107.07C1848.84 2107.07 1854.21 2107.84 1847.69 2108.61ZM1301.73 2121.68C1253.39 2144.36 1158.24 2167.81 1119.87 2167.04C1108.74 2167.04 1115.65 2164.73 1142.51 2160.12C1189.32 2151.66 1243.8 2137.05 1284.47 2122.06C1324.37 2107.45 1333.57 2107.07 1301.73 2121.68ZM1798.58 2127.83C1805.87 2131.29 1811.63 2135.9 1810.86 2138.21C1808.56 2145.51 1790.52 2147.43 1777.1 2141.67L1764.05 2136.28L1773.26 2128.6C1784 2119.75 1781.7 2119.75 1798.58 2127.83ZM1765.97 2171.65C1765.97 2176.26 1754.08 2182.03 1747.17 2180.49C1716.48 2174.72 1714.56 2172.8 1727.6 2159.73L1735.66 2151.66L1750.62 2160.12C1759.06 2165.11 1765.97 2170.11 1765.97 2171.65ZM1662.38 2158.19C1662.38 2160.5 1558.79 2210.86 1520.42 2227C1506.61 2232.77 1487.43 2241.61 1477.45 2246.61C1467.09 2251.99 1459.03 2254.3 1459.03 2252.76C1459.03 2248.92 1553.8 2202.4 1618.26 2174.34C1665.06 2153.97 1662.38 2155.12 1662.38 2158.19ZM2240.18 2183.18C2289.68 2207.01 2333.41 2282.74 2352.98 2378.08C2364.11 2433.05 2370.25 2536.84 2364.88 2579.12C2346.46 2724.43 2279.7 2820.92 2197.6 2820.92C2179.56 2820.92 2176.11 2821.68 2179.95 2825.53C2188.77 2834.75 2230.59 2831.29 2254.38 2819.38C2320.75 2787.09 2364.49 2693.29 2376.39 2556.44C2389.05 2409.6 2356.43 2278.13 2284.3 2184.33C2280.85 2180.11 2287.76 2186.26 2299.65 2198.56C2325.36 2225.47 2339.94 2252.38 2357.97 2305.81C2377.92 2365.78 2384.44 2408.83 2386.36 2492.63C2388.66 2574.89 2382.91 2625.64 2365.64 2680.61C2328.43 2798.24 2249.39 2860.51 2170.74 2833.6C2157.69 2829.37 2145.42 2820.53 2128.92 2803.62C2090.55 2764.79 2064.08 2702.52 2049.12 2615.26C2038.37 2551.83 2040.68 2435.74 2053.72 2375C2069.07 2302.35 2092.09 2250.84 2125.08 2213.93C2163.07 2171.65 2197.6 2162.42 2240.18 2183.18ZM1466.71 2202.79C1446.76 2213.93 1373.48 2250.07 1304.03 2283.9C1180.87 2343.48 1158.62 2351.94 1123.71 2351.94H1112.58L1114.88 2328.49C1116.03 2315.42 1118.34 2303.5 1120.26 2301.96C1129.46 2293.12 1477.07 2183.57 1497.4 2183.18C1500.47 2183.18 1486.66 2192.02 1466.71 2202.79ZM1700.75 2194.33C1718.39 2203.56 1719.93 2208.55 1706.5 2213.55C1694.22 2218.16 1673.89 2214.32 1673.89 2207.01C1673.89 2200.86 1680.79 2186.64 1683.86 2186.64C1685.01 2186.64 1692.69 2190.1 1700.75 2194.33ZM1037 2210.47C1053.5 2231.23 1069.61 2259.29 1066.54 2261.99C1064.62 2263.91 1013.98 2197.02 1013.98 2192.79C1013.98 2185.87 1023.19 2192.79 1037 2210.47ZM952.592 2326.95C957.196 2362.7 966.788 2434.58 974.077 2486.1C981.367 2537.61 986.738 2580.28 985.971 2581.04C981.367 2585.66 937.629 2279.28 935.327 2227L933.792 2192.41L938.78 2227C941.849 2245.84 947.988 2290.82 952.592 2326.95ZM865.883 2207.78C869.72 2218.16 875.475 2474.18 876.626 2699.83L877.777 2922.78L853.989 2923.94C832.887 2925.09 829.818 2924.32 829.818 2918.17C829.818 2914.33 831.736 2879.35 833.655 2840.14C841.712 2680.22 856.291 2288.51 856.675 2208.55C856.675 2200.48 862.814 2199.71 865.883 2207.78ZM891.205 2209.71C891.205 2229.31 914.225 2512.62 923.817 2615.26C939.931 2781.71 948.755 2926.24 943 2920.09C940.315 2917.4 927.654 2800.93 918.445 2694.06C914.225 2644.47 908.086 2574.13 905.017 2538.38C896.96 2449.19 888.136 2322.72 885.066 2256.6C883.148 2216.63 883.532 2202.02 886.985 2202.02C889.287 2202.02 891.205 2205.48 891.205 2209.71ZM1653.94 2228.93C1668.9 2238.15 1668.9 2248.53 1654.71 2251.99C1642.43 2255.07 1624.01 2248.92 1624.01 2241.61C1624.01 2233.15 1631.3 2221.24 1636.67 2221.24C1639.36 2221.24 1647.03 2224.7 1653.94 2228.93ZM273.499 2242C273.499 2251.22 264.674 2263.52 258.152 2263.52C248.944 2263.52 248.56 2260.45 256.617 2248.92C261.605 2241.61 273.499 2237 273.499 2242ZM816.39 2316.19L813.704 2367.31H793.753C782.627 2367.31 755.003 2366.16 732.366 2364.62L691.314 2362.32L702.056 2350.78C707.811 2344.63 736.203 2319.65 764.594 2295.43C804.88 2261.22 816.773 2252.76 817.924 2258.14C818.692 2261.99 817.924 2288.13 816.39 2316.19ZM1615.19 2273.52C1616.34 2276.59 1615.19 2281.59 1612.5 2284.67C1607.51 2290.43 1602.14 2290.05 1581.04 2281.97C1570.68 2278.13 1570.68 2278.13 1576.82 2265.45L1582.96 2252.38L1597.92 2260.06C1605.98 2264.29 1614.04 2270.44 1615.19 2273.52ZM1509.29 2286.2C1499.7 2303.5 1447.14 2345.02 1441.39 2339.25C1440.23 2338.1 1443.3 2326.18 1448.68 2312.73L1458.65 2288.51H1477.83C1488.58 2288.13 1499.32 2286.2 1502.01 2283.51C1508.91 2276.59 1513.52 2278.13 1509.29 2286.2ZM2857.89 2307.35C2852.52 2320.8 2847.91 2336.18 2847.91 2341.56C2847.91 2346.56 2838.71 2366.16 2827.58 2385C2803.79 2424.59 2807.25 2422.28 2717.08 2455.34C2682.55 2468.03 2616.18 2492.25 2569.75 2509.54C2475.37 2544.53 2397.87 2571.05 2395.95 2569.13C2393.27 2566.44 2409.76 2559.9 2483.81 2532.22C2718.23 2445.35 2785.38 2419.98 2792.67 2415.36C2800.34 2410.37 2841.39 2348.09 2838.71 2345.4C2837.94 2344.63 2826.43 2349.25 2813 2355.4C2776.55 2372.31 2550.19 2473.03 2521.8 2484.94C2482.28 2501.86 2534.07 2472.64 2730.13 2367.31C2833.33 2311.96 2856.35 2298.12 2859.81 2289.28C2862.11 2283.51 2865.18 2279.28 2865.95 2280.44C2867.1 2281.59 2863.26 2293.51 2857.89 2307.35ZM3062.77 2284.67C3026.32 2293.12 2934.62 2309.65 2922.73 2310.04C2916.59 2310.04 2930.02 2313.88 2953.42 2317.72C2976.44 2321.95 3010.97 2329.64 3030.16 2334.64C3061.23 2343.1 3062.77 2343.86 3044.74 2342.33C3033.61 2341.56 3024.4 2341.56 3024.4 2342.33C3024.4 2343.48 3032.46 2348.48 3042.82 2353.47C3052.79 2358.47 3064.69 2366.93 3069.67 2372.31L3078.5 2381.54L3034.76 2388.46L2991.02 2395.38L2937.69 2368.47C2908.15 2353.86 2878.61 2339.64 2871.7 2337.33C2860.57 2333.49 2859.42 2331.56 2861.73 2324.26C2869.4 2298.89 2870.17 2298.12 2887.05 2298.12C2896.26 2297.74 2938.08 2293.51 2980.28 2288.89C3068.91 2278.13 3095.76 2276.98 3062.77 2284.67ZM1386.14 2329.64C1378.08 2351.55 1372.33 2370.39 1373.09 2371.93C1375.78 2376.15 1408.01 2375.77 1434.1 2370.77C1455.58 2366.93 1478.98 2356.55 1501.24 2341.56C1506.61 2338.1 1502.39 2343.48 1491.65 2353.47C1467.86 2375.77 1439.08 2390.38 1411.08 2393.07C1387.67 2395.38 1355.83 2388.46 1352.76 2380C1350.84 2375.77 1349.31 2375.77 1343.93 2380.77C1336.26 2387.69 1292.14 2403.45 1268.73 2408.06L1254.16 2410.75L1260.29 2401.53C1264.13 2396.53 1276.79 2377.31 1289.07 2358.86C1313.24 2322.34 1307.1 2326.57 1380.38 2298.5C1391.12 2294.66 1399.95 2291.2 1399.95 2290.82C1400.33 2290.43 1393.81 2308.11 1386.14 2329.64ZM1559.94 2303.5L1574.52 2312.73L1564.16 2320.8C1558.4 2325.41 1551.11 2328.1 1548.05 2326.95C1545.36 2325.8 1541.14 2325.03 1539.6 2325.03C1533.85 2325.03 1528.48 2311.19 1530.78 2302.73C1533.47 2291.97 1541.52 2292.35 1559.94 2303.5ZM205.206 2333.87C213.647 2335.41 213.647 2335.41 204.055 2336.18C194.847 2336.56 162.235 2316.19 162.235 2310.04C162.235 2301.96 167.99 2303.89 181.418 2317.34C189.475 2325.41 200.218 2332.72 205.206 2333.87ZM187.941 2344.25C190.626 2344.25 192.928 2345.79 192.928 2348.09C192.928 2350.4 189.092 2350.4 182.569 2347.71C167.223 2341.94 146.888 2328.87 146.888 2324.64C146.888 2322.72 154.945 2326.57 164.921 2332.72C174.896 2339.25 185.255 2344.25 187.941 2344.25ZM1501.24 2375C1491.65 2388.46 1472.46 2403.83 1460.57 2407.29C1440.23 2413.44 1353.14 2421.13 1307.49 2420.75L1257.61 2419.98L1328.59 2414.98C1442.92 2407.29 1464.02 2402.29 1491.65 2377.69C1510.45 2360.78 1511.6 2360.39 1501.24 2375ZM2859.42 2470.72C2868.25 2473.41 2867.86 2474.18 2849.83 2482.25C2839.47 2486.86 2817.99 2495.32 2802.64 2500.7C2787.29 2506.08 2775.4 2511.08 2775.78 2511.85C2776.55 2512.24 2794.97 2507.62 2817.22 2501.09C2869.4 2486.1 2883.21 2482.64 2890.12 2483.02C2893.19 2483.02 2888.2 2485.71 2878.61 2489.17C2869.02 2492.25 2828.73 2506.85 2788.45 2521.08C2722.07 2544.91 2583.18 2587.96 2580.88 2585.27C2580.11 2584.5 2591.24 2579.12 2605.44 2573.36C2619.63 2567.21 2643.42 2555.67 2658 2547.6C2693.3 2528.77 2791.13 2483.4 2815.3 2474.56C2835.64 2467.26 2844.08 2466.49 2859.42 2470.72ZM3004.83 2476.49C2996.78 2484.56 2521.41 2622.56 2475.76 2630.25C2454.27 2633.71 2534.84 2607.18 2644.57 2574.89C2700.59 2558.36 2781.92 2534.53 2825.28 2521.46C2944.21 2486.1 3012.12 2469.18 3004.83 2476.49ZM162.619 2566.05C135.378 2624.87 127.705 2641.78 121.182 2656C119.264 2660.23 290.38 2717.13 304.96 2717.13C309.18 2717.13 341.024 2703.29 375.938 2685.99C429.268 2660.23 441.929 2655.24 455.358 2656.39C470.704 2657.54 469.17 2658.31 398.575 2695.6C359.057 2716.36 320.69 2735.19 314.168 2737.11C303.425 2740.57 288.462 2736.73 199.451 2707.52C143.052 2689.06 97.0114 2672.92 97.0114 2671.77C97.0114 2665.61 131.158 2587.2 149.574 2551.06C167.99 2514.54 186.79 2490.32 192.161 2496.09C193.312 2496.86 179.884 2528.38 162.619 2566.05ZM1383.45 2589.12C1400.72 2603.72 1422.2 2622.18 1431.41 2630.63C1441 2639.09 1450.59 2645.63 1452.9 2644.86C1455.2 2644.09 1455.96 2644.86 1454.43 2646.39C1450.21 2650.62 1459.03 2659.46 1467.09 2659.46C1471.31 2659.46 1474.76 2661 1474.76 2663.31C1476.68 2677.92 1485.51 2690.99 1492.03 2688.68C1497.4 2686.76 1535.77 2721.74 1535.77 2729.04C1535.77 2731.35 1537.3 2731.73 1539.6 2730.58C1541.91 2729.04 1542.29 2730.96 1540.76 2734.42C1538.84 2739.81 1535.77 2737.5 1523.87 2724.04C1515.82 2715.2 1509.29 2706.36 1508.91 2704.44C1508.91 2702.9 1506.99 2701.75 1504.69 2701.75C1502.77 2701.75 1508.91 2711.36 1518.89 2722.89C1528.86 2734.42 1538.84 2742.88 1540.76 2741.34C1542.67 2740.19 1543.44 2741.34 1542.67 2744.42C1541.52 2747.49 1543.06 2752.49 1545.74 2755.95C1553.03 2764.02 1543.44 2772.48 1497.4 2798.24L1460.95 2818.61L1359.28 2819.76C1303.26 2820.53 1223.08 2819.76 1180.87 2817.84C1108.36 2815.15 1105.29 2814.38 1121.41 2809.77C1154.02 2800.16 1180.87 2798.24 1324.75 2793.62C1454.43 2789.78 1470.54 2788.63 1487.04 2781.71C1497.02 2777.48 1505.07 2772.86 1505.07 2771.33C1505.07 2770.17 1496.25 2757.87 1485.89 2744.03C1475.53 2730.2 1446.76 2692.14 1421.82 2659.46C1397.26 2626.79 1370.41 2591.81 1361.97 2581.43C1353.91 2571.43 1348.15 2563.36 1349.69 2563.36C1351.22 2563.36 1366.57 2574.89 1383.45 2589.12ZM992.11 2611.41C993.644 2626.4 993.261 2630.63 991.342 2622.95C987.889 2611.03 985.971 2583.74 988.657 2586.81C989.424 2587.58 990.959 2598.73 992.11 2611.41ZM1301.73 2624.87C1301.73 2626.79 1299.81 2628.71 1297.51 2628.71C1295.59 2628.71 1294.82 2626.79 1295.98 2624.87C1297.13 2622.56 1299.04 2621.02 1300.2 2621.02C1300.96 2621.02 1301.73 2622.56 1301.73 2624.87ZM1317.08 2632.56C1317.08 2634.48 1315.16 2636.4 1312.86 2636.4C1310.94 2636.4 1310.17 2634.48 1311.32 2632.56C1312.47 2630.25 1314.39 2628.71 1315.54 2628.71C1316.31 2628.71 1317.08 2630.25 1317.08 2632.56ZM1345.85 2632.56C1347 2634.48 1346.24 2636.4 1344.32 2636.4C1342.02 2636.4 1340.1 2634.48 1340.1 2632.56C1340.1 2630.25 1340.86 2628.71 1341.63 2628.71C1342.78 2628.71 1344.7 2630.25 1345.85 2632.56ZM2982.2 2636.4C2976.44 2639.47 2862.88 2683.3 2794.2 2708.28C2659.15 2757.87 2465.01 2820.92 2343.39 2855.51C2275.86 2874.35 2255.91 2878.58 2268.57 2871.27C2279.32 2864.74 2404.39 2818.22 2468.08 2796.7C2656.08 2732.89 2968 2633.71 2982.2 2632.94C2987.19 2632.94 2987.19 2633.32 2982.2 2636.4ZM1332.42 2644.09C1332.42 2646.01 1330.89 2647.93 1328.59 2647.93C1326.67 2647.93 1324.75 2646.01 1324.75 2644.09C1324.75 2641.78 1326.67 2640.24 1328.59 2640.24C1330.89 2640.24 1332.42 2641.78 1332.42 2644.09ZM997.481 2658.31C996.33 2662.15 995.563 2659.85 995.563 2653.7C995.563 2647.16 996.33 2644.47 997.481 2646.78C998.248 2649.47 998.248 2654.85 997.481 2658.31ZM1361.58 2652.54C1363.5 2655.24 1362.35 2656 1358.13 2654.47C1354.68 2653.31 1351.22 2654.08 1350.46 2656.77C1349.69 2659.46 1347.39 2659.85 1345.47 2658.31C1343.55 2656.77 1344.7 2653.7 1347.77 2651.78C1355.44 2646.78 1358.13 2647.16 1361.58 2652.54ZM1286.38 2667.15C1286.38 2669.07 1284.85 2671 1282.55 2671C1280.63 2671 1278.71 2669.07 1278.71 2667.15C1278.71 2664.85 1280.63 2663.31 1282.55 2663.31C1284.85 2663.31 1286.38 2664.85 1286.38 2667.15ZM1001.32 2681.38C1000.17 2685.22 999.399 2682.91 999.399 2676.76C999.399 2670.23 1000.17 2667.54 1001.32 2669.84C1002.09 2672.53 1002.09 2677.92 1001.32 2681.38ZM1246.1 2671C1247.25 2673.3 1245.71 2673.69 1242.65 2672.53C1235.74 2669.84 1234.59 2667.15 1239.96 2667.15C1242.26 2667.15 1244.95 2668.69 1246.1 2671ZM1323.98 2674.07C1324.75 2676.76 1323.22 2677.92 1319.38 2676.38C1315.93 2675.22 1313.24 2672.15 1313.24 2670.23C1313.24 2665.23 1322.06 2668.31 1323.98 2674.07ZM1374.63 2672.92C1378.46 2677.53 1378.46 2678.68 1373.09 2678.68C1369.64 2678.68 1366.95 2677.15 1366.95 2675.22C1366.95 2673.3 1363.88 2670.61 1360.43 2669.84C1355.06 2668.31 1355.06 2667.92 1361.58 2667.54C1366.19 2667.54 1371.94 2669.84 1374.63 2672.92ZM1347.77 2679.07C1347.77 2680.99 1346.24 2682.53 1343.93 2682.53C1342.02 2682.53 1340.1 2679.84 1340.1 2676.38C1340.1 2673.3 1342.02 2671.77 1343.93 2672.92C1346.24 2674.07 1347.77 2676.76 1347.77 2679.07ZM1488.96 2678.68C1491.65 2682.91 1493.18 2686.37 1492.41 2686.37C1491.65 2686.37 1487.81 2682.91 1483.97 2678.68C1480.14 2674.46 1478.6 2671 1480.52 2671C1482.44 2671 1486.27 2674.46 1488.96 2678.68ZM1292.52 2685.99C1291.37 2687.91 1286.77 2688.68 1282.55 2687.53C1271.8 2684.83 1272.96 2682.53 1284.85 2682.53C1290.22 2682.53 1293.67 2684.07 1292.52 2685.99ZM1365.04 2686.37C1366.19 2688.29 1364.65 2690.22 1361.58 2690.22C1358.13 2690.22 1355.44 2688.29 1355.44 2686.37C1355.44 2684.07 1356.98 2682.53 1358.9 2682.53C1361.2 2682.53 1363.88 2684.07 1365.04 2686.37ZM1324.75 2692.52C1324.75 2693.29 1321.3 2694.06 1316.69 2694.06C1312.47 2694.06 1309.79 2692.52 1311.32 2690.22C1313.24 2687.14 1324.75 2689.06 1324.75 2692.52ZM1391.89 2698.29C1388.44 2703.67 1378.85 2697.52 1381.15 2691.75C1382.68 2687.53 1384.6 2687.14 1388.44 2690.6C1391.51 2692.91 1392.66 2696.37 1391.89 2698.29ZM1005.15 2708.28C1004 2712.13 1003.24 2709.05 1003.24 2701.75C1003.24 2694.45 1004 2691.37 1005.15 2694.83C1005.92 2698.67 1005.92 2704.82 1005.15 2708.28ZM1226.91 2697.9C1228.07 2699.83 1227.68 2701.75 1225.38 2701.75C1223.46 2701.75 1220.39 2699.83 1219.24 2697.9C1218.09 2695.6 1218.47 2694.06 1220.78 2694.06C1222.69 2694.06 1225.76 2695.6 1226.91 2697.9ZM1267.2 2695.6C1267.2 2696.75 1265.67 2698.67 1263.36 2699.83C1261.45 2700.98 1259.53 2700.21 1259.53 2698.29C1259.53 2695.98 1261.45 2694.06 1263.36 2694.06C1265.67 2694.06 1267.2 2694.83 1267.2 2695.6ZM1354.29 2696.37C1353.14 2697.52 1349.69 2697.9 1347 2696.75C1343.93 2695.6 1345.08 2694.45 1349.31 2694.45C1353.53 2694.06 1355.83 2695.21 1354.29 2696.37ZM1305.57 2701.75C1305.57 2703.67 1304.03 2705.59 1302.11 2705.59C1299.81 2705.59 1297.13 2703.67 1295.98 2701.75C1294.82 2699.44 1296.36 2697.9 1299.43 2697.9C1302.88 2697.9 1305.57 2699.44 1305.57 2701.75ZM1340.1 2701.75C1340.1 2703.67 1337.41 2705.59 1334.34 2705.59C1331.27 2705.59 1328.59 2703.67 1328.59 2701.75C1328.59 2699.44 1331.27 2697.9 1334.34 2697.9C1337.41 2697.9 1340.1 2699.44 1340.1 2701.75ZM98.9297 2709.82C100.848 2712.13 100.081 2713.28 95.8604 2713.28C83.9666 2713.28 88.9543 2719.43 107.754 2727.89C133.46 2739.42 215.181 2767.87 231.295 2770.94L244.724 2773.25L229.377 2778.25C215.181 2782.47 210.961 2781.71 164.153 2765.56C119.648 2750.18 88.187 2738.65 52.8895 2724.81L41.3794 2720.2L58.6445 2711.36C75.5259 2702.52 90.8727 2702.13 98.9297 2709.82ZM783.01 2734.04C796.439 2742.5 799.125 2745.96 799.125 2756.72C799.125 2770.94 792.986 2782.47 788.766 2776.32C786.847 2774.4 775.337 2758.64 762.292 2741.73C731.215 2700.98 730.832 2699.83 750.015 2712.9C759.223 2718.66 773.802 2728.27 783.01 2734.04ZM1368.87 2709.44C1367.72 2711.36 1365.04 2713.28 1362.73 2713.28C1360.82 2713.28 1359.28 2711.36 1359.28 2709.44C1359.28 2707.13 1361.97 2705.59 1365.42 2705.59C1368.49 2705.59 1370.02 2707.13 1368.87 2709.44ZM1232.67 2713.28C1232.67 2715.2 1231.14 2717.13 1228.83 2717.13C1226.91 2717.13 1225 2715.2 1225 2713.28C1225 2710.97 1226.91 2709.44 1228.83 2709.44C1231.14 2709.44 1232.67 2710.97 1232.67 2713.28ZM1274.87 2715.59C1274.87 2718.66 1273.34 2720.2 1271.04 2719.05C1269.12 2717.89 1267.2 2715.2 1267.2 2712.9C1267.2 2710.97 1269.12 2709.44 1271.04 2709.44C1273.34 2709.44 1274.87 2712.13 1274.87 2715.59ZM1313.24 2712.9C1313.24 2715.2 1311.71 2717.89 1309.4 2719.05C1307.49 2720.2 1305.57 2718.66 1305.57 2715.59C1305.57 2712.13 1307.49 2709.44 1309.4 2709.44C1311.71 2709.44 1313.24 2710.97 1313.24 2712.9ZM1351.99 2715.59C1356.59 2720.97 1356.21 2721.74 1350.07 2720.58C1345.85 2719.82 1342.02 2716.74 1340.86 2714.05C1338.95 2707.52 1345.85 2708.28 1351.99 2715.59ZM1391.89 2713.28C1390.74 2715.2 1388.06 2717.13 1385.75 2717.13C1383.84 2717.13 1382.3 2715.2 1382.3 2713.28C1382.3 2710.97 1384.99 2709.44 1388.44 2709.44C1391.51 2709.44 1393.04 2710.97 1391.89 2713.28ZM1217.32 2717.13C1217.32 2719.05 1215.79 2720.97 1213.49 2720.97C1211.57 2720.97 1209.65 2719.05 1209.65 2717.13C1209.65 2714.82 1211.57 2713.28 1213.49 2713.28C1215.79 2713.28 1217.32 2714.82 1217.32 2717.13ZM1405.32 2717.13C1405.32 2719.05 1404.55 2720.97 1403.79 2720.97C1402.64 2720.97 1400.72 2719.05 1399.57 2717.13C1398.41 2714.82 1399.18 2713.28 1401.1 2713.28C1403.4 2713.28 1405.32 2714.82 1405.32 2717.13ZM1257.61 2720.97C1258.76 2722.89 1258.38 2724.81 1256.07 2724.81C1254.16 2724.81 1251.09 2722.89 1249.93 2720.97C1248.78 2718.66 1249.17 2717.13 1251.47 2717.13C1253.39 2717.13 1256.46 2718.66 1257.61 2720.97ZM1295.98 2720.97C1299.04 2725.97 1294.06 2725.97 1286.38 2720.97C1281.4 2717.89 1281.4 2717.13 1287.15 2717.13C1290.6 2717.13 1294.82 2718.66 1295.98 2720.97ZM1008.99 2733.27C1007.84 2735.96 1007.07 2734.04 1007.07 2728.66C1007.07 2723.28 1007.84 2721.35 1008.99 2723.66C1009.76 2726.35 1009.76 2730.96 1008.99 2733.27ZM1336.26 2726.74C1336.26 2729.81 1334.73 2732.5 1332.81 2732.5C1330.89 2732.5 1328.59 2729.81 1327.05 2726.74C1325.9 2723.28 1327.05 2720.97 1330.51 2720.97C1333.57 2720.97 1336.26 2723.66 1336.26 2726.74ZM1378.46 2727.12C1378.46 2730.2 1376.93 2731.73 1374.63 2730.58C1372.71 2729.43 1370.79 2726.74 1370.79 2724.43C1370.79 2722.51 1372.71 2720.97 1374.63 2720.97C1376.93 2720.97 1378.46 2723.66 1378.46 2727.12ZM1242.26 2728.66C1243.41 2730.58 1242.65 2732.5 1240.73 2732.5C1238.42 2732.5 1236.51 2730.58 1236.51 2728.66C1236.51 2726.35 1237.27 2724.81 1238.04 2724.81C1239.19 2724.81 1241.11 2726.35 1242.26 2728.66ZM1359.28 2730.58C1359.28 2733.65 1356.59 2736.35 1353.53 2736.35C1350.07 2736.35 1348.92 2734.04 1350.07 2730.58C1351.61 2727.5 1353.91 2724.81 1355.83 2724.81C1357.75 2724.81 1359.28 2727.5 1359.28 2730.58ZM1397.65 2728.66C1397.65 2730.58 1394.96 2732.5 1391.51 2732.5C1388.44 2732.5 1386.9 2730.58 1388.06 2728.66C1389.21 2726.35 1391.89 2724.81 1394.19 2724.81C1396.11 2724.81 1397.65 2726.35 1397.65 2728.66ZM1201.98 2732.5C1201.98 2734.42 1201.21 2736.35 1200.44 2736.35C1199.29 2736.35 1197.37 2734.42 1196.22 2732.5C1195.07 2730.2 1195.84 2728.66 1197.76 2728.66C1200.06 2728.66 1201.98 2730.2 1201.98 2732.5ZM1284.47 2736.35C1288.3 2740.57 1289.45 2744.03 1287.15 2744.03C1284.47 2744.03 1282.55 2742.11 1282.55 2740.19C1282.55 2737.88 1279.86 2736.35 1276.79 2736.35C1273.72 2736.35 1271.04 2734.42 1271.04 2732.5C1271.04 2726.35 1276.79 2727.89 1284.47 2736.35ZM1320.91 2732.5C1320.91 2734.42 1319.38 2736.35 1317.08 2736.35C1315.16 2736.35 1313.24 2734.42 1313.24 2732.5C1313.24 2730.2 1315.16 2728.66 1317.08 2728.66C1319.38 2728.66 1320.91 2730.2 1320.91 2732.5ZM1422.59 2732.5C1425.66 2737.5 1420.67 2737.5 1412.99 2732.5C1408.01 2729.43 1408.01 2728.66 1413.76 2728.66C1417.21 2728.66 1421.43 2730.2 1422.59 2732.5ZM1301.73 2736.35C1301.73 2738.27 1300.2 2740.19 1297.89 2740.19C1295.98 2740.19 1294.06 2738.27 1294.06 2736.35C1294.06 2734.04 1295.98 2732.5 1297.89 2732.5C1300.2 2732.5 1301.73 2734.04 1301.73 2736.35ZM1343.93 2740.19C1343.93 2742.11 1341.25 2744.03 1337.8 2744.03C1334.73 2744.03 1333.19 2742.11 1334.34 2740.19C1335.49 2737.88 1338.18 2736.35 1340.48 2736.35C1342.4 2736.35 1343.93 2737.88 1343.93 2740.19ZM1407.24 2740.19C1408.39 2742.11 1406.86 2744.03 1403.79 2744.03C1400.33 2744.03 1397.65 2742.11 1397.65 2740.19C1397.65 2737.88 1399.18 2736.35 1401.1 2736.35C1403.4 2736.35 1406.09 2737.88 1407.24 2740.19ZM1249.93 2744.03C1251.09 2745.96 1250.32 2747.88 1248.4 2747.88C1246.1 2747.88 1244.18 2745.96 1244.18 2744.03C1244.18 2741.73 1244.95 2740.19 1245.71 2740.19C1246.87 2740.19 1248.78 2741.73 1249.93 2744.03ZM1381.15 2742.5C1380 2743.65 1376.55 2744.03 1373.86 2742.88C1370.79 2741.73 1371.94 2740.57 1376.16 2740.57C1380.38 2740.19 1382.68 2741.34 1381.15 2742.5ZM1012.83 2762.1C1011.68 2765.95 1010.91 2762.87 1010.91 2755.57C1010.91 2748.26 1011.68 2745.19 1012.83 2748.65C1013.6 2752.49 1013.6 2758.64 1012.83 2762.1ZM1322.06 2752.11C1325.9 2756.33 1328.2 2760.95 1327.44 2762.1C1325.13 2764.41 1309.4 2751.34 1309.4 2747.11C1309.4 2741.73 1315.16 2744.03 1322.06 2752.11ZM1366.95 2747.88C1366.95 2749.8 1365.42 2751.72 1363.12 2751.72C1361.2 2751.72 1359.28 2749.8 1359.28 2747.88C1359.28 2745.57 1361.2 2744.03 1363.12 2744.03C1365.42 2744.03 1366.95 2745.57 1366.95 2747.88ZM1431.03 2746.34C1429.88 2747.49 1426.42 2747.88 1423.74 2746.72C1420.67 2745.57 1421.82 2744.42 1426.04 2744.42C1430.26 2744.03 1432.56 2745.19 1431.03 2746.34ZM1566.46 2756.33C1570.3 2757.49 1570.68 2758.64 1567.23 2760.95C1564.93 2762.49 1559.94 2760.18 1556.1 2755.95C1552.65 2751.72 1548.05 2749.42 1546.13 2750.57C1543.82 2752.11 1543.44 2750.95 1544.98 2748.26C1547.28 2744.8 1549.58 2744.8 1554.18 2749.03C1558.02 2752.11 1563.39 2755.18 1566.46 2756.33ZM1234.59 2751.72C1235.74 2753.64 1234.97 2755.57 1233.05 2755.57C1230.75 2755.57 1228.83 2753.64 1228.83 2751.72C1228.83 2749.42 1229.6 2747.88 1230.37 2747.88C1231.52 2747.88 1233.44 2749.42 1234.59 2751.72ZM1395.73 2751.72C1396.88 2753.64 1394.58 2755.57 1389.97 2755.57C1385.37 2755.57 1383.07 2753.64 1384.22 2751.72C1385.37 2749.42 1388.06 2747.88 1389.97 2747.88C1391.89 2747.88 1394.58 2749.42 1395.73 2751.72ZM1194.3 2755.57C1194.3 2757.49 1192.77 2759.41 1190.47 2759.41C1188.55 2759.41 1186.63 2757.49 1186.63 2755.57C1186.63 2753.26 1188.55 2751.72 1190.47 2751.72C1192.77 2751.72 1194.3 2753.26 1194.3 2755.57ZM1219.24 2755.57C1220.39 2757.49 1219.63 2759.41 1217.71 2759.41C1215.4 2759.41 1213.49 2757.49 1213.49 2755.57C1213.49 2753.26 1214.25 2751.72 1215.02 2751.72C1216.17 2751.72 1218.09 2753.26 1219.24 2755.57ZM1278.71 2755.57C1278.71 2757.49 1277.18 2759.41 1275.26 2759.41C1272.96 2759.41 1270.27 2757.49 1269.12 2755.57C1267.97 2753.26 1269.5 2751.72 1272.57 2751.72C1276.02 2751.72 1278.71 2753.26 1278.71 2755.57ZM1351.61 2755.57C1351.61 2757.49 1348.92 2759.41 1345.47 2759.41C1342.4 2759.41 1340.86 2757.49 1342.02 2755.57C1343.17 2753.26 1345.85 2751.72 1348.15 2751.72C1350.07 2751.72 1351.61 2753.26 1351.61 2755.57ZM1420.67 2755.95C1420.67 2758.26 1424.12 2759.03 1429.11 2757.1C1437.55 2754.8 1437.55 2754.8 1430.26 2761.72C1425.27 2766.71 1422.59 2767.48 1421.43 2764.02C1420.67 2761.72 1417.6 2759.41 1414.53 2759.41C1411.46 2759.41 1409.16 2757.49 1409.16 2755.57C1409.16 2753.26 1411.84 2751.72 1414.91 2751.72C1417.98 2751.72 1420.67 2753.64 1420.67 2755.95ZM1261.45 2759.41C1260.29 2761.33 1257.61 2763.25 1255.31 2763.25C1253.39 2763.25 1251.85 2761.33 1251.85 2759.41C1251.85 2757.1 1254.54 2755.57 1257.99 2755.57C1261.06 2755.57 1262.6 2757.1 1261.45 2759.41ZM1303.65 2759.41C1302.5 2761.33 1299.81 2763.25 1297.51 2763.25C1295.59 2763.25 1294.06 2761.33 1294.06 2759.41C1294.06 2757.1 1296.74 2755.57 1300.2 2755.57C1303.26 2755.57 1304.8 2757.1 1303.65 2759.41ZM1382.3 2762.87C1382.3 2764.79 1385.75 2767.87 1389.97 2769.02C1394.19 2770.17 1397.65 2772.86 1397.65 2774.79C1397.65 2779.02 1386.14 2775.17 1379.61 2768.64C1373.48 2762.87 1373.09 2759.41 1378.46 2759.41C1380.77 2759.41 1382.3 2760.95 1382.3 2762.87ZM1407.62 2773.63C1403.79 2777.48 1400.33 2771.71 1403.79 2766.71C1406.09 2762.49 1406.86 2762.49 1408.39 2766.71C1409.16 2769.4 1408.77 2772.48 1407.62 2773.63ZM563.168 2785.93C630.694 2794.39 707.428 2803.62 733.901 2805.92C760.374 2808.23 784.161 2810.92 786.847 2811.69C789.149 2812.46 791.451 2818.61 791.451 2825.14V2837.45L767.664 2834.75C663.306 2823.22 424.281 2788.24 388.599 2779.78C379.775 2777.48 380.159 2777.09 394.354 2772.48C412.387 2766.71 407.783 2766.33 563.168 2785.93ZM1317.08 2775.17C1317.08 2777.09 1314.39 2778.63 1311.32 2778.63C1308.25 2778.63 1305.57 2775.94 1305.57 2772.86C1305.57 2769.4 1307.87 2768.25 1311.32 2769.4C1314.39 2770.94 1317.08 2773.25 1317.08 2775.17ZM1340.1 2770.94C1340.1 2772.86 1338.56 2774.79 1336.26 2774.79C1334.34 2774.79 1332.42 2772.86 1332.42 2770.94C1332.42 2768.64 1334.34 2767.1 1336.26 2767.1C1338.56 2767.1 1340.1 2768.64 1340.1 2770.94ZM1362.73 2775.17C1357.36 2778.25 1351.61 2776.32 1351.61 2770.94C1351.61 2769.4 1355.06 2768.64 1359.66 2769.79C1365.42 2771.33 1366.19 2772.86 1362.73 2775.17ZM1444.45 2775.56C1442.15 2777.86 1438.32 2778.25 1436.01 2776.71C1432.56 2774.4 1432.56 2773.25 1436.4 2770.56C1442.92 2766.71 1449.44 2770.56 1444.45 2775.56ZM1016.66 2785.17C1015.51 2789.01 1014.75 2786.7 1014.75 2780.55C1014.75 2774.02 1015.51 2771.33 1016.66 2773.63C1017.43 2776.32 1017.43 2781.71 1016.66 2785.17ZM1242.65 2774.4C1241.49 2776.32 1236.89 2777.09 1232.67 2775.94C1221.93 2773.25 1223.08 2770.94 1234.97 2770.94C1240.34 2770.94 1243.8 2772.48 1242.65 2774.4ZM1269.12 2774.79C1270.27 2776.71 1269.89 2778.63 1267.58 2778.63C1265.67 2778.63 1262.6 2776.71 1261.45 2774.79C1260.29 2772.48 1260.68 2770.94 1262.98 2770.94C1264.9 2770.94 1267.97 2772.48 1269.12 2774.79ZM1286.38 2774.79C1286.38 2776.71 1283.7 2778.63 1280.63 2778.63C1277.56 2778.63 1274.87 2776.71 1274.87 2774.79C1274.87 2772.48 1277.56 2770.94 1280.63 2770.94C1283.7 2770.94 1286.38 2772.48 1286.38 2774.79ZM1020.5 2815.92C1019.35 2819.76 1018.58 2816.69 1018.58 2809.38C1018.58 2802.08 1019.35 2799 1020.5 2802.46C1021.27 2806.31 1021.27 2812.46 1020.5 2815.92ZM1553.03 2867.04L1499.32 2886.27L1382.3 2885.5C1317.84 2885.5 1239.58 2884.34 1207.73 2882.81L1150.18 2880.5L1209.65 2877.81C1242.26 2876.27 1313.24 2873.96 1366.95 2872.81C1427.19 2871.27 1477.45 2868.2 1497.4 2864.74C1615.57 2843.98 1619.02 2843.98 1553.03 2867.04ZM985.204 2964.68C997.481 2970.07 998.632 2971.99 998.248 2985.06C997.865 2995.44 997.097 2996.97 995.946 2990.06C992.877 2972.76 987.889 2973.53 989.808 2991.21C991.342 3005.43 990.191 3010.04 983.285 3016.96C974.461 3025.81 974.845 3025.81 937.245 3015.43C925.735 3011.97 910.772 3009.28 903.482 3009.28C893.123 3009.28 891.205 3008.12 892.74 3002.36C893.891 2998.9 896.576 2987.75 899.262 2977.37L903.482 2959.3H938.013C959.114 2959.3 977.147 2961.61 985.204 2964.68ZM1051.58 3040.41L1050.43 3061.17L1048.51 3037.34C1047.36 3024.27 1048.13 3015.04 1049.66 3016.58C1051.58 3018.12 1052.35 3028.88 1051.58 3040.41ZM937.245 3029.65C946.453 3034.65 954.894 3040.8 955.661 3043.49C956.812 3046.56 951.057 3045.03 940.698 3039.64C929.956 3034.26 916.527 3030.8 904.25 3030.8C890.054 3030.42 885.066 3028.88 886.217 3025.42C889.287 3017.73 919.213 3020.04 937.245 3029.65ZM922.282 3050.02C937.245 3057.71 933.792 3061.56 917.678 3055.79C910.772 3053.48 898.495 3051.56 890.438 3051.56C881.23 3051.56 876.242 3050.02 877.777 3047.72C881.613 3041.95 909.237 3043.1 922.282 3050.02ZM923.049 3074.63C931.107 3082.7 931.107 3083.08 923.817 3080.39C903.866 3072.7 879.311 3069.63 870.103 3073.86C858.977 3079.24 858.209 3077.7 867.034 3068.86C876.626 3058.86 911.923 3062.71 923.049 3074.63ZM1155.94 3089.62C1119.1 3101.92 1084.19 3113.84 1078.44 3116.14L1067.69 3120.75V3095.77V3071.17L1112.97 3069.63C1137.52 3069.24 1172.43 3068.47 1190.47 3068.09L1223.08 3067.32L1155.94 3089.62ZM907.703 3090.77C913.458 3093.85 914.609 3097.31 912.307 3108.45C910.772 3116.14 908.854 3123.83 908.086 3124.98C907.319 3126.52 894.274 3130.75 878.928 3134.59L850.92 3141.9L872.022 3143.82C895.042 3146.13 895.425 3146.13 844.397 3157.27C812.937 3164.19 807.565 3168.04 824.83 3172.65C832.887 3174.57 834.038 3175.72 829.434 3178.8C826.749 3180.72 818.308 3182.26 811.786 3182.26C801.043 3182.26 799.125 3180.72 799.125 3173.42C799.125 3163.81 801.81 3159.2 832.887 3118.06C847.85 3097.69 856.675 3089.23 865.499 3086.54C878.544 3083.08 896.193 3085 907.703 3090.77ZM975.612 3156.89C969.09 3170.73 959.114 3185.34 953.359 3189.18C938.396 3199.56 897.344 3214.93 865.499 3222.24C840.561 3227.62 791.451 3230.7 791.451 3226.85C791.451 3226.08 790.684 3222.62 789.533 3219.93C787.998 3215.7 792.602 3214.93 813.32 3216.09C848.618 3218.01 890.821 3208.4 925.735 3191.1C951.057 3178.42 956.429 3173.42 969.857 3152.66C978.298 3139.59 985.587 3129.6 986.355 3130.36C987.122 3130.75 982.134 3142.67 975.612 3156.89Z" fill="white"/>
</svg>
